<svg fill="none" xmlns="http://www.w3.org/2000/svg" viewBox="0 0 56 57">
  <path d="M24.5 4H7a3.496 3.496 0 0 0-3.5 3.5v7C3.5 16.436 5.064 18 7 18h41.278c.46 0 .908-.186 1.236-.514l5.25-5.25a1.756 1.756 0 0 0 0-2.472l-5.25-5.25A1.757 1.757 0 0 0 48.278 4H31.5c0-1.936-1.564-3.5-3.5-3.5A3.496 3.496 0 0 0 24.5 4Zm28 24.5c0-1.936-1.564-3.5-3.5-3.5H31.5v-3.5h-7V25H7.722c-.46 0-.908.186-1.236.514l-5.25 5.25a1.756 1.756 0 0 0 0 2.472l5.25 5.25c.328.328.777.514 1.236.514H49c1.936 0 3.5-1.564 3.5-3.5v-7ZM31.5 53V42.5h-7V53c0 1.936 1.564 3.5 3.5 3.5s3.5-1.564 3.5-3.5Z" fill="currentColor"/>
</svg>
