<svg viewBox="0 0 138 237" fill="none" xmlns="http://www.w3.org/2000/svg"><path d="M17.562 15.224h-4.067l-1.004 5.782h4.067l1.004-5.782Zm11.686-5.292-.588 3.087c-.146.768-.473 1.331-.98 1.69-.49.344-1.273.515-2.352.515h-1.543l-1.005 5.782h2.646c.768 0 1.315.229 1.642.686.327.441.4 1.2.22 2.279l-.392 2.352h-4.85L20.33 36h-3.529c-.343 0-.67-.082-.98-.245a2.443 2.443 0 0 1-.759-.662 2.66 2.66 0 0 1-.417-.955 2.733 2.733 0 0 1 0-1.151l1.176-6.665H11.78l-1.2 7.032a3.143 3.143 0 0 1-.466 1.225 2.847 2.847 0 0 1-.784.809 2.985 2.985 0 0 1-1.005.465c-.359.098-.734.147-1.126.147H3.818l1.714-9.677H3.377c-.768 0-1.315-.221-1.642-.662-.327-.457-.4-1.225-.22-2.303l.392-2.352h4.36l1.005-5.782H2.396l.589-3.087c.147-.751.465-1.307.955-1.666.506-.36 1.299-.539 2.376-.539h1.667l1.274-7.179c.146-.767.514-1.363 1.102-1.788.604-.441 1.299-.661 2.082-.661h3.48l-1.715 9.628h4.067L19.988.303h3.38c.393 0 .744.066 1.054.196.327.131.596.31.808.54.23.212.392.473.49.784.099.293.115.62.05.98l-1.274 7.129h4.753Z" fill="#22D8A8"/><path d="M21.555 72.427V86h-8.28V72.427L.338 50.303H7.64c.72 0 1.283.172 1.691.515.425.327.776.751 1.053 1.274l5.048 10.388c.424.817.808 1.584 1.151 2.303.343.702.645 1.397.906 2.082.245-.702.523-1.404.834-2.106a41.65 41.65 0 0 1 1.127-2.279l4.997-10.388c.115-.212.254-.425.417-.637.163-.212.351-.4.564-.563.228-.18.481-.319.759-.417.294-.114.613-.172.956-.172h7.35L21.556 72.427Zm17.934 45.712c0 2.581-.449 4.982-1.347 7.203-.882 2.222-2.132 4.157-3.748 5.807-1.617 1.633-3.57 2.915-5.856 3.846-2.27.932-4.794 1.397-7.57 1.397-2.777 0-5.309-.465-7.595-1.397-2.287-.931-4.247-2.213-5.88-3.846-1.618-1.65-2.875-3.585-3.774-5.807-.881-2.221-1.322-4.622-1.322-7.203 0-2.58.44-4.981 1.323-7.203.898-2.221 2.155-4.148 3.772-5.782 1.634-1.633 3.594-2.915 5.88-3.846 2.287-.931 4.819-1.397 7.596-1.397 2.776 0 5.3.474 7.57 1.421 2.287.931 4.238 2.214 5.856 3.847 1.617 1.633 2.866 3.561 3.748 5.782.898 2.221 1.347 4.614 1.347 7.178Zm-8.476 0c0-1.764-.23-3.348-.687-4.753-.457-1.421-1.118-2.621-1.984-3.601a8.4 8.4 0 0 0-3.136-2.254c-1.241-.523-2.654-.784-4.238-.784-1.601 0-3.03.261-4.288.784a8.622 8.622 0 0 0-3.16 2.254c-.85.98-1.503 2.18-1.96 3.601-.458 1.405-.687 2.989-.687 4.753 0 1.781.23 3.381.687 4.802.457 1.405 1.11 2.597 1.96 3.577a8.61 8.61 0 0 0 3.16 2.254c1.258.507 2.687.76 4.288.76 1.584 0 2.997-.253 4.238-.76a8.388 8.388 0 0 0 3.136-2.254c.866-.98 1.527-2.172 1.985-3.577.457-1.421.685-3.021.685-4.802Zm-5.048 61.246V186H4.455v-35.697h8.28v29.082h13.23Zm13.524 38.754c0 2.581-.449 4.982-1.347 7.203-.882 2.222-2.132 4.157-3.748 5.807-1.617 1.633-3.57 2.915-5.856 3.846-2.27.932-4.794 1.397-7.57 1.397-2.777 0-5.309-.465-7.595-1.397-2.287-.931-4.247-2.213-5.88-3.846-1.618-1.65-2.875-3.585-3.774-5.807-.881-2.221-1.322-4.622-1.322-7.203 0-2.58.44-4.981 1.323-7.203.898-2.221 2.155-4.148 3.772-5.782 1.634-1.633 3.594-2.915 5.88-3.846 2.287-.931 4.819-1.397 7.596-1.397 2.776 0 5.3.474 7.57 1.421 2.287.931 4.238 2.214 5.856 3.847 1.617 1.633 2.866 3.561 3.748 5.782.898 2.221 1.347 4.614 1.347 7.178Zm-8.476 0c0-1.764-.23-3.348-.687-4.753-.457-1.421-1.118-2.621-1.984-3.601a8.4 8.4 0 0 0-3.136-2.254c-1.241-.523-2.654-.784-4.238-.784-1.601 0-3.03.261-4.288.784a8.622 8.622 0 0 0-3.16 2.254c-.85.98-1.503 2.18-1.96 3.601-.458 1.405-.687 2.989-.687 4.753 0 1.781.23 3.381.687 4.802.457 1.405 1.11 2.597 1.96 3.577a8.61 8.61 0 0 0 3.16 2.254c1.258.507 2.687.76 4.288.76 1.584 0 2.997-.253 4.238-.76a8.388 8.388 0 0 0 3.136-2.254c.866-.98 1.527-2.172 1.985-3.577.457-1.421.685-3.021.685-4.802Z" fill="#E939EF"/><path d="M70.067 68.14c0 2.58-.45 4.981-1.348 7.203-.882 2.22-2.131 4.156-3.748 5.806-1.617 1.633-3.57 2.915-5.856 3.847-2.27.93-4.794 1.396-7.57 1.396-2.777 0-5.309-.465-7.595-1.396-2.287-.931-4.247-2.214-5.88-3.847-1.617-1.65-2.875-3.585-3.773-5.806-.882-2.222-1.323-4.623-1.323-7.204 0-2.58.44-4.981 1.323-7.202.898-2.222 2.156-4.15 3.773-5.782 1.633-1.634 3.593-2.916 5.88-3.847 2.286-.931 4.818-1.397 7.595-1.397 2.776 0 5.3.474 7.57 1.422 2.287.93 4.239 2.213 5.856 3.846s2.866 3.56 3.748 5.782c.899 2.221 1.348 4.614 1.348 7.178Zm-8.477 0c0-1.764-.229-3.349-.686-4.754-.458-1.42-1.12-2.621-1.985-3.601a8.395 8.395 0 0 0-3.136-2.254c-1.241-.523-2.654-.784-4.238-.784-1.601 0-3.03.261-4.288.784a8.618 8.618 0 0 0-3.16 2.254c-.85.98-1.503 2.18-1.96 3.602-.458 1.404-.686 2.989-.686 4.752 0 1.78.228 3.382.686 4.803.457 1.404 1.11 2.597 1.96 3.577a8.618 8.618 0 0 0 3.16 2.253c1.258.507 2.687.76 4.288.76 1.584 0 2.997-.253 4.238-.76a8.395 8.395 0 0 0 3.136-2.254c.866-.98 1.527-2.172 1.985-3.576.457-1.421.686-3.022.686-4.802Zm28.246 11.319c1.11 0 2.099-.18 2.964-.54a6.123 6.123 0 0 0 2.23-1.592c.604-.686 1.061-1.519 1.372-2.499.326-.996.49-2.123.49-3.381V50.303h8.281v21.144c0 2.189-.359 4.198-1.078 6.027-.702 1.83-1.715 3.405-3.038 4.728-1.323 1.323-2.932 2.353-4.827 3.088-1.894.734-4.026 1.102-6.394 1.102-2.385 0-4.525-.367-6.42-1.102-1.894-.736-3.503-1.765-4.826-3.088-1.323-1.323-2.335-2.899-3.038-4.728-.702-1.83-1.053-3.838-1.053-6.027V50.303h8.28v21.12c0 1.257.156 2.384.466 3.38.327.98.792 1.822 1.397 2.524a6.17 6.17 0 0 0 2.205 1.593c.882.359 1.878.538 2.989.538Zm-14.31 20.844V136h-4.311c-.637 0-1.176-.098-1.617-.294-.425-.212-.85-.572-1.274-1.078l-16.832-21.291c.066.637.106 1.258.123 1.862.032.588.049 1.144.049 1.666V136h-7.301v-35.697h4.36c.36 0 .662.017.907.049.245.033.466.098.662.196.196.082.383.205.563.368.18.163.384.384.613.661l16.978 21.438a29.665 29.665 0 0 1-.171-1.985 36.837 36.837 0 0 1-.05-1.837v-18.89h7.302Zm28.438 29.082V136H82.453v-35.697h8.28v29.082h13.231Zm16.644-6.958V136h-8.281v-13.573l-12.936-22.124h7.301c.719 0 1.282.172 1.691.515.424.327.776.751 1.053 1.274l5.047 10.388c.425.817.809 1.584 1.152 2.303.343.702.645 1.396.906 2.082a28.49 28.49 0 0 1 .833-2.107c.327-.718.703-1.478 1.127-2.278l4.998-10.388c.115-.212.253-.425.417-.637a3.1 3.1 0 0 1 .563-.564c.229-.179.482-.318.76-.416.294-.114.612-.172.955-.172h7.35l-12.936 22.124ZM38.528 186h-8.33v-35.697h8.33V186Zm38.909-35.697L63.129 186h-7.497l-14.308-35.697h6.664c.719 0 1.298.172 1.74.515.44.327.775.751 1.004 1.274l6.909 19.11c.327.833.645 1.748.955 2.744.31.98.605 2.009.882 3.087.23-1.078.482-2.107.76-3.087a33.59 33.59 0 0 1 .93-2.744l6.86-19.11c.18-.457.5-.866.956-1.225.474-.376 1.054-.564 1.74-.564h6.713Zm11.144 6.37v8.33h11.221v6.125h-11.22v8.502h14.65V186h-22.98v-35.697h22.98v6.37h-14.65Zm-13.054 43.63V236h-4.312c-.637 0-1.176-.098-1.617-.294-.425-.212-.85-.572-1.274-1.078l-16.832-21.291c.066.637.106 1.258.123 1.862.032.588.049 1.144.049 1.666V236h-7.301v-35.697h4.36c.36 0 .662.017.907.049.245.033.466.098.662.196.196.082.383.205.563.368.18.163.384.384.613.661l16.978 21.438a29.665 29.665 0 0 1-.171-1.985 36.837 36.837 0 0 1-.05-1.837v-18.89h7.302Zm30.985 26.46c.196 0 .392.041.588.123.196.065.383.188.563.367l3.283 3.455a13.716 13.716 0 0 1-5.414 4.263c-2.156.947-4.713 1.421-7.669 1.421-2.711 0-5.145-.457-7.301-1.372-2.14-.931-3.96-2.205-5.463-3.822-1.487-1.633-2.63-3.561-3.43-5.782-.8-2.238-1.201-4.663-1.201-7.277 0-2.662.433-5.104 1.298-7.325.866-2.238 2.083-4.165 3.651-5.782 1.568-1.617 3.446-2.875 5.635-3.773 2.189-.898 4.598-1.348 7.227-1.348 1.34 0 2.598.123 3.774.368 1.192.229 2.303.555 3.332.98 1.029.408 1.976.906 2.842 1.494a14.961 14.961 0 0 1 2.303 1.911l-2.793 3.749c-.18.229-.392.441-.637.637-.245.18-.588.269-1.029.269-.294 0-.572-.065-.833-.196-.262-.13-.539-.285-.833-.465-.294-.196-.621-.4-.98-.613a5.991 5.991 0 0 0-1.25-.612 9.174 9.174 0 0 0-1.69-.49c-.638-.131-1.389-.196-2.254-.196-1.372 0-2.63.253-3.773.759a8.288 8.288 0 0 0-2.94 2.23c-.817.964-1.454 2.156-1.912 3.577-.44 1.405-.661 3.013-.661 4.826 0 1.83.245 3.455.735 4.876.506 1.421 1.184 2.621 2.033 3.601a8.81 8.81 0 0 0 3.014 2.205 8.963 8.963 0 0 0 3.675.76c.751 0 1.437-.033 2.058-.098a10.858 10.858 0 0 0 1.74-.368 7.937 7.937 0 0 0 1.519-.686 10.33 10.33 0 0 0 1.445-1.102 2.58 2.58 0 0 1 .637-.392c.229-.114.466-.172.711-.172Zm16.379-20.09v8.33h11.221v6.125h-11.221v8.502h14.651V236h-22.981v-35.697h22.981v6.37h-14.651Z" fill="#fff"/></svg>
