<svg xmlns="http://www.w3.org/2000/svg" xml:space="preserve" viewBox="0 0 632.623 216.264"><path fill="#FFF" d="m213.178 132.319-1.4.4-1.395.401-1.203.396-.998.8-1 .798-.801 1-.6 1.001-.798 1.198-.601 1.201-.4 1.201-.201 1.395-.396 1.201-.204 1.201-.2 2.199-3.197 30.378H186.39l5.599-54.962h13.39l-.799 7.794.2-.601.202-.599.598-.801.6-1 .799-1.198.801-.998 1.199-1.201.801-.599.798-.401.798-.599 1-.2.8-.4.8-.199h1l.801-.201.998.201h1l.8.199 1 .4.6.402.598.197 1 .8.398.399.202.201.599 11.59-1.599-.999-.802-.597-.796-.401-1.2-.401-1.201-.397-1.198-.201h-2.998zM229.767 103.137h13.594l-7.794 72.957h-13.395zM361.892 176.29h-1.002l-.4-.196-.6-.205-.401-.196-.599-.403-.401-.598-.2-.4-.196-.601v-2.2l.396-2.598-.799 1-.599 1-.801.801-.796.799-1.001.6-.801.8-.997.601-1 .397-1.003.597-.998.4-1.2.4-1 .199-1.196.401-1.199.199h-4.2l-1.796-.199-1.6-.6-1.6-.597-.8-.403-.6-.398-.799-.398-.599-.599-.603-.599-.6-.603-.598-.599-.601-.799-.401-.802-.396-.798-.598-1.599-.402-1.798-.204-1.8-.197-1.8v-2l.197-2.195.204-2.2 3.595-34.176h13.592l-3.596 34.176-.4 2.4V160.897l.199 1 .202 1.201.601 1 .599.998.401.4.599.6.6.201.599.397.598.202.803.198h2.396l.802-.198.798-.202.801-.198.799-.2.798-.4.801-.4.6-.6.803-.598.597-.601.598-.598.399-.802.4-.798.399-.802.2-1 .201-.996 3.799-36.576h13.593l-5.798 54.163h-8.392zM391.47 115.131l-1.399-.202-1.396-.2-.601-.198-.601-.201-.597-.398-.606-.202-.398-.6-.395-.4-.405-.6-.195-.601-.202-.6-.203-.796v-1.598l.203-.802.202-.799.195-.599.405-.603.395-.599.398-.398.606-.602.597-.398.399-.399.802-.199.598-.401.601-.198 1.599-.4H394.474l.793.199.601.202.599.396.6.202.602.398.604.401.397.399.397.4.203.601.201.6.197.6.202.6v1.401l-.202.6v.598l-.398.799-.201.6-.398.599-.398.4-.403.6-.397.4-.601.402-.599.399-.801.398-.601.202-.802.197-.801.2-.793.202h-1.004v-.002zm-13.194 61.958 5.596-54.765h13.395l-5.596 54.765h-13.395zM427.647 173.295l-1.796.798-1.799 1-1.799.6-1.997.597-2.001.402-1.999.397h-6.593l-2.402-.397-2.197-.203-2-.6-1.402-.4-1.196-.597-.998-.397-.599-.401-.403-11.992h.201l.202.198.796.599 1.4.802 1.797.799 2 1 1.2.4 1.199.199 1.197.401 1.206.199 1.394.201h3.199l.801-.201.8-.199.797-.2.802-.201.597-.398.6-.4.406-.402.395-.399.398-.601.406-.399.395-.799.201-.599.199-.8v-2.401l-.199-.596-.403-.799-.396-.602-.601-.6-.597-.599-.599-.401-1.603-.998-1.596-1-3.799-2-1.998-.997-1.799-1.201-.801-.797-.795-.603-.801-.799-.802-.799-.599-1-.599-1-.396-1-.404-1.195-.196-1.199-.202-1.402v-1.396l.202-1.6.196-1.801.598-1.796.601-1.599.599-1.399 1.002-1.4.998-1.199 1.2-1.196 1.196-1 1.4-.801 1.4-.799 1.401-.801 1.597-.397 1.799-.604 1.601-.198 1.796-.2 1.799-.201h.599l1.798.201h1.602l1.401.2 1.394.198 1.205.401.996.202 1.799.798 1.603.599.998.6.6.4v.201h.2l.601 10.193-.203-.198-.598-.403-.803-.801-1.394-.796-1.602-.801-.998-.399-1.003-.202-1.199-.396-1.196-.202h-1.401l-1.4-.2h-.402l-1.598.2-1.4.401-.799.197-.601.202-.597.399-.6.202-.398.399-.402.601-.398.395-.404.605-.195.6-.403.596v.8l-.198.599V138.317l.399.601.202.6.397.602.6.599.598.599.599.6 1.401.796 1.601 1 3.397 1.599 2.201 1.201 2.194 1.399 1.003.6.796.798.801.8.802.799.8 1 .601 1 .599 1 .399 1.198.2 1.2.196 1.4V160.505l-.396 1.798-.399 1.801-.599 1.6-.801 1.595-.802 1.399-.998 1.199-1.198 1.2-1.198 1zM466.825 130.719l-1.4.202-1.199.2-.998.399-1.002.398-.795.602-.801.601-.8.796-.601.804-.599.796-.399 1-.402 1-.197.799-.599 2-.202 2-2.201 21.184.202.2.398.4.802.398 1.198.599 1.199.602 1.401.398 1.6.401h2.598l.998-.2.998-.201.802-.198 1.001-.6.794-.601 1.005-.802.794-.798.8-1.2.601-1.201.801-1.395.601-1.798.598-1.801.601-2.199.397-2.2.404-2.598v-1l.201-1.799v-4.798l-.201-1.6-.203-1.398-.397-1.199-.402-1.201-.601-.996-.601-1-.6-.802-.998-.799-1.002-.6-.996-.4-1.199-.199-1.399-.196zm0 46.37h-2.198l-1.196-.199-1.006-.197-.996-.402-.801-.196-.8-.4-.999-.601-1.4-.801-1.399-1.2-1.199-1.198-1.2-1.401-.598 5.6h-12.994l7.596-72.957h13.596l-2.599 24.185.2-.199.6-.802.996-1 .6-.596.802-.799.8-.602.998-.6 1.003-.598 1.199-.402 1.394-.399 1.4-.399 1.604-.2 1.597-.199 2.2.199h.998l1.004.2.998.201.996.397 1.002.4.998.399.801.399.801.399.602.601.799.601 1.199 1.199 1.2 1.197.996 1.6.8 1.601.602 1.599.6 1.799.6 1.795.201 2.001.399 1.999v1.801l.2 1.999-.2 1.995v2l-.202 2-.398 2.396-.398 2.6-.598 2.6-.805 2.395-.8 2.4-1.198 2.398-1.199 2.2-1.198 2.197-1.602 1.797-.797 1.001-.8.801-.802.798-.996.803-.801.599-.998.799-1.004.4-1.198.6-.997.4-1.197.396-1.004.203-1.197.197-1.4.199-1.207.002zM566.163 132.319l-1.4.201-1.395.6-1.206.396-.995.8-.998.798-.801 1-.6 1.001-.8 1.198-.6 1.201-.398 1.201-.402 1.395-.194 1.201-.204 1.201-.202 1.998-3.197 30.58h-13.394l5.602-54.962h13.386l-.796 7.794v-.2l.198-.401.201-.599.599-.801.6-1 .801-1.198.8-.998 1.2-1.201.793-.599.803-.401.799-.599.998-.2.802-.4.801-.199h.998l.801-.201.996.201h1.004l.801.199.996.4.6.402.601.197.998.8.402.399.201.201.399 11.59-1.401-.999-.8-.597-.998-.401-.997-.401-1.206-.398-1.198-.2h-2.998z"/><path fill="#FFF" d="m605.939 142.511.203-2.196V137.917l-.203-1.202-.397-1.199-.6-1-.6-1-.6-.598-.6-.599-.6-.401-.801-.398-.801-.399-.803-.2-.795-.202H597.537l-.794.202h-.801l-.599.2-.6.399-.602.199-1.198.801-1.001.799-.797 1.196-.801 1.2-.802 1.201-.599 1.398-.6 1.6-.396 1.599-.405 1.598-.396 1.601-.201 1.599-.396 3.199-.203 1.997-.203 1.8v1.799l.203 1.4.203 1.398.201 1.197.396 1.203.396.797.6 1.001.6.599.8.602.802.398.998.4 1.002.2 1.199.199h2.599l1.394-.199 1.401-.401 1.199-.598.801-.402.802-.6 1.399-.998.795-.602.203-.396 1.803-17.793zm-18.787 53.566H583.555l-1.604-.198-1.399-.199-2.6-.603-2.195-.599-1.799-.799-1.4-.598-1.602-.804-.195-11.19 1.4 1.001 1.197.798 1.598.801.801.395 1.199.4.996.198 1.206.4 1.393.204 1.399.197 1.604.2h1.797l2.398-.2 2.194-.197 2-.204 1.798-.599 1.602-.598 1.4-.601 1.4-.801.996-.799.998-1 .801-1 .6-1 .6-.998.403-.998.196-1.203.201-1.196.201-.998.197-1.802.403-2.995-1.401 1.395-1.602 1.199-1.396 1-1.804 1-1.797.801-.795.398-1.001.202-.999.198-1.001.198-.998.202H587.149l-1.401-.202-1.198-.198-.998-.198-1.203-.202-.998-.398-.803-.599-.996-.401-.801-.599-.803-.601-.794-.603-.599-.798-.803-.6-.398-.802-.604-.996-.6-.803-.398-.999-.802-1.998-.398-1.999-.396-2.401-.406-2.396v-4.998l.202-2.597.398-2.397.404-2.601.598-2.6.795-2.395.802-2.6 1.002-2.397 1.199-2.199 1.396-2.2.605-1 .794-1 .801-1 .998-.798.802-.802 1.002-.797.998-.801.998-.6 1.002-.6 1.199-.601 1.196-.399 1.2-.4 1.199-.397 1.399-.201h1.2l1.398-.2 1.797.2 1.604.201 1.595.397 1.199.4 1.199.399 1.002.601.794.6.801.6.601.6.404.596.795 1 .402.801v.398l.6-5.392h13.588l-5.196 49.767-.197 1.6-.401 1.397-.199 1.398-.401 1.4-.397 1.398-.396 1.2-.406 1.201-.599 1.199-.599 1.199-.599 1-.802.999-.6.998-.795 1-.803.8-1.001.8-.796.8-1.003.601-.995.799-1.199.597-1.002.6-1.199.399-1.199.6-1.199.401-1.198.399-2.599.601-2.801.4-2.998.397h-2.991v.014zM162.809 130.719h-.6l-1.198.202-1.197.396-1.202.401-1.2.801-1 .799-.798.998-.802 1.198-.798 1.199-.802 1.4-.6 1.601-.6 1.6-.399 1.6-.396 1.796-.401 1.799-.199 2-.2 2v5.195l.2 1.399.199 2.199.401 1.796.6 1.4.598 1.397.4.401.397.599.4.401.401.4.4.2.599.198.398.201h2.2l.4-.201.6-.398.598-.4.604-.401.996-1 .999-1.199 1-1.6 1-1.599.8-1.996.999-2 .802-2.199.599-2.195.799-2.401.597-2.597.601-2.4.399-2.598.4-2.597.401-3.401-.202-.396-.396-.6-.603-.605-.601-.797-.995-.801-.602-.199-.8-.401-.598-.197-.802-.2-.8-.202h-.996v.004zm15.989 45.973h-12.79l2.199-18.188v.201l-.198.599-.6 2.197-.602 1.396-.6 1.601-.798 1.599-1.002 1.801-1 1.599-1.2 1.798-1.399 1.397-.6.803-.796.598-.802.6-1 .598-.798.599-1.002.4-1 .402-1 .197-.998.199h-2.198l-1.801-.199-1.398-.6-1.4-.597-1.399-.802-1.201-.998-1-1-.996-1.199-.8-1.399-.802-1.401-.6-1.6-.6-1.596-.598-1.6-.402-1.6-.199-1.802-.401-1.799-.198-1.597-.2-2.398v-6.395l.397-2.6.401-2.599.601-2.596.8-2.401.799-2.396 1-2.197 1.2-2 1.2-1.999 1.397-1.8 1.599-1.601 1.6-1.396 1.6-1.2 1-.4.796-.6 1-.399 1.002-.399 1-.4 1-.199 1.199-.199 1-.201h1.6l1.6.201 1.395.199 1.401.199 1.198.4 1.002.6 1 .6.798.399.802.801.796.399.599.596.802 1.203.598.598.2.2v.198-.398l.2-1 .2-1.196v-.601l.2-.399.202-.401.397-.2.201-.4.4-.2.2-.2.401-.2h11.192l-5.796 54.37zM520.194 129.921h-1.199l-.8.199-.802.2-.801.2-.797.4-.6.396-.6.401-.595.602-1.004 1-.996 1.4-.801 1.396-.599 1.4-.6 1.399-.397 1.201-.403 1.397-.201 1.198-.399 1.6v.599l13.392-1.199 1-.198.8-.202.602-.396.599-.403.6-.597.2-.401.202-.598.198-.402v-.599l.201-1.198.201-1.201-.201-1.599-.398-1.401-.6-1.196-.201-.601-.402-.599-.396-.4-.602-.401-.398-.396-.6-.4-.597-.2-.601-.2-.605-.199h-.8v-.002zm17.19 13.188-.406 1-.193 1-.402.8-.6.801-.6.601-.601.599-.601.6-.6.6-.8.4-.802.402-.797.197-.801.2-1.602.398-1.796.2-18.787 1.599-.202.201V155.104l.202 1.4.201 1.6.196.797.402.8.399.801.403.8.6.8.6.797.795.601.799.801 1.006.599.996.401 1.197.399 1.401.398 1.798.201H521.984l1.4-.201 1.199-.198 1.199-.2 1.201-.399.994-.401 1.806-.799 1.393-1 1.002-.6.801-.601v-.201h.197l-1.797 9.195-.203 1-.195.198-.202.399-.599.401-.599.401-.397.396-.801.4-1.004.601-1.394.598-1.601.599-2 .601-.996.203h-1.199l-1.2.197h-2.598l-1.4-.197-2.801-.203-1.797-.396-1.801-.604-1.797-.796-1.602-1.001-1.596-1-1.401-1.2-1.399-1.397-1.199-1.401-1.201-1.599-.799-1.598-.998-1.799-.601-2-.6-1.799-.599-2.196-.203-2-.193-2.399v-2.795l.396-2.801.203-1.598.194-1.801.405-1.396.396-1.6.601-1.4.396-1.6.6-1.198.605-1.4.599-1.2.797-1.196.6-1.199.801-1 .801-1 .801-1.001.793-1 .803-.799 1.797-1.6 1.799-1.396 2-1.2 2.001-.8 1.998-.801 2-.599 2.197-.2 2-.199h1.196l1.4.199 1.799.4 1.799.397 1.602.604 1.595.798 1.4.8 1.2 1 1.197 1.201.803.995.998 1.199.801 1.4.6 1.4.402 1.199.398 1.395.396 1.599.203 1.401v1.4l.202 1.396-.202 1.2-.203 1.202-.189 1.4zM126.834 115.131h-1.204l-1.197.198h-1.199l-1.001.199-1.199.401-1 .198-1 .4-1 .599-.996.399-1 .601-.801.6-.798.598-1 .602-.801.8-1.398 1.6-1.401 1.6-1.197 2-1 1.995-1 2.199-.798 2.199-.802 2.4-.599 2.594-.398 2.402-.202 2-.199 1.797v5.196l.401 1.601.2 1.8.599 1.598.599 1.397.6 1.2.802 1.202.798 1.199 1 .996.999.801 1.198.8 1.199.8 1.201.599 1.2.401 1.398.398 1.397.399 1.002.203h1l1.997.2h1.4l1.399-.2 1.4-.203 1.197-.399 1.2-.398.999-.401 2-.8 1.6-.801 1.199-.796.801-.603.196-.199-6.395 14.19v.203h-.2l-.801.398-1 .599-1.6.597-1.796.605-2.199.395-1.199.203-1.4.198-1.396.199h-3.399l-2.202-.199-1.397-.401-1.401-.199-1.196-.4-1.199-.4-1.2-.395-1.202-.599-1.199-.401-1-.598-.996-.803-1-.599-1-.799-1-.801-.8-.799-.8-1.001-1.6-1.795-1.2-2.198-1.197-2-1-2.396-.801-2.401-.798-2.599-.401-2.597-.397-2.599-.202-2.797v-4.599l.202-2.197.397-2.397.401-2.199.6-2.401.801-2.797.995-2.798 1.202-2.796 1.399-2.998.8-1.402 1-1.599.799-1.401 1.2-1.395.999-1.4 1.196-1.201 1.2-1.397 1.401-1.201 1.4-1.2 1.6-1 1.595-1.198 1.6-.799 1.801-1 1.797-.8 2.001-.601 1.995-.599 2.199-.401 2.202-.398h2.398l2.396-.202h1.599l1.4.202 1.399.199 1.2.199 2.199.401 1.797.599 1.4.601.998.4.603.4h.198l.401 13.19-.599-.601-.801-.599-1.199-.596-1.601-.803-.801-.4-1.196-.198-.999-.401-1.2-.199-1.399-.198h-2.193zM294.131 114.53h-6.398l-5.196 50.168h6.196l1.398-.201 1.001-.199 1.198-.2 1.401-.4 1.6-.599 1.598-.802 1.599-.998.799-.602.801-.799.798-.801.802-.796.599-1 .799-1 .597-1.199.604-1.199.599-1.399.599-1.396.599-1.602.4-1.601.399-1.797.202-2.001.198-2 .199-2.196V133.913l-.199-1.796-.198-2.399-.601-2.399-.599-2.001-.602-1.796-.795-1.6-1.001-1.601-.799-1.198-.999-1-1-1-1.001-.797-1-.6-1-.4-.996-.399-1-.2-.801-.198-.8.001zm28.781 28.781-.201 2.801-.6 2.799-.601 2.796-.598 2.398-.798 2.199-1 2.2-1 1.997-1 1.798-1.2 1.801-1.198 1.398-1.197 1.598-1.205 1.199-1.395 1.202-1.401 1.198-1.398.799-1.4 1-1.601.802-1.4.599-1.396.601-1.401.599-1.397.396-1.4.399-2.6.601-2.396.203-2.199.197-1.799.199H265.947l7.194-73.952h23.983l2.601.398 1.4.201 1.2.398 1.199.201 1.196.4 1.202.601 1.2.397 1 .603 1.2.599.999.799.998.6.997.802 1 .796 1 1 .799 1.001.8 1 1.001 1 .599 1.2.801 1.198.599 1.196.8 1.199.602 1.4.4 1.397.6 1.601.4 1.399.396 1.599.4 1.599.199 1.799.201 1.797.2 2.802.202 2.996-.202 3-.201 3.195z"/><path fill="#FFF" d="m304.325 68.155-2.599-1.994-3.001-1.803-2.995-1.997-3.2-1.801-3.398-1.797-3.597-1.797-3.397-1.599-5.598-2.398-5.197-2.001-5.595-1.997-5.597-1.998-6.399-1.801-6.195-1.799-6.395-1.598-6.396-1.599-7.198-1.402-7.391-1.198-7.398-1.198-7.595-.799-7.396-.802-7.596-.797-7.596-.399-7.594-.403-7.593-.198h-7.595l-7.596.198-7.598.205-7.396.597-7.596.598-3.795.4-3.799.601-3.601.397-3.796.601-3.398.601-3.598.8-3.397.797-3.398.803-3.399 1-3.397 1.198-3.199 1.198-3.397 1.401-2.6 1.199-2.599 1.4-2.396 1.397-1.199.802-1.2.996-1.202.8-.995 1-1 1.001-1 1.199-.802 1.199-.798 1.198-.799 1.199-.602 1.402-.6 1.796-.6 1.6-.599 1.796-.4 2.001-.6 3.798-.599 3.798-.601 3.995-.596 3.798-1 7.997-3.399 25.583 2.8-2.398 2.599-2.2 2.797-2.196 2.799-2 2.795-2 3-1.997 2.798-1.998 2.996-1.799 3-2 2.998-1.599 2.998-1.799 3-1.598 3.194-1.8 3.001-1.398 6.398-3 3.396-1.599 3.198-1.396 6.795-2.799 6.995-2.601 3.397-1.198 3.399-.998 6.998-2.199 6.995-2 7.196-1.798 6.994-1.599 7.596-1.402 7.394-1.196 7.595-1.2 7.399-.798 7.594-.603 7.596-.599 7.595-.201 7.396-.198 7.595.198 7.595.201 7.394.399 7.595.802 7.398.798 7.596 1 7.394 1.199 7.396 1.4 4.2.996 4.396 1 4.397 1.199 4.198 1 4.195 1.2 4.001 1.201.599.2h.4l-.201-.401-.199-.2-.4-.598-1.198-1.2-1.199-1.202z"/><path fill="#FFF" d="m152.816 20.987-7.596-.399-7.598-.401h-22.786l-7.597.401-7.59.399-7.199.6-7.195.6-7.194.799-7.195 1-6.396 1.198-3.4.604-3.196.596-3.199.799-3.199.8-3.197.799-3.198 1-2.6.801-2.599 1-2.595 1-2.4 1.196-2.797 1.201-2.6 1.399-1.199.8-1.199.8-1.2.797-1.201 1-.996.803-.801.796-1 1-.599 1-.8 1.001-.8 1-.601.998-.4 1.202-.601 1.398-.598 1.597-.399 1.6-.2 1.6-.6 3.199-.4 2.997-1.397 8.594-1.199 8.594-2.4 17.19 3.001-1.799 3.195-1.599 6.395-3.397 6.399-2.996 6.594-3 6.996-2.798 6.995-2.799 6.998-2.399 3.397-1.2.399-.198.2-.202v-.199l.201-.799.2-2 .798-3.598.202-1.799.6-1.797.4-1.8.6-1.797.798-1.601.802-1.599.6-1.399.998-1.2.799-1.2 1-1.197 1-1 1.199-1.199 1-.798 1.198-1 1.401-1 1.396-.801 1.401-.998 1.398-.801 3.001-1.401 2.995-1.198 3-1.198 3.199-1 3.197-1 2.999-.998 3.196-.802 3.398-.797 3.198-.802 3.396-.597 3.2-.601 3.4-.399 6.595-1 6.795-.801 6.797-.598 6.795-.4 6.797-.2 7.596-.201 7.594.201 7.596.2 7.396.199 7.596.603 7.595.598 7.595.798 7.394 1 5.597.796 5.396 1 10.997 2h.397v-.198l-.397-.201-6.797-1.995-6.598-1.802-6.995-1.799-6.794-1.599-6.997-1.4-6.995-1.397-6.999-1-7.195-1-4.395-.601-4.601-.4-8.991-.799z"/></svg>
