<svg xmlns="http://www.w3.org/2000/svg" xml:space="preserve" id="Layer_1" x="0" y="0" version="1.1" viewBox="0 0 580.9 582.2"><path fill="currentColor" d="M415.4 456.4c12.4 11.8 29.8 19.6 54.7 19.6 33.1 0 51.4-16.5 51.4-41.2 0-27.9-28.1-33.8-48.4-38.1-13.7-2.6-21.3-4.8-21.3-11.3 0-5.4 4.1-9.6 14.6-9.6 10.9 0 24.4 4.3 34.8 12.8l17.4-22.7c-13.1-11.3-30.3-17.2-50.1-17.2-31.6 0-49.2 17.9-49.2 38.6 0 29.2 28.5 34.4 48.8 38.5 13.1 2.8 21.1 5.5 21.1 12.6 0 5.9-6.7 10.5-17.6 10.5-16.8 0-30.5-7.4-39.4-16.3l-16.8 23.8zm-71 17.4h31.8v-95.6h34.4v-27.7H309.8v27.7h34.6v95.6zm-91.7-95.6 17.4 50.1h-34.6l17.2-50.1zm32 95.6h34.6l-46.6-123.3h-39.9l-46.4 123.3H221l6.3-18.7h51.2l6.2 18.7zM125.2 476c30.7 0 46.8-17.2 54.7-33.1L152.5 430c-4.1 9.8-14.6 17.9-27.4 17.9-19.2 0-33.5-15.5-33.5-35.7 0-20.1 14.2-35.7 33.5-35.7 12.8 0 23.3 8.1 27.4 17.9l27.4-12.9c-8.1-16.3-24-33.1-54.7-33.1-37 0-65.8 25.7-65.8 63.8 0 37.9 28.8 63.8 65.8 63.8"/><path fill="currentColor" d="M519.7 527.5c-1.2 2.9-2.6 4.8-4 5.9-1.4 1.1-3.5 1.6-6.1 1.6h-4.5c-2.6 0-4.3-.3-5-.9-.8-.5-1.2-1.9-1.2-4.1v-12.5h5.1c3.8 0 6.2.4 7.3 1.1 1.1.7 1.7 2.2 1.9 4.4h1.4v-13.3h-1.4c-.2 2.2-.8 3.7-1.9 4.4-1.1.7-3.5 1.1-7.3 1.1h-5v-12.1c0-2.2.4-3.6 1.2-4.2.7-.6 2.4-.9 5-.9h5.9c2.3 0 3.8.5 4.7 1.6.9 1.1 1.5 2.9 1.8 5.4h1.8l-.6-9.4h-32.3v1.4c.2 0 .3.1.5.1 1.2.2 1.9.4 2.2.5.3.1.7.3 1.4.7 1.2.8 1.4 1.9 1.4 4v28.2c0 1.9-.4 3.2-1.2 3.9-.6.5-2 .9-4.3 1.3v1.4h32.4l2.7-9.9h-1.9zm-64.5 10.7c3.1 0 6-.4 8.6-1.1 2.6-.7 4.5-1.6 5.7-2.5-.7-2.6-1-5.2-1-7.6v-3.5c0-3.2 1.3-4.3 4.4-4.7V517h-17.7v1.7c2.9.2 4.7.8 5.7 1.7.9.9 1.4 2.8 1.4 5.7v2.9c0 2.5-.4 4.3-1.4 5.3-.9 1-2.6 1.5-5 1.5-5.2 0-9.2-2-12.2-5.9-3-3.9-4.5-9-4.5-15.3 0-5.4 1.3-9.7 3.8-12.8 2.5-3.1 6-4.6 10.5-4.6 6.7 0 10.8 3.2 12.2 9.6h2.4c-.1-2-.3-4.9-.5-8.9-3.4-2-7.8-3-13.2-3-6.9 0-12.5 2.1-16.7 6.2-4.2 4.1-6.3 9.3-6.3 15.6 0 6.3 2.1 11.5 6.3 15.6 4.2 3.9 10 5.9 17.5 5.9m-60.4-3.2c-2.5 0-4.2-.5-5-1.4-.9-.9-1.4-2.5-1.4-4.9v-30.5h3.9c11.2 0 16.8 6.3 16.8 18.8 0 12-4.7 18-14.3 18m-18.9-39.1v1.4c.2 0 .3.1.5.1 1.2.2 1.9.4 2.2.5.3.1.7.3 1.4.7 1.2.8 1.4 1.9 1.4 4v28.2c0 1.9-.4 3.2-1.2 3.9-.6.5-2 .9-4.3 1.3v1.4H393c6.4 0 12-1.6 16.6-4.9 4.5-3.2 7.3-8.9 7.3-16.2 0-5.7-1.9-10.5-4.9-13.6-4.6-4.7-11.6-7-19-6.9h-17.1zm-15.8 41.5V536c-.2 0-.3-.1-.5-.1-1.2-.2-1.9-.4-2.2-.5-.3-.1-.7-.3-1.4-.7-1.2-.7-1.4-1.9-1.4-3.9v-28.2c0-1.9.4-3.2 1.2-3.9.6-.5 2-.9 4.3-1.3V496h-18v1.4c.2 0 .3.1.5.1 1.2.2 1.9.4 2.2.5.3.1.7.3 1.4.7 1.2.8 1.4 1.9 1.4 4v28.2c0 1.9-.4 3.2-1.2 3.9-.6.5-2 .9-4.3 1.3v1.4h18zm-53.2-39.2c7 0 10.5 3.2 10.5 9.6 0 2.9-.8 5.1-2.5 6.7-1.7 1.6-4.6 2.4-8.7 2.4h-4.3v-15.6c0-1.1.4-1.8 1-2.3.7-.5 2-.8 4-.8m11.2 25.4c-1.7-2.8-3.8-4.5-6.1-4.9 8.5-1.3 12.8-5.1 12.8-11.4 0-7.6-6.1-11.5-18.3-11.5h-17.1v1.4c.2 0 .3.1.5.1 1.2.2 1.9.4 2.2.5.3.1.7.3 1.4.7 1.2.8 1.4 1.9 1.4 4v28.2c0 1.9-.4 3.2-1.2 3.9-.6.5-2 .9-4.3 1.3v1.4h18V536c-.2 0-.3-.1-.5-.1-1.2-.2-1.9-.4-2.2-.5-.3-.1-.7-.3-1.4-.7-1.2-.7-1.4-1.9-1.4-3.9v-11.6c2.1.1 3.7.5 5 1.2 1.3.7 2.4 2 3.6 3.9l4.7 7.5c1.4 2.4 3 4.1 4.7 5.1 1.6 1 3.8 1.5 6.3 1.5 1.8 0 3.3-.4 4.6-1.1v-1.5c-2.8.9-5.8-1.2-8.9-6.1l-3.8-6.1zm-62 11.4c-2.7 0-4.5-.4-5.6-1.2-1-.8-1.5-2.1-1.5-3.8v-13.2h4.6c4.8 0 8.2 1 10.3 2.9 2.1 1.9 3.1 4.2 3.1 7 0 5.5-3.7 8.3-10.9 8.3m8.5-28.7c0 2.6-.7 4.7-2.2 6.1-1.5 1.4-4 2.2-7.6 2.2H249v-13.2c0-1.1.4-2 1.1-2.4.7-.5 2.1-.8 4.2-.8 6.9 0 10.3 2.7 10.3 8.1m-1.7 9.3c5.9-1.8 8.8-5.1 8.8-10 0-3.2-1.5-5.7-4.4-7.3-3-1.6-7-2.4-12.1-2.4h-18.7v1.4c.2 0 .3.1.5.1 1.2.2 1.9.4 2.2.5.3.1.7.3 1.4.7 1.2.8 1.4 1.9 1.4 4v28.2c0 1.9-.4 3.2-1.2 3.9-.6.5-2 .9-4.3 1.3v1.4h18.7c6.1 0 10.9-.9 14.3-2.8 3.4-1.9 5.1-4.7 5.1-8.4-.1-5.4-4-9-11.7-10.6m-47.8-13.1c-.1-1.8.3-3.2 1.1-3.9.6-.5 2-.9 4.3-1.3v-1.4h-13.2c-.1.5-.7 2.2-1.8 5.1l-10.4 26.8-11.5-26.8c-1.3-2.8-2-4.5-2.1-5.1h-12.2v1.4c.2 0 .4.1.7.1 1 .2 1.7.3 2.2.5.4.1.9.4 1.4.7 1.1.7 1.4 1.9 1.3 3.9l-1.3 28.2c-.1 1.8-.5 3.1-1.4 3.8-.5.5-2 1-4.3 1.4v1.4h14.2V536c-.2 0-.4-.1-.7-.1-1.2-.2-2-.4-2.3-.5-.4-.1-.9-.3-1.5-.7-1.3-.7-1.5-1.9-1.4-3.9l1.3-26.8 14.5 33.5h2l14.3-36.2 1.2 29.5c.1 1.9-.3 3.2-1.2 3.9-.6.5-2 .9-4.3 1.3v1.4h18V536c-1.2-.2-2-.4-2.4-.5-.4-.1-.9-.3-1.5-.7-1.3-.7-1.5-1.9-1.6-4l-1.4-28.3zm-85.4 1.9 7.7 17.8h-15.1l7.4-17.8zm3.8-9h-2.6l-15.6 36.9c-.4 1-.9 1.7-1.4 2.2-.5.5-1 .8-1.4.9-.4.2-1.4.4-2.8.6v1.4H122V536c-.2 0-.6-.1-1.1-.2-1.1-.2-1.2-.3-2-.6s-.8-.5-1.1-1c-.3-.5-.2-1.1.2-1.9l3.2-7.8h16.9l3.4 7.7c.6 1.3.4 2-.1 2.5-.3.3-1.2.6-1.6.7-.4.1-2 .4-2.3.5v1.4h17.3V536c-1.8-.4-3.1-.7-3.6-1.1-.6-.4-1.2-1.3-1.8-2.7l-15.9-36.8zm-52 42.8c3.3 0 6.3-.5 9-1.5 2.6-1 4.7-2.3 6.1-3.9l-1.3-1.4c-2.2 2.4-5.7 3.5-10.5 3.5-5.1 0-9.3-1.9-12.6-5.7-3.4-3.8-5.1-8.7-5.1-14.8 0-5.4 1.3-9.7 3.8-12.7 2.5-3.1 6-4.6 10.4-4.6 6.5 0 10.5 3.2 11.9 9.6h2.4c-.2-2-.3-4.9-.5-8.9-3.4-2-7.7-3-12.8-3-6.9 0-12.4 2.1-16.6 6.2-4.2 4.1-6.3 9.3-6.3 15.6 0 6.3 2.1 11.5 6.2 15.6 4.1 4 9.4 6 15.9 6M401.2 279.6c16 17.9 32.8 40 50.4 56.4.5.5 1 .9 1.5 1.3H484c1.3-1.2 1.3-3.2.3-5.8-2.9-7.8-7-8.7-14.5-9.1-9.5-.6-15.7-10.2-19.4-17.4-8.5-16.4-13.5-34-18.2-51.7-.7-2.5-3-8-6.2-10.5-7 13.8-16.1 18.7-28.9 26.2-3.4 1.9 2 8.2 4.1 10.6m20.1-183.5c-.2.4 2 4.5 1.4 6.5 5.5 7.9 11.7 2 11.7 2s9.1 2.7 5.8-3.9c-4.7 5.1-18.7-5-18.9-4.6m8.5 21.3c-14.6 9.8-14.8 15.7-24.7 10 7.8 14.4 22.6-.3 29.3-4.3 19.5-11 25.7.5 25.6-.8-.1-1.2-15.6-14.6-30.2-4.9m-24.1-8.1c3.3-20.6.9-30.3 12.5-32.6-16.8-7.6-19 18.9-20.9 28-5.9 25.5-20.5 18.8-19.5 19.9 1 1 24.6 5.3 27.9-15.3m68.9 32.4c-16.8-.6-17.2-7.5-27.6-6-17.6 2.9-10.9 10.4-25 13.5 14.8 4.4 16.6 8.8 28.3 22.4.8.6 2.8 3.7-4.4 9.4 7.2-.3 14.6-11.5 14.2-13.3-1.1-.7-2.2-1.4-3.2-2.2 1-2.6 2.1-6.3.9-7.7-1.3 3.2-2.9 4.5-4.1 5-7-6.4-12.6-14.5-15.6-14.1 10.1-10.5 17.3-4.9 19.1-4.2.2.1.5.2.7.3.1 1.5-.2 3.6-2 6.5 1.9.3 4.5-3 6.1-5.6 1.6.1 3.3-.1 4.8-.5 0 1.3-.5 3.5-2.6 6.9 2.5.4 6.4-6.2 7.6-8.5 2.5-.9 3.7-1.8 2.8-1.9M202.8 291.9c7.6 7.8 15.5 17.1 19.6 27 3.5 8.4 8.9 14.8 14.7 18.4h31.6c1.3-1.2 1.3-3.2.3-5.8-2.9-7.8-7-8.7-14.5-9.1-2.4-.2-4.2-.9-5.6-2-.9-.8-1.8-1.8-2.5-2.8-1.2-1.6-2.2-3.6-3.5-5.6-.3-.5-.6-1.1-.9-1.6-2.3-4-3.8-6-6.3-9.8-12.6-17.9 5.9-22.7 9.9-24 3.9-1.3 14.1-3.7 19.8-11.6 2.1-2.9 3.8-5.3-.4-7.3-5.3-2.6-5-6.7-9.3-10.6-4.9-4.5-9-3.7-14.1.6-12.6 10.6-25 21.5-37.1 32.7-4.2 3.8-6.1 7-1.7 11.5m84.4-195.8c4.4-25.4-8.9-40.4-22.9-45.9-3.7-1.5-7.7-2-11.6-2H252.4c-11.3.2-21.8 5.7-24.3 6.6-2.5.9-6.8 1.9-11.6 2.3-21.9 1.9-29.6-15.3-29.6-13.2 0 23 29.3 23.2 27.4 27.8-2 4.5-23.3-1.4-23.3-1.4s4.6 16 25.7 12c20.9-3.9 20.3-15.4 34.9-18 2.5-.2 4.8 0 6.8.8 10.7 4.3 15.5 14.6 13.1 28.3-1.6 9.2-7.8 19.6-42.1 18.7-19.3-.5-37-7.4-49.9-12.5-5.3-2.1-9.9-3.9-14-5-6.1-1.9-39.7-7.9-58.9 6.7-6.2 4.7-14.4 13.7-13.6 29.6.6 12.7 7.6 29.7 33.2 38.2 14.3 4.8 30.7 5.6 42.3 6-12.3 15.2-32.8 66.1-42.5 71.3-2.5 1.4-6.5 3-7.6 6-7.7 19.6-18.6 38.5-27.6 57.4-1.3 2.8-.3 6.7.4 8.2 5.1 10.7 11.1 16.1 14.4 19.4H139c1.3-1.2 1.3-3.2.3-5.8-2.9-7.8-4.7-8.4-12.3-8.9-1.8 0-4.3-.2-5.7-.4-4.4-.3-7-12.6-4.4-15.7 9.9-15.4 24.6-24.4 49.1-23.5 7 0 14.7 1 21.5-3.2 13.1-8.1 25.6-17.1 36.4-28.3 4.5-4.6 9.1-9.3 14.1-13.2 9.7-7.5 15.1-6.9 24.1 1.4 16.8 15.5 41.3 18.5 60.7 6.8 5.1-3 7.7-2.1 10.3 2.8 3.1 5.9 6.6 11.9 5.4 18.4-1.3 7.4-2.1 14.1-4 21.3-1.3 4.5-2.4 9.8-3.1 14.3-1.9 11.9 2.3 20.1 7.1 28 1.6 2.7 3.4 4.7 5.2 6.1h32c1.3-1.2 1.3-3.2.3-5.8-.5-1.4-1.1-2.6-1.8-3.6-.4-.8-1-1.5-1.8-2.2l-1.5-1.2c-.1 0-.2-.1-.2-.1-.1-.1-.3-.2-.4-.2-.6-.4-1.3-.7-2.1-1.1-1.6-.8-5.9-1.2-7.6-1.7-5.8-1-9.8-11.5-4-20.4 4.5-7 7.5-14.8 14-19.9 12.3-9.7 22.8-20.5 26.9-36.9.8 2.2.7 4 .8 5.8.1 2-1.6 4.7.3 6 2.3 1.6 3.6-.7 5.9-2.3 11.4-8.6 18.4-18.6 20.7-33.4 2.3-10.2-4.8-18.2-4.9-27 14.6 5.5 19.5.1 19.8 10.9 8-14.3-11.8-17.9-18.6-21.1-19.2-9.6-13.7-32.4-14.7-31.7-.8.6-7.3 21.7 2 34.2 2.9 26.1-9.2 37.3-25.7 35.5-.5-11.9-3.3-23.1-6.6-34.2-.9-2.9-.8-7.6-3.7-8.1-3.5-.7-3.1 4.6-5.3 6.6-.4.3-9.4-16.8-19.7-19.7 8.3 16.9 9.9 35.2 11.7 54.3 5-3.2 5.2-9.3 10-12.2.6 12.3.9 23.9-.7 35.5-.3 2.1-1.2 4.3.1 6.2 1.9 2.6 3.9-1.9 6.5.2-5.6 13.6-14.4 24.6-25 34.2 5-14.4 2.4-27.6-5.8-39.3-9.6-13.6-20-26.6-30.1-39.8-.3-.4-1.2-.4-2.4-.6.1 6.7 2.4 12.3 5 17.6 2.5 5 .6 7.2-3.7 8.8-5.9 2.3-12 2.4-18 1.5-19.6-2.9-38.3-8-50.3-26.7-1.3-2.1-1.7-6.1-4.4-5.8-3 .3-2.9 4.5-3.9 7-8.1 20.8-23 39.8-38.8 48.8 5-8.2 9.8-16.2 11.3-25.8-3.1-.3-3.8 1.7-4.7 3.1-14 21.2-33.3 32.8-57.8 34.6-3.9.3-6.5 2.6-9.1 5.1-9.5 9.4-15.2.8-7.9-12.4.8-1.5 2.4-2.8 4-3.5 9.6-4.8 11.9-13.4 18.4-21.9 8.3-11 13.1-24.5 20.1-36.4 6.7-11.6 18-24.7 29.7-29.9 19.3-8.6 38.7-11.1 58.9-2.9 12.7 5.2 39.9 6.9 44.3-3-18.4 2-33.5-4-52.7-11.6-2.6-1-5.3-1.9-8-2.3-16-2-33.4 1.3-44.6 5.3s-23.1 6-29.8 5.8c-31.4-1-60-5.2-61.1-29.1-.3-7.4 2.4-12.5 7.1-16.1 12.5-9.5 37-6.7 44.5-4.1 7.4 2.6 7.9 2.7 12.9 4.7 14 5.5 33.2 13 55.3 13.6 13.1-.3 52.6.6 58.4-32.7m52.4 95.7c-1.2-5.7-17.1-41.6 20-52.6 9.9-3.2 12.8-11.7 13.5-21.4-12.1 23.3-70.5 13.1-33.5 74m-17-79.2c-24.5 26.4-27.2 42.6-44.5 27.1l-2.2-2.3c14.2 27.6 45.1-2.6 56.4-13.8 32.8-31 47.2-14.2 46.9-16.8.5-8-32.1-20.6-56.6 5.8M361.1 68c-18.6 3.7-22.7 15.3-29.9 2 1.4 23.3 19.7 11.7 28.1 10.6 23.9-2.4 27.7 17.6 28.1 15.9.4-1.6-7.7-32.2-26.3-28.5m63.1 6c1.3-1.1 7.7-23.7-14.1-25-21.8-1.2-32.3 5.6-33.8-5.1-9.5 16.5 18.6 12.5 28.2 13.4 26.9 3.4 18.5 17.8 19.7 16.7m22.8 31.1c13.8 3.7 16.6 3.9 25.6 8.8-5.9-6.9-8.4-11.5-12.6-12.7-.9-15.3-15.4-30.9-29.4-25.6 4.8 2.7 16 2 19.6 14.8.7 3.1 3.1 13.3 3.1 13.3s-5.7.7-6.3 1.4m37.9 20.7c-6.5 3.5-16.6-1.3-18.4-3.4 3.7 6 11 8.2 11.3 17.2 1.3.3.8-7.1 2-7.7 1.9-.1 3.9-4 5.1-6.1" class="st1"/></svg>
