<svg xmlns="http://www.w3.org/2000/svg" viewBox="0 0 333.47 147.31">
  <defs><style>.cls-1{fill:"currentColor"}</style></defs><g id="Layer_2" data-name="Layer 2"><g id="Layer_1-2" data-name="Layer 1"><path d="M24.49 88.45c2.51-19.85 12.32-34.57 29.93-45 .22-6 .72-10.77 1.11-14.48.42-3.94.81-7.68.16-8.4-.2-.22-1.07-.23-2.28 0a73.31 73.31 0 0 0-15 4.65c-.42.19-.83.37-1.23.57l-.94.46a61.11 61.11 0 0 0-8.56 5.17c-.56.4-1.11.81-1.66 1.22s-1.09.85-1.62 1.28c-.13.09-.23.2-.35.29A71 71 0 0 0 3.83 62.52 70.62 70.62 0 0 0 0 86.19c0 31.1 21.4 46.29 44.86 51.3-9.91-7.82-18.41-19.43-20-35-.21-2-.32-4-.37-5.94a33.59 33.59 0 0 1 0-8.1ZM101.6 32.47c.51.11 1 .22 1.52.35l.35.08h.06c.84.22 1.64.46 2.39.73a41.53 41.53 0 0 1 14.43 8.26c-5.6-9.27-18.2-21.61-45.73-22.86.3 4.35.25 9.28.07 14.8a52.52 52.52 0 0 1 16.13-2.64 48.36 48.36 0 0 1 10.78 1.28ZM146 131.88c-6.42-2-15.3-3.55-27.49-3.55a210 210 0 0 0-31.71 2.72c-2 .32-4.17.64-6.39.91a44.52 44.52 0 0 0 16.85 1.83c1.41-.11 2.8-.22 4.2-.29a212.58 212.58 0 0 1 30.3-2.52 99.74 99.74 0 0 1 14.24.9Z" class="cls-1"/><path d="M128.74 69.24a.75.75 0 0 1 0-.21 28.81 28.81 0 0 0-3.83-16.1.69.69 0 0 1-.17-.22 35.32 35.32 0 0 0-9.82-10.48 45.18 45.18 0 0 0-8.88-4.74c-.35-.13-.71-.27-1.09-.39-.77-.26-1.55-.52-2.38-.73l-.37-.11-1.36-.26a46.87 46.87 0 0 0-9.49-1A56 56 0 0 0 76 37.19l-1.43.46v.87c-.09 2.35-.18 7.33-.25 9.78a41.48 41.48 0 0 1 18.78-4.66c1.32 0 2.68.06 4 .19 16.42 1.59 25.07 10.68 25.13 25.74C122.32 83 112 91.33 99.68 92c-11 .57-16.15-1.44-20.49-4.64.44 3.3 3.26 6.76 6.3 9a19.23 19.23 0 0 0 2.69 1.19 56.17 56.17 0 0 0 13 1.55c15.26-.83 27.56-14.21 27.56-29.86Z" class="cls-1"/><path d="M113.81 136.68q-5.75 0-12 .37l-4.29.28a47.76 47.76 0 0 1-13.57-.8 46 46 0 0 1-11-3.77 48.24 48.24 0 0 1-5.63-3.28 54.12 54.12 0 0 1-9.87-8.56c-13.71-15.1-15.22-37.74-3.74-56.3.36-.59.76-1.17 1.15-1.74-.44-5.69-.57-10.73-.53-15.17l-.28.17c-12.66 8.5-26.63 23.37-26 48.95.06 1.74.14 3.52.33 5.33A43.56 43.56 0 0 0 33 117.6c4.76 9.39 12.44 16.47 20.2 21.23a63.17 63.17 0 0 0 8 4.12A40.7 40.7 0 0 0 72 146c2.51.25 5.31.4 8.35.4 9.39 0 19.34-1.27 26.61-2.21 2.82-.35 5.24-.67 7.11-.83 6.14-.56 12-.82 17.43-.82 12.18 0 20.81 1.38 26.79 3-7.67-4.31-21.29-8.86-44.48-8.86Z" class="cls-1"/><path d="M72 79.35A188.21 188.21 0 0 1 70.58 52c0-1.43 0-2.84.09-4.21.07-3 .28-9.2.3-9.38 0-1.14.07-2.25.1-3.35a150.38 150.38 0 0 0 0-16.11 53.75 53.75 0 0 0-.39-3.58A24.41 24.41 0 0 0 69 9.2C66.19 3.1 61.6 0 55.32 0 40.21 0 16.59 19.37 6.93 48a71.34 71.34 0 0 1 17.9-18.9l1.17-.96a8.54 8.54 0 0 0 .78-.56 59.44 59.44 0 0 1 8.24-4.75c.34-.18.67-.35 1-.52l.82-.35a69.67 69.67 0 0 1 15.32-4.87L53 17a12.84 12.84 0 0 1 1.82-.17 4.56 4.56 0 0 1 3.57 1.36 4.2 4.2 0 0 1 .79 1.42c.76 2 .46 5-.05 9.76-.34 3.18-.76 7.13-1 12C58 42.64 58 44 58 45.42h.16a1.18 1.18 0 0 1-.16.08c-.09 3.84-.06 8.16.21 13 .08 1.72.21 3.49.35 5.36.32 3.53.71 7.31 1.29 11.37 1.71 12.42 10.62 18.43 19.83 21.3C73.62 91 72.56 83.21 72 79.35ZM199.91 67.79c-3.59 5.43-10.55 10.09-20.25 10.09-16.35 0-28.2-12-28.2-28.43S163.54 21 179.66 21c8 0 15.51 3.29 19.25 8.56L194.33 33c-2.29-3.51-7.72-7.1-14.59-7.1-14 0-22.47 11-22.47 23.6s8.56 23.61 22.47 23.61c6.18 0 12.14-2.44 15.89-8ZM250.18 67.79c-3.59 5.43-10.54 10.09-20.25 10.09-16.35 0-28.19-12-28.19-28.43S213.81 21 229.93 21c7.95 0 15.52 3.29 19.26 8.56L244.6 33c-2.29-3.51-7.71-7.1-14.59-7.1-14 0-22.46 11-22.46 23.6s8.56 23.56 22.45 23.56c6.19 0 12.15-2.44 15.9-8ZM261.34 71.61h29v4.89h-34.5V22.41h33.54v4.88h-28v18.65h26.21v4.81h-26.25ZM297.25 22.41h16.12c8.26 0 17.42 3 17.42 13.83a11.83 11.83 0 0 1-9.55 11.61V48c7 .77 12.23 5.66 12.23 13.53 0 9-7.72 15-20.17 15h-16.05Zm5.5 23.68h11.08c5.27 0 11.46-2.29 11.46-9.47 0-6.88-5.88-9.48-13-9.48h-9.55Zm0 25.68H313c7.95 0 14.9-3 14.9-10.55 0-7.1-5.12-10.62-13.91-10.62h-11.24ZM208.53 137.3l.07-.08a.94.94 0 0 1 .2-.34 1.81 1.81 0 0 1 .43-.36l.58-.38a1 1 0 0 0 .25-.22.81.81 0 0 0 .14-.19l.3-.24.41-.39a.75.75 0 0 0 .17-.18 2.27 2.27 0 0 0 .18-.28l.33-.26c.12-.1.27-.24.43-.4s.4-.43.64-.67.5-.5.79-.76a2 2 0 0 1 .28-.11.73.73 0 0 1 .25 0 1.07 1.07 0 0 1 .76.24.92.92 0 0 1 .25.7 2.44 2.44 0 0 1 0 .37c0 .17 0 .39-.08.65-.11.76-.18 1.22-.22 1.38l-.48 1.56a4.61 4.61 0 0 0-.18.53c-.07.21-.14.46-.23.76 0 0 .05.06.11.09a.68.68 0 0 0 .28-.15 6.47 6.47 0 0 0 .54-.46l.62-.55c.15-.12.24-.2.28-.22l.25.56c.07.16.14.32.19.47a1.09 1.09 0 0 0-.26.21 1.26 1.26 0 0 0-.22.24l-.55.36c-.21.14-.43.29-.68.44a5.36 5.36 0 0 1-.46.41l-.65.55-.21.05a1.34 1.34 0 0 1-.3.32.93.93 0 0 1-.25.16l-.36.13-.38.13a.23.23 0 0 1-.18-.15.51.51 0 0 1-.05-.29 3.19 3.19 0 0 1-.27-.7 3.38 3.38 0 0 1-.1-.88 1.28 1.28 0 0 1 0-.19 1.41 1.41 0 0 0 0-.18 1.93 1.93 0 0 1-.07-.35.68.68 0 0 1 .25-.55.88.88 0 0 1 .59-.22.24.24 0 0 1 .24.17c0 .12.1.17.15.17s.11-.1.17-.3a8.46 8.46 0 0 0 .16-.91c.05-.35.09-.65.1-.9s0-.45 0-.59a.36.36 0 0 0-.06-.22.29.29 0 0 0-.21-.07 3.3 3.3 0 0 0-.94.68c-.54.45-1.28 1.12-2.23 2a1.3 1.3 0 0 1-.13.19l-.2.28a2.25 2.25 0 0 0-.16-.41c-.06-.2-.16-.41-.28-.65Z" class="cls-1"/><path d="M215.12 137.3v-.09l.18-.23.25-.31a13.32 13.32 0 0 0 1.56-1.78 20.11 20.11 0 0 0 1.5-2.36l.21-.33.24-.51a.15.15 0 0 0 0-.1.16.16 0 0 0-.11 0 .79.79 0 0 0-.22 0h-2.23a1 1 0 0 0-.21-.09l-.18-.09a.53.53 0 0 1-.21-.12.21.21 0 0 1-.07-.17A3.12 3.12 0 0 1 216 130a.51.51 0 0 1 .47-.39 5.54 5.54 0 0 1 .59 0 3.13 3.13 0 0 1 .49.08l.31-.07h.52a1.22 1.22 0 0 1 .33.06 1.5 1.5 0 0 1 .29-.06l.31-.07.37.12c.26 0 .54-.4.84-1.11s.61-1.06.95-1.06a.54.54 0 0 1 .42.17.8.8 0 0 1 .14.5 2.16 2.16 0 0 1-.15.68 2.73 2.73 0 0 0-.17.63.21.21 0 0 0 .06.1.57.57 0 0 0 .11.12.24.24 0 0 1 .1.15 1 1 0 0 1 0 .27 6.66 6.66 0 0 1-.07 1c0 .24-.1.37-.19.37l-.77.16c0 .08 0 .17-.05.28s0 .23-.09.37c-.13.38-.27.86-.43 1.43s-.34 1.26-.53 2c-.12.63-.21 1.14-.28 1.53a6.55 6.55 0 0 0-.09.79.5.5 0 0 0 0 .27.2.2 0 0 0 .17.09 1.94 1.94 0 0 0 .49-.32c.28-.22.68-.54 1.18-1l.44 1a3.31 3.31 0 0 1-.32.3c-.13.11-.3.23-.48.36l-.28.27c-.12.1-.24.22-.38.36l-.4.45-.39.44a2.31 2.31 0 0 1-.53.42 1.09 1.09 0 0 1-.49.13.93.93 0 0 1-.74-.29 1.41 1.41 0 0 1-.24-.89c0-.44 0-.82.05-1.14a4.12 4.12 0 0 1 .14-.77.93.93 0 0 0 .07-.15 1.38 1.38 0 0 1 0-.31c0-.13 0-.28.07-.45l.15-.88.26-.57s0-.07-.09-.1l-.11.07a3.46 3.46 0 0 1-.44.56c-.18.2-.4.41-.64.63l-1.17 1.11-.13.17c-.06.08-.13.17-.2.28 0-.09-.09-.2-.14-.34s-.12-.3-.18-.48a.61.61 0 0 0-.05-.12.36.36 0 0 0 .02.15Z" class="cls-1"/><path d="m220.89 137.3.08-.08a.2.2 0 0 0 0-.11 4.58 4.58 0 0 0 .43-.44l.6-.67.52-.68a8.56 8.56 0 0 1 .57-.68l.49-.7c.16-.24.33-.48.51-.71a6.44 6.44 0 0 1 .7-.31 1.17 1.17 0 0 1 .33-.09.32.32 0 0 1 .26.11.46.46 0 0 1 .09.31.89.89 0 0 1 0 .19c0 .08 0 .17-.08.27s-.11.3-.18.46-.13.53-.21.79-.17.52-.24.78-.13.62-.17.89a4 4 0 0 0-.07.74 4.25 4.25 0 0 0 .07.93c0 .21.09.3.17.27l.28-.16.4-.22c.13-.14.28-.32.45-.53s.37-.46.61-.74l.42-.62.19-.21.19-.25a2.7 2.7 0 0 1 .48-.81.86.86 0 0 1 .59-.26 1.23 1.23 0 0 1 .47.07.4.4 0 0 1 .24.22 1.41 1.41 0 0 1 .06.27v.51a2.29 2.29 0 0 0 .05.36 1.43 1.43 0 0 1 0 .35 1 1 0 0 0 .15.62.52.52 0 0 0 .45.21h.21l.25-.08.45 1c-.45.27-.82.48-1.11.62a1.68 1.68 0 0 1-.65.21 1.39 1.39 0 0 1-.92-.3 1.71 1.71 0 0 1-.53-.86.72.72 0 0 0-.09-.27 1 1 0 0 0-.19-.27c-.07.07-.14.16-.23.27s-.18.21-.28.31l-.6.73-.62.7a2.79 2.79 0 0 1-.8.67 1.58 1.58 0 0 1-.74.21 1.13 1.13 0 0 1-.84-.31 1.57 1.57 0 0 1-.4-.92c-.07-.39-.12-.69-.14-.91a1.27 1.27 0 0 1 0-.39c0-.22 0-.39-.06-.5s-.07-.17-.12-.17h-.07l-.64.66a1.44 1.44 0 0 1-.11.2l-.22.28a3.09 3.09 0 0 0-.15-.41Z" class="cls-1"/><path d="m229.8 137.3.07-.08v-.11a3.81 3.81 0 0 1 .35-.39l.22-.22a.93.93 0 0 1 .25-.15l.52-.22.15-.09a2.39 2.39 0 0 1 .28-.36q.2-.24.48-.54a.86.86 0 0 1 .17-.15 2 2 0 0 0 .24-.2q.27-.25.54-.54c.18-.18.35-.36.5-.54l.42-.37c.21-.18.5-.42.86-.74l.28-.16.53-.25a.47.47 0 0 0 .22-.22.88.88 0 0 0 .07-.39 2 2 0 0 0 .17-.36 3.07 3.07 0 0 0 .17-.49l.17-.56a2.49 2.49 0 0 1 .1-.3c.13-.34.3-.74.52-1.19s.47-1 .77-1.56c.15-.31.33-.65.53-1a1.46 1.46 0 0 1 .43-.43 1 1 0 0 1 .49-.14.33.33 0 0 1 .3.16.85.85 0 0 1 .1.46 5.65 5.65 0 0 1-.07.93 2.89 2.89 0 0 1-.25.82.89.89 0 0 0 0 .23c0 .11 0 .24-.05.39a.84.84 0 0 1-.08.3 1 1 0 0 1-.19.27.68.68 0 0 1 0 .19c0 .07 0 .15-.05.25l-.15.2a.43.43 0 0 0 0 .17v.19a.87.87 0 0 1-.07.27c-.06.13-.14.31-.24.55l-.29.61c-.07.15-.11.25-.12.28a1.18 1.18 0 0 0-.11.18l-.18.29v.24l-.73 2.59v.73a2 2 0 0 0 .06.49 3.55 3.55 0 0 0 .19.47c.09.18.2.38.33.59a.87.87 0 0 0 .29.31.8.8 0 0 0 .36.09.91.91 0 0 0 .44-.12 1.7 1.7 0 0 0 .44-.36l.26.55c.07.17.14.33.19.48a2 2 0 0 0-.24.23c-.12.14-.29.32-.49.56a1 1 0 0 1-.44.31 1.81 1.81 0 0 1-.65.1 2.09 2.09 0 0 1-1.37-.44 2.41 2.41 0 0 1-.75-1.32l-.08-.31c0-.09 0-.18-.06-.25a2 2 0 0 0-.27-.46l-.13.17a1.52 1.52 0 0 0-.3.25 4.34 4.34 0 0 0-.33.43 1.23 1.23 0 0 1-.12.28c-.06.11-.15.24-.25.39l-.73.84-.74.82a4.46 4.46 0 0 1-.94.83 1.41 1.41 0 0 1-.74.26 1.14 1.14 0 0 1-.84-.26 1.12 1.12 0 0 1-.27-.83 2.08 2.08 0 0 1 .2-.72 2.37 2.37 0 0 0 .19-.7l-.07-.18Zm5.66-3.22a.45.45 0 0 0 0-.17l-.42.39c-.16.15-.36.32-.59.5a3.32 3.32 0 0 1-.36.57 12.36 12.36 0 0 1-.78 1 4.11 4.11 0 0 0-.4.58l-.61 1c-.08.15-.16.35-.25.57a.2.2 0 0 0 .09.15 2.32 2.32 0 0 0 .82-.59 14.71 14.71 0 0 0 1.17-1.36 12 12 0 0 0 1-1.57 2.38 2.38 0 0 0 .33-1.07Z" class="cls-1"/><path d="M238.75 137.3a6.43 6.43 0 0 1 .79-.66 7 7 0 0 0 .8-.63c.11-.13.26-.29.44-.48l.64-.69a2.23 2.23 0 0 1 .44-.31.86.86 0 0 1 .43-.11.6.6 0 0 1 .42.13.55.55 0 0 1 .16.43 5.34 5.34 0 0 1-.34 1.42 4.85 4.85 0 0 0-.34 1.48.22.22 0 0 0 .05.16.17.17 0 0 0 .12.05l.51-.34c.19-.14.4-.31.64-.51s.44-.42.73-.71l1-1c.15-.12.32-.28.51-.46l.65-.68a1 1 0 0 1 .41-.32 1.73 1.73 0 0 1 .65-.11.58.58 0 0 1 .38.1.32.32 0 0 1 .13.28.81.81 0 0 1 0 .16v.14c-.05.22-.13.5-.24.83s-.23.71-.38 1.15c-.13.28-.26.61-.4 1s-.29.81-.44 1.27l.07.1a3.45 3.45 0 0 0 .71-.53c.31-.28.7-.66 1.17-1.13l.45 1-.22.22a2.68 2.68 0 0 1-.34.28 17.26 17.26 0 0 0-2.07 1.69 9.38 9.38 0 0 0-1.37 1.66c-.5.83-.92 1.5-1.25 2s-.58.88-.73 1.09a6.92 6.92 0 0 1-1.47 1.52 2.36 2.36 0 0 1-1.36.5.55.55 0 0 1-.36-.1.4.4 0 0 1-.11-.32.79.79 0 0 1 .05-.28 1.66 1.66 0 0 1 .2-.36 6.05 6.05 0 0 0 .4-.63l.33-.3a.8.8 0 0 0 .05-.2.79.79 0 0 1 .13-.13l.19-.18a3.93 3.93 0 0 1 .43-.67c.22-.31.55-.71 1-1.2s.59-.68.84-1l.66-.72c0-.06.06-.13.09-.21l.09-.25c.09-.2.2-.43.32-.71s.25-.6.42-1a5.84 5.84 0 0 0 .19-.75c.05-.28.1-.58.15-.92a.18.18 0 0 1 0-.11 1.49 1.49 0 0 0 0-.21 2.51 2.51 0 0 0-.45.3l-.52.47a4.6 4.6 0 0 1-.76.81 3.2 3.2 0 0 1-.75.49 1.63 1.63 0 0 1-1.53.94.77.77 0 0 1-.56-.17.67.67 0 0 1-.19-.53 1 1 0 0 1 0-.17v-.24c0-.09-.06-.18-.11-.31a4.16 4.16 0 0 0 .08-.43 2.05 2.05 0 0 0 0-.51c0-.11-.09-.17-.17-.17l-.35.27-.54.44c0-.09-.08-.21-.14-.35a4.87 4.87 0 0 1-.17-.47l-.06-.12a.24.24 0 0 0-.2.01ZM253.32 137.3l.07-.08v-.11a7.42 7.42 0 0 1 1.07-1.09 7.24 7.24 0 0 0 1.06-1.09.72.72 0 0 1 .26-.26.59.59 0 0 1 .29-.07 1.09 1.09 0 0 1 .66.19 1 1 0 0 1 .36.59c.06.24.11.47.15.71s.08.47.11.71a5.28 5.28 0 0 1 .19.68 2.85 2.85 0 0 0 .17.53.37.37 0 0 0 .17.16.61.61 0 0 0 .28.05 1.23 1.23 0 0 0 .42-.07 1.37 1.37 0 0 0 .44-.26l.35-.29.37-.3.45 1a4.52 4.52 0 0 1-.48.41l-.71.54a6.43 6.43 0 0 1-.79.5 1.21 1.21 0 0 1-.5.16 2.45 2.45 0 0 1-1.33-.23 3.3 3.3 0 0 1-.67-1.32 1.52 1.52 0 0 0-.14-.21l-.2-.3a2.77 2.77 0 0 0-.24-.39c-.06-.08-.12-.12-.16-.12a.9.9 0 0 0-.49.24 6.74 6.74 0 0 0-.74.72c0-.09-.09-.21-.14-.35a4.7 4.7 0 0 1-.18-.47.61.61 0 0 0 0-.12.24.24 0 0 0-.1-.06Zm4.71-8.88a.61.61 0 0 1 .41.11.41.41 0 0 1 .13.32c-.05.21-.09.39-.12.53s-.14.5-.19.67l-.13.37a1.39 1.39 0 0 1-.28.43 2 2 0 0 1-.42.34 3.74 3.74 0 0 1-.43.25.5.5 0 0 1-.25.06h-.71a.57.57 0 0 1-.23-.3 2 2 0 0 1-.08-.61 1.54 1.54 0 0 1 .41-.85 1.24 1.24 0 0 1 .73-.54q.18-.24.45-.54a.71.71 0 0 1 .29-.13 1.34 1.34 0 0 1 .39-.11Z" class="cls-1"/><path d="m259.3 137.3.12-.18.17-.23c.07-.06.17-.14.29-.26l.41-.39.49-.56.71-.8.45-.49.64-.72a2.29 2.29 0 0 1 .68-.55 1.71 1.71 0 0 1 .77-.18.7.7 0 0 1 .59.25 1.21 1.21 0 0 1 .19.74 4.61 4.61 0 0 1-.19 1c-.12.49-.32 1.14-.59 1.94-.07.15-.14.29-.2.43a2 2 0 0 0-.09.25v.17a.29.29 0 0 0 .08.17.44.44 0 0 0 .11-.09l.12-.13a1.61 1.61 0 0 1 .27-.36c.13-.12.27-.26.45-.41a1.67 1.67 0 0 1 .26-.37 2.47 2.47 0 0 1 .37-.35l.12-.14a1.46 1.46 0 0 1 .17-.22 2.72 2.72 0 0 1 .35-.3 3.82 3.82 0 0 1 .47-.33c.2-.1.39-.19.55-.25a1.22 1.22 0 0 1 .42-.09 1.18 1.18 0 0 1 .62.17 1.35 1.35 0 0 1 .46.53c.15.47.29.9.43 1.3a1.49 1.49 0 0 0 .27.51.45.45 0 0 0 .35.17.75.75 0 0 0 .26-.05.87.87 0 0 0 .22-.17l.45 1-.39.33-.4.33a1.8 1.8 0 0 1-.48.33 1.2 1.2 0 0 1-.45.09 1.1 1.1 0 0 1-.5-.11 1 1 0 0 1-.4-.34 1.61 1.61 0 0 1-.23-.33c-.09-.16-.19-.36-.31-.6a3.68 3.68 0 0 1-.33-.39l-.44-.57h-.1a1.6 1.6 0 0 0-.42.2 3.2 3.2 0 0 0-.44.35 4 4 0 0 1-.74.56.72.72 0 0 0-.3.26 3.89 3.89 0 0 1-.54.7c-.25.29-.57.62-.95 1l-.3.29-.29.28a.87.87 0 0 1-.33.17 1.7 1.7 0 0 1-.41 0c-.3 0-.46-.1-.49-.31s0-.41-.07-.62.24-.71.38-1.19.31-1 .49-1.65a.34.34 0 0 1 0-.15 1.91 1.91 0 0 0 .09-.26 1 1 0 0 0 .08-.25.62.62 0 0 0 0-.18.14.14 0 0 0-.05-.13.3.3 0 0 0-.18 0 .53.53 0 0 0-.3.13 3.33 3.33 0 0 0-.45.43l-.5.53a1.1 1.1 0 0 1-.26.22c-.07.06-.16.13-.26.23l-.27.34s0 .07-.07.13a.73.73 0 0 1-.14.2 3.35 3.35 0 0 0-.16-.41c-.11-.17-.21-.38-.33-.62ZM274.9 137.3c.15-.2.35-.43.58-.71s.52-.58.86-.94a1.54 1.54 0 0 0 .09-.24l.17-.35c.4-.6.76-1.17 1.07-1.71a14.17 14.17 0 0 0 .81-1.6c.07-.13.14-.29.22-.48s.18-.41.3-.65a1.89 1.89 0 0 1 .31-.41.43.43 0 0 1 .3-.15.35.35 0 0 1 .33.19 1.31 1.31 0 0 1 .11.6 8.53 8.53 0 0 1-.39 1.45c-.26.83-.65 2-1.16 3.48-.13.36-.28.86-.45 1.51s-.35 1.46-.57 2.43c0 .14-.05.31-.07.49s-.07.41-.12.66c-.13.48-.22.86-.27 1.15a2.69 2.69 0 0 0-.07.55l.05.09a.72.72 0 0 0 .13-.22 2.76 2.76 0 0 0 .12-.51c.05-.21.08-.38.11-.52a1.34 1.34 0 0 0 0-.34c.16-.44.36-1 .58-1.67s.49-1.47.79-2.37a18.659 18.659 0 0 0 .9-1.91 2.57 2.57 0 0 1 .47-.36.76.76 0 0 1 .35-.12 1.12 1.12 0 0 1 .59.17 1.75 1.75 0 0 1 .49.49 3.35 3.35 0 0 1 .21.41l.41.87a2 2 0 0 0 .31.52.48.48 0 0 0 .3.2l.47 1-.29.08a6.17 6.17 0 0 1-.7.15l-.76-.28a1.67 1.67 0 0 1-.68-.55 1.89 1.89 0 0 0-.65-.56 2.09 2.09 0 0 0-.51.67 9.75 9.75 0 0 0-.55 1.28 3.09 3.09 0 0 1-.17.39c-.07.14-.15.3-.22.48s-.1.56-.16.82-.2.51-.32.86-.23.77-.36 1.25a3.87 3.87 0 0 1-.28.74 3.15 3.15 0 0 0-.28.75 3.62 3.62 0 0 1-.09.42c-.05.17-.13.38-.22.61a4.06 4.06 0 0 1-.48.68.58.58 0 0 1-.36.23.54.54 0 0 1-.5-.33 2.08 2.08 0 0 1-.17-1c0-.64 0-1.35.11-2.12s.19-1.61.34-2.49c0-.26.09-.51.14-.78s.11-.53.16-.8a6.12 6.12 0 0 0 .14-.86 4.38 4.38 0 0 0 0-.71 1.13 1.13 0 0 0-.38.28c-.17.17-.4.43-.67.76a2.25 2.25 0 0 0-.16-.41c-.04-.11-.16-.32-.26-.56Z" class="cls-1"/><path d="m282.67 136.8 1-.67.13-.16a2.07 2.07 0 0 0 .18-.27.72.72 0 0 1 .21-.25 1.09 1.09 0 0 1 .3-.18 2.85 2.85 0 0 1 .26-.28l.42-.39.32-.2a3 3 0 0 0 .42-.35 13.09 13.09 0 0 1 1.79-1.45 2.64 2.64 0 0 1 1.3-.48.63.63 0 0 1 .43.12.44.44 0 0 1 .15.35.93.93 0 0 1-.09.42.75.75 0 0 1-.26.3l-.61.45a4.78 4.78 0 0 1-.44.5 4.64 4.64 0 0 1-.61.53c-.07.09-.14.18-.19.26l-.21.2c-.11.1-.25.21-.42.34a3.09 3.09 0 0 1-.49.64c-.25.26-.59.58-1 .94l-.28.37-.53.74.08.1a1.73 1.73 0 0 0 .52-.27 4.94 4.94 0 0 0 .59-.51l.63-.57.34-.28.16-.09.18-.12a4.64 4.64 0 0 1 1-.91 1.54 1.54 0 0 1 .83-.3.4.4 0 0 1 .36.18 1.25 1.25 0 0 1 .15.56v1.08a1 1 0 0 0 .19.65.65.65 0 0 0 .55.29.39.39 0 0 0 .2-.06 1.25 1.25 0 0 0 .19-.15c.06-.06.11-.13.16-.19a1.19 1.19 0 0 1 .15-.18l.13-.08a.91.91 0 0 0 .16-.13c.11.22.19.42.26.59a3.81 3.81 0 0 1 .17.44c-.17.16-.35.32-.51.49a6.17 6.17 0 0 1-.54.48 3 3 0 0 1-.65.39 1.58 1.58 0 0 1-.63.13 1.47 1.47 0 0 1-1.13-.42 2 2 0 0 1-.46-1.26.82.82 0 0 0 0-.21.69.69 0 0 0-.12-.22l-.12.12a1.36 1.36 0 0 0-.16.17c-.1.07-.22.16-.36.28l-.52.4-.66.67c-.18.17-.31.29-.38.37a4.86 4.86 0 0 1-.53.38c-.2.13-.42.26-.67.4l-.4.19a.76.76 0 0 1-.25.08 1.06 1.06 0 0 1-.8-.27 1.14 1.14 0 0 1-.26-.81 1.41 1.41 0 0 1 .13-.58 1.94 1.94 0 0 1 .39-.54 1.15 1.15 0 0 0 0-.24.35.35 0 0 0 0-.12.9.9 0 0 0-.07-.14l-.15-.35-.19-.42a.84.84 0 0 0 .13-.18 2.61 2.61 0 0 0 .13-.32Z" class="cls-1"/><path d="m290.51 137.3.36-.5a10.47 10.47 0 0 0 1.34-1.3 4.87 4.87 0 0 0 .76-1.16l-.11-.54a2.21 2.21 0 0 1 .73-.67 1.89 1.89 0 0 1 .94-.38.94.94 0 0 1 .64.22c.18.15.35.31.52.48l.18.12a2.13 2.13 0 0 1 .67.94 4.08 4.08 0 0 1 .23 1.45 3.78 3.78 0 0 1-.35 1.29 3.54 3.54 0 0 0-.35 1.26.1.1 0 0 0 0 .09.12.12 0 0 0 .1 0 .72.72 0 0 0 .35-.13 3.18 3.18 0 0 0 .44-.36 5.47 5.47 0 0 1 .72-.64 1.89 1.89 0 0 0 .31-.21q.09.22.21.48l.24.55a2.28 2.28 0 0 0-.23.22l-.31.28c-.26.19-.59.41-1 .68s-.9.57-1.47.92a1.9 1.9 0 0 1-.52.23 1.37 1.37 0 0 1-.71-.14.49.49 0 0 1-.23-.45.8.8 0 0 1 .05-.29 2 2 0 0 1 .14-.35 2.1 2.1 0 0 1 .15-.3c0-.1.09-.21.13-.31a10.43 10.43 0 0 0 .38-1.32 5.73 5.73 0 0 0 .13-1.09 1.74 1.74 0 0 0-.19-.91.71.71 0 0 0-.56-.36 3.41 3.41 0 0 0-.54.38 4.45 4.45 0 0 0-.59.62 8.83 8.83 0 0 1-.59.66 2.65 2.65 0 0 0-.75.74 5.1 5.1 0 0 1-.6.46s0 .07-.07.13a1.05 1.05 0 0 1-.14.2 5.49 5.49 0 0 0-.21-.51c-.03-.13-.11-.3-.2-.48Z" class="cls-1"/><path d="m297.91 136.8 1-.67.13-.16a1 1 0 0 0 .18-.27 1 1 0 0 1 .21-.25 1.49 1.49 0 0 1 .3-.18l.27-.27c.11-.11.26-.24.43-.39l.31-.2a3 3 0 0 0 .42-.35 12.52 12.52 0 0 1 1.8-1.45 2.58 2.58 0 0 1 1.3-.48.65.65 0 0 1 .43.12.47.47 0 0 1 .14.35 1.08 1.08 0 0 1-.08.42.77.77 0 0 1-.27.3l-.61.45a3.84 3.84 0 0 1-.44.5 4.53 4.53 0 0 1-.6.53c-.08.09-.14.18-.2.26l-.21.2a4.65 4.65 0 0 1-.42.34 2.5 2.5 0 0 1-.49.64c-.25.26-.58.58-1 .94a3 3 0 0 0-.28.37c-.14.18-.32.43-.53.74l.07.1a1.73 1.73 0 0 0 .52-.27 5.87 5.87 0 0 0 .6-.51l.62-.57a4.05 4.05 0 0 1 .35-.28l.16-.09.17-.12a4.64 4.64 0 0 1 1-.91 1.54 1.54 0 0 1 .84-.3.43.43 0 0 1 .36.18 1.14 1.14 0 0 1 .14.56v1.08a1 1 0 0 0 .2.65.65.65 0 0 0 .54.29.36.36 0 0 0 .2-.06l.2-.15.15-.19.15-.18.13-.08a.65.65 0 0 0 .16-.13c.11.22.2.42.27.59s.12.32.16.44l-.51.49c-.17.17-.35.33-.53.48a3.34 3.34 0 0 1-.66.39 1.58 1.58 0 0 1-.63.13 1.45 1.45 0 0 1-1.12-.42 2 2 0 0 1-.47-1.26.78.78 0 0 0 0-.21.69.69 0 0 0-.12-.22l-.13.12-.15.17-.37.28-.51.4-.67.67-.38.37a4.68 4.68 0 0 1-.52.38c-.2.13-.42.26-.67.4l-.41.19a.69.69 0 0 1-.25.08 1 1 0 0 1-.79-.27 1.1 1.1 0 0 1-.26-.81 1.27 1.27 0 0 1 .13-.58 1.72 1.72 0 0 1 .38-.54 1.29 1.29 0 0 0 0-.24.35.35 0 0 0 0-.12l-.07-.14-.16-.35q-.07-.19-.18-.42a1.45 1.45 0 0 0 .13-.18c0-.13.07-.2.14-.33Z" class="cls-1"/><path d="m305.75 137.3.07-.08v-.11a3.81 3.81 0 0 1 .35-.39l.23-.22a.83.83 0 0 1 .24-.15l.52-.22.15-.09a2.39 2.39 0 0 1 .28-.36c.13-.16.3-.34.48-.54a.86.86 0 0 1 .17-.15 1.41 1.41 0 0 0 .24-.2q.27-.25.54-.54t.51-.54a5.06 5.06 0 0 1 .41-.37c.21-.18.5-.42.86-.74l.28-.16.53-.25a.47.47 0 0 0 .22-.22.88.88 0 0 0 .07-.39 3 3 0 0 0 .18-.36 4.73 4.73 0 0 0 .16-.49l.17-.56a2.49 2.49 0 0 1 .1-.3c.13-.34.3-.74.52-1.19s.47-1 .77-1.56c.15-.31.33-.65.53-1a1.46 1.46 0 0 1 .43-.43 1 1 0 0 1 .5-.14.32.32 0 0 1 .29.16.85.85 0 0 1 .1.46 5.65 5.65 0 0 1-.07.93 2.87 2.87 0 0 1-.24.82.58.58 0 0 0-.06.23c0 .11 0 .24-.05.39a.67.67 0 0 1-.08.3 1 1 0 0 1-.19.27.68.68 0 0 1 0 .19v.25l-.16.2a.44.44 0 0 0 0 .17v.19a1 1 0 0 1-.08.27c-.06.13-.13.31-.24.55l-.29.61a1.26 1.26 0 0 0-.11.28l-.12.18-.18.29v.24l-.72 2.59v.73a2 2 0 0 0 .06.49 3.55 3.55 0 0 0 .19.47c.09.18.2.38.33.59a.81.81 0 0 0 .3.31.74.74 0 0 0 .36.09.9.9 0 0 0 .43-.12 1.55 1.55 0 0 0 .44-.36l.26.55a4.32 4.32 0 0 1 .19.48l-.24.23c-.12.14-.29.32-.49.56a1 1 0 0 1-.44.31 1.78 1.78 0 0 1-.65.1 2.09 2.09 0 0 1-1.37-.44 2.41 2.41 0 0 1-.75-1.32c0-.12-.05-.23-.08-.31s0-.18-.06-.25a2 2 0 0 0-.27-.46l-.13.17a1.52 1.52 0 0 0-.3.25 4.34 4.34 0 0 0-.33.43 1.23 1.23 0 0 1-.12.28 3.46 3.46 0 0 1-.25.39l-.73.84-.74.82a4.46 4.46 0 0 1-.94.83 1.41 1.41 0 0 1-.74.26 1 1 0 0 1-1.1-1.09 2 2 0 0 1 .19-.72 2.37 2.37 0 0 0 .19-.7l-.07-.18Zm5.66-3.22a.45.45 0 0 0 0-.17l-.42.39c-.16.15-.36.32-.58.5a5.45 5.45 0 0 1-.36.57c-.19.26-.45.58-.79 1a4.11 4.11 0 0 0-.4.58l-.6 1a4.48 4.48 0 0 0-.26.57.2.2 0 0 0 .09.15 2.42 2.42 0 0 0 .83-.59 16.61 16.61 0 0 0 1.16-1.36 13.46 13.46 0 0 0 1-1.57 2.48 2.48 0 0 0 .33-1.07Z" class="cls-1"/><path d="m314.7 137.3.07-.08v-.11a7.42 7.42 0 0 1 1.07-1.09 6.77 6.77 0 0 0 1.06-1.09.8.8 0 0 1 .26-.26.62.62 0 0 1 .29-.07 1.11 1.11 0 0 1 .67.19 1 1 0 0 1 .36.59c.05.24.1.47.14.71s.09.47.12.71.11.38.19.68a1.8 1.8 0 0 0 .17.53.31.31 0 0 0 .16.16.63.63 0 0 0 .29.05 1.22 1.22 0 0 0 .41-.07 1.37 1.37 0 0 0 .44-.26l.36-.29.36-.3.45 1a4.52 4.52 0 0 1-.48.41c-.2.16-.43.34-.71.54a6.43 6.43 0 0 1-.79.5 1.22 1.22 0 0 1-.49.16 2.41 2.41 0 0 1-1.33-.23 3.15 3.15 0 0 1-.68-1.32 1.35 1.35 0 0 0-.13-.21l-.21-.3a2.87 2.87 0 0 0-.23-.39c-.07-.08-.13-.12-.17-.12a.93.93 0 0 0-.49.24 6.74 6.74 0 0 0-.74.72c0-.09-.08-.21-.14-.35a4.87 4.87 0 0 1-.17-.47l-.06-.12a.24.24 0 0 0-.05-.06Zm4.71-8.88a.61.61 0 0 1 .41.11.41.41 0 0 1 .13.32c-.05.21-.08.39-.12.53s-.14.5-.19.67l-.13.37a1.39 1.39 0 0 1-.28.43 1.6 1.6 0 0 1-.42.34 3.74 3.74 0 0 1-.43.25.5.5 0 0 1-.25.06h-.7a.49.49 0 0 1-.23-.3 1.67 1.67 0 0 1-.09-.61 1.54 1.54 0 0 1 .41-.85 1.27 1.27 0 0 1 .73-.54l.45-.54a.71.71 0 0 1 .29-.13 1.34 1.34 0 0 1 .42-.11Z" class="cls-1"/><path d="m320.68 137.3.07-.08a.9.9 0 0 1 .19-.34 1.89 1.89 0 0 1 .44-.36l.58-.38a1 1 0 0 0 .25-.22 1.26 1.26 0 0 0 .14-.19l.3-.24.4-.39a.59.59 0 0 0 .17-.18 2.27 2.27 0 0 0 .18-.28c.1-.07.21-.15.34-.26s.26-.24.43-.4.4-.43.64-.67.5-.5.79-.76a2 2 0 0 1 .28-.11.73.73 0 0 1 .25 0 1.07 1.07 0 0 1 .76.24.92.92 0 0 1 .25.7 2.44 2.44 0 0 1 0 .37c0 .17-.05.39-.08.65-.11.76-.18 1.22-.23 1.38s-.2.69-.47 1.56c-.06.14-.12.32-.19.53s-.14.46-.23.76a.25.25 0 0 0 .12.09.68.68 0 0 0 .28-.15c.13-.1.31-.25.54-.46l.62-.55c.15-.12.24-.2.28-.22l.25.56c.07.16.13.32.19.47a1.39 1.39 0 0 0-.27.21 1.7 1.7 0 0 0-.22.24c-.15.11-.34.23-.54.36l-.68.44c-.12.12-.27.25-.46.41l-.65.55-.21.05a1.91 1.91 0 0 1-.3.32.93.93 0 0 1-.25.16l-.36.13-.39.13a.27.27 0 0 1-.18-.15.62.62 0 0 1 0-.29 3.19 3.19 0 0 1-.27-.7 3.38 3.38 0 0 1-.1-.88 1.28 1.28 0 0 1 0-.19v-.18a2.51 2.51 0 0 1-.08-.35.69.69 0 0 1 .26-.55.87.87 0 0 1 .59-.22.24.24 0 0 1 .24.17c.05.12.1.17.15.17s.11-.1.16-.3a8 8 0 0 0 .17-.91c.05-.35.08-.65.1-.9s0-.45 0-.59a.36.36 0 0 0-.06-.22.29.29 0 0 0-.21-.07 3.16 3.16 0 0 0-.94.68c-.54.45-1.28 1.12-2.23 2l-.13.19c-.06.08-.13.17-.2.28a2.25 2.25 0 0 0-.16-.41c-.1-.2-.2-.41-.32-.65Z" class="cls-1"/><path d="M327.27 137.3a2.43 2.43 0 0 1 .35-.48 3.83 3.83 0 0 1 .54-.5l.06-.45a3.12 3.12 0 0 0 0-.44 2.45 2.45 0 0 1 .11-.37c0-.14.1-.3.16-.46s.16-.38.27-.62a9.35 9.35 0 0 1 .46-.84c.16-.17.32-.36.49-.57s.35-.41.52-.62a2.61 2.61 0 0 1 .27-.19l.3-.2.3-.08a2.1 2.1 0 0 1 .37 0 1.47 1.47 0 0 1 .46.06.61.61 0 0 1 .28.19.83.83 0 0 1 .16.27c0 .12.09.27.14.44s.05.32.08.5c0-.05 0 0 0 0s-.07.22-.12.4l-.1.36a4.1 4.1 0 0 1-.71 1.25 18 18 0 0 1-1.49 1.62.64.64 0 0 0-.13.19.58.58 0 0 0-.06.26.88.88 0 0 0 .09.41.53.53 0 0 0 .24.27 1 1 0 0 0 .28.14 4 4 0 0 0 .47.12 3.8 3.8 0 0 0 .8-.14 4.25 4.25 0 0 0 .64-.27l.18-.1a1.17 1.17 0 0 0 .25-.16l.26.58.18.45a7.31 7.31 0 0 1-1.17 1 1.88 1.88 0 0 1-1 .32 1.67 1.67 0 0 1-.41.16 2.87 2.87 0 0 1-.55 0 2.07 2.07 0 0 1-.73-.12 1.5 1.5 0 0 1-.54-.36 1.43 1.43 0 0 1-.22-.34 4.33 4.33 0 0 1-.24-.52 1.75 1.75 0 0 0-.19-.37.27.27 0 0 0-.2-.11.35.35 0 0 0-.21.08 2 2 0 0 0-.24.25 3.35 3.35 0 0 0-.16-.41c-.03-.15-.12-.36-.24-.6Zm3.6-3.66c-.17 0-.39.22-.67.65a2.19 2.19 0 0 0-.41 1 .12.12 0 0 0 0 .09s.05 0 .11 0a.24.24 0 0 0 .21-.13l.14-.24a2.83 2.83 0 0 0 .25-.24c.07-.09.15-.17.23-.26a1.17 1.17 0 0 0 .2-.31.92.92 0 0 0 .07-.32.38.38 0 0 0 0-.16.14.14 0 0 0-.13-.08ZM163.62 97.66a5.32 5.32 0 0 1-4.54 2.26 6.36 6.36 0 0 1 0-12.72 5.33 5.33 0 0 1 4.31 1.91l-1 .76a4 4 0 0 0-3.27-1.6 5.3 5.3 0 0 0 0 10.58 4.14 4.14 0 0 0 3.56-1.8ZM166 99.62h-1.35l5.23-12.12H171l5.2 12.12h-1.37l-1.33-3.19h-6.26Zm1.78-4.32h5.33l-2.66-6.43ZM179.76 99.62h-1.23V87.5h1.23ZM184.72 99.62h-1.23V87.5h3.56c2.39 0 4.14.88 4.14 3.24a3.14 3.14 0 0 1-3.1 3.11l3.54 5.77h-1.5L186.78 94h-2.06Zm0-6.73h2.14c2 0 3.1-.72 3.1-2.15 0-1.59-1.22-2.18-3.05-2.18h-2.19ZM202.84 97.82V87.5h1.23v12.12h-1.54l-7-10.42v10.42h-1.23V87.5h1.54ZM213.7 89.46a2.89 2.89 0 0 0-2.5-1.22 2.38 2.38 0 0 0-2.58 2.28c0 1.53 1.28 1.93 2.63 2.37 1.71.57 3.6 1.11 3.6 3.54s-2 3.49-4 3.49a4.68 4.68 0 0 1-3.81-1.79l1.06-.79a3.21 3.21 0 0 0 2.77 1.52 2.5 2.5 0 0 0 2.69-2.34c0-1.69-1.42-2.12-3-2.6s-3.25-1.2-3.25-3.39c0-2.34 2.08-3.33 3.86-3.33a4.2 4.2 0 0 1 3.42 1.47ZM233 97.66a5.31 5.31 0 0 1-4.54 2.26 6.36 6.36 0 0 1 0-12.72 5.32 5.32 0 0 1 4.31 1.91l-1 .76a4 4 0 0 0-3.27-1.6 5.3 5.3 0 0 0 0 10.58 4.14 4.14 0 0 0 3.56-1.8ZM241.07 99.92a6.36 6.36 0 1 1 6.31-6.36 6.16 6.16 0 0 1-6.31 6.36Zm0-11.65a5.29 5.29 0 1 0 5 5.29 5 5 0 0 0-5-5.29ZM251.69 98.52h5.64v1.1h-6.87V87.5h1.23ZM260.93 98.52h5.64v1.1h-6.87V87.5h1.23ZM270.16 98.52h6.49v1.1h-7.72V87.5h7.51v1.1h-6.28v4.17H276v1.08h-5.87ZM288.76 89.68a4.62 4.62 0 0 0-3.51-1.41 5.29 5.29 0 0 0 0 10.56 6.27 6.27 0 0 0 3.27-.79v-3.68h-2.82v-1.07h4.05v5.45a8.74 8.74 0 0 1-4.52 1.18 6.36 6.36 0 0 1 0-12.72 6 6 0 0 1 4.38 1.62ZM294.64 98.52h6.48v1.1h-7.71V87.5h7.51v1.1h-6.28v4.17h5.87v1.08h-5.87ZM314.5 99.92a6.36 6.36 0 1 1 6.31-6.36 6.16 6.16 0 0 1-6.31 6.36Zm0-11.65a5.29 5.29 0 1 0 5 5.29 5 5 0 0 0-5-5.29ZM325.12 99.62h-1.23V87.5h7.31v1.1h-6.08v4.21h5.65v1.07h-5.65ZM153 120.14V108h8.14v2.48h-5.32v2.28h5v2.34h-5v2.51h5.63v2.5ZM171.07 120.14l-4.88-7.92h-.05l.07 7.92h-2.84V108h3.33l4.86 7.9h.05l-.07-7.9h2.84v12.11ZM183 120.45c-3.87 0-6.65-2.57-6.65-6.38a6.2 6.2 0 0 1 6.56-6.36 6.9 6.9 0 0 1 4.67 1.6l-1.84 2.11a3.64 3.64 0 0 0-6.28 2.65 3.5 3.5 0 0 0 3.69 3.81 4.68 4.68 0 0 0 1.83-.32v-2.21h-2.3V113h5v6.42a10.34 10.34 0 0 1-4.68 1.03ZM190 120.14V108h3v9.56h4.68v2.55ZM199 120.14V108h3v12.11ZM210.87 111.18a2.92 2.92 0 0 0-2.16-1.05c-.75 0-1.69.26-1.69 1.22 0 .8.72 1.06 1.86 1.42 1.65.53 3.77 1.23 3.77 3.64 0 2.79-2.24 4-4.64 4a6.4 6.4 0 0 1-4.53-1.74l1.92-2A3.55 3.55 0 0 0 208 118c.89 0 1.68-.34 1.68-1.32s-.92-1.21-2.52-1.73-3.09-1.28-3.09-3.47c0-2.69 2.43-3.8 4.69-3.8a6.08 6.08 0 0 1 4 1.49ZM222.23 120.14v-5.06h-4.72v5.06h-2.93V108h2.93v4.59h4.72V108h2.92v12.11ZM240.48 120.14l-1.15-1.14a4.57 4.57 0 0 1-3.54 1.42c-2.21 0-4.34-1.15-4.34-3.61a3.68 3.68 0 0 1 2.53-3.35 3.66 3.66 0 0 1-1.25-2.63c0-2.19 2-3.08 3.78-3.08s3.69.94 3.69 3.08c0 1.53-1.09 2.49-2.42 3.16l1.52 1.56 1.21-1.87h3.12l-2.63 3.47 3 3Zm-4.94-5.14a1.7 1.7 0 0 0-1.29 1.62 1.57 1.57 0 0 0 1.64 1.52 2.12 2.12 0 0 0 1.78-.92Zm1-5.27a1.11 1.11 0 0 0-1.16 1.11 2.1 2.1 0 0 0 .91 1.57c.77-.3 1.4-.83 1.4-1.57a1.08 1.08 0 0 0-1.15-1.08ZM254.38 120.14h-4.82V108h4.82c1.89 0 4.13.67 4.13 3.11a2.67 2.67 0 0 1-2 2.62 2.81 2.81 0 0 1 2.48 2.83c.01 2.69-2.3 3.58-4.61 3.58Zm-.56-9.78h-1.44v2.49H254c1.09 0 1.72-.46 1.72-1.31s-.67-1.18-1.9-1.18ZM254 115h-1.63v2.77H254c.92 0 2-.26 2-1.44.08-1-.74-1.33-2-1.33ZM266 120.47c-3.18 0-5.16-2-5.16-4.9V108h2.9v7.3a2.29 2.29 0 1 0 4.55 0V108h2.93v7.54c-.02 2.94-2.07 4.93-5.22 4.93ZM280 111.18a2.93 2.93 0 0 0-2.16-1.05c-.75 0-1.69.26-1.69 1.22 0 .8.72 1.06 1.86 1.42 1.65.53 3.77 1.23 3.77 3.64 0 2.79-2.24 4-4.64 4a6.38 6.38 0 0 1-4.53-1.74l1.91-2a3.59 3.59 0 0 0 2.58 1.33c.89 0 1.68-.34 1.68-1.32s-.93-1.21-2.52-1.73-3.09-1.28-3.09-3.47c0-2.69 2.43-3.8 4.68-3.8a6.08 6.08 0 0 1 4 1.49ZM283.67 120.14V108h2.94v12.11ZM296.81 120.14l-4.88-7.92h-.05l.07 7.92h-2.84V108h3.33l4.86 7.9h.05l-.06-7.9h2.83v12.11ZM302.62 120.14V108h8.14v2.48h-5.32v2.28h5v2.34h-5v2.51h5.63v2.5ZM319.4 111.18a2.9 2.9 0 0 0-2.15-1.05c-.76 0-1.7.26-1.7 1.22 0 .8.72 1.06 1.87 1.42 1.64.53 3.76 1.23 3.76 3.64 0 2.79-2.24 4-4.63 4a6.41 6.41 0 0 1-4.54-1.74l1.92-2a3.57 3.57 0 0 0 2.62 1.29c.88 0 1.67-.34 1.67-1.32s-.92-1.21-2.51-1.73-3.1-1.28-3.1-3.47c0-2.69 2.43-3.8 4.69-3.8a6.08 6.08 0 0 1 4 1.49ZM329.51 111.18a2.91 2.91 0 0 0-2.15-1.05c-.76 0-1.7.26-1.7 1.22 0 .8.72 1.06 1.87 1.42 1.64.53 3.76 1.23 3.76 3.64 0 2.79-2.24 4-4.64 4a6.4 6.4 0 0 1-4.53-1.74l1.92-2a3.57 3.57 0 0 0 2.61 1.29c.89 0 1.68-.34 1.68-1.32s-.92-1.21-2.51-1.73-3.1-1.28-3.1-3.47c0-2.69 2.43-3.8 4.69-3.8a6.1 6.1 0 0 1 4 1.49Z" class="cls-1"/></g></g>
</svg>
