<svg xmlns="http://www.w3.org/2000/svg" xml:space="preserve" id="Layer_1" x="0" y="0" version="1.1" viewBox="0 0 129 31"
  fill="currentColor"
  >
  <path d="M14.9 9c3.3 0 3.9 2.4 4 3.6h-8.2c.4-2.2 1.9-3.6 4.2-3.6m27.9 3.7H40v10.4c0 1.5-1.3 3.1-3.5 3.1-2.3 0-4.1-1.6-4.1-3.1V12.7h-4.5c-.1-1.2-.2-2.2-.6-3.1-.7-1.7-1.5-2.9-2.4-3.9-2.4-2.5-5.6-3.8-9.4-3.8-3.9 0-7.2 1.3-9.7 3.8S2 11.5 2 15.1c0 3.5 1.1 6.7 3.2 9.2 2.4 2.9 6.4 4.7 10.6 4.8 2.7.1 6.5-.4 9.8-2.5l-1-2.2c-2.4 1.5-5.1 2-8 2-2.2-.1-5.2-.4-7.8-2.6-.9-.7-3.7-3.5-3.7-8.6 0-3 1.1-5.7 3-7.6s4.6-3 7.6-3c3.2 0 5.6 1.1 7.6 3.4 1.2 1.4 2 3.7 2 5.6 0 2.4-.8 4.4-2.3 5.7-1.4 1.3-3.4 2-5.7 2-.8 0-3-.2-4.3-1.4-2-1.8-2.1-4.1-2.1-4.7H22.2v-.1s0-1.4-.1-2.3c-.3-3.1-2.3-6.3-6.9-6.3-2.9 0-5.3 1.5-6.6 4.2-.7 1.3-1 2.8-1 4.3 0 5.1 3.5 8.9 8.6 9.3.9.1 1.3 0 1.3 0 4.2 0 7.2-1.9 9-4.8.4-.7 1.2-2.2 1.5-4.2h1.5v8.3c.2 3.4 4 5.4 7.1 5.4 3.2 0 6.5-2.2 6.5-5.8V12.7h-.3zM48.3 2.5h2v26h-2zM61.5 11.6c1 0 1.5-.5 1.5-1.3v-.1c0-.8-.5-1.3-1.6-1.3h-1.2v2.6h1.3v.1zM61.4 7c1 0 1.4-.3 1.4-1.1v-.1c0-.8-.4-1.1-1.4-1.1h-1.2V7h1.2zM57 2.6h5.1c2.7 0 3.9 1.2 3.9 2.9v.1c0 1.2-.7 2.1-1.9 2.4 1.4.2 2.3 1.1 2.3 2.6v.1c0 2-1.3 3.1-4.2 3.1H57V2.6zM67.7 10.9V5.6h2.9v4.9c0 .9.4 1.4 1.2 1.4.9 0 1.4-.5 1.4-1.5V5.6h2.9v8.2h-2.9v-1.3c-.5.8-1.3 1.5-2.7 1.5-1.6-.1-2.8-1-2.8-3.1M77.4 11.2h2.7c.1.6.4.9 1.2.9.7 0 1-.3 1-.7s-.4-.6-1.6-.7c-2.2-.3-3.2-.9-3.2-2.6 0-1.8 1.7-2.7 3.6-2.7 2.1 0 3.5.7 3.7 2.6h-2.6c-.1-.5-.4-.8-1.1-.8-.6 0-.9.3-.9.6 0 .4.4.5 1.4.7 2.3.3 3.5.9 3.5 2.6 0 1.9-1.5 2.8-3.8 2.8-2.4 0-3.8-.9-3.9-2.7M86.5 5.6h2.9v8.2h-2.9V5.6zm-.2-2.2c0-.8.7-1.5 1.6-1.5s1.6.6 1.6 1.5c0 .8-.7 1.4-1.6 1.4-.9 0-1.6-.6-1.6-1.4M91.3 5.6h2.9v1.3c.5-.8 1.4-1.5 2.8-1.5 1.6 0 2.7 1 2.7 3.1v5.3h-2.9V9c0-.9-.4-1.4-1.2-1.4-.9 0-1.4.5-1.4 1.5v4.6h-2.9V5.6zM107.1 8.8c0-1-.5-1.5-1.5-1.5-.9 0-1.5.5-1.6 1.5h3.1zm-6.1 1v-.1c0-2.6 2-4.3 4.5-4.3 2.3 0 4.3 1.3 4.3 4.2v.7h-5.9c.1 1.1.7 1.7 1.8 1.7.9 0 1.4-.4 1.5-1h2.7c-.3 1.8-1.7 2.9-4.3 2.9-2.6 0-4.6-1.5-4.6-4.1M110.8 11.2h2.7c.1.6.4.9 1.2.9.7 0 1-.3 1-.7s-.4-.6-1.6-.7c-2.2-.3-3.2-.9-3.2-2.6 0-1.8 1.7-2.7 3.6-2.7 2.1 0 3.5.7 3.7 2.6h-2.6c-.1-.5-.4-.8-1.1-.8-.6 0-.9.3-.9.6 0 .4.4.5 1.4.7 2.3.3 3.5.9 3.5 2.6 0 1.9-1.5 2.8-3.8 2.8-2.5 0-3.9-.9-3.9-2.7M119.3 11.2h2.7c.1.6.4.9 1.2.9.7 0 1-.3 1-.7s-.4-.6-1.6-.7c-2.2-.3-3.2-.9-3.2-2.6 0-1.8 1.7-2.7 3.6-2.7 2.1 0 3.5.7 3.7 2.6h-2.6c-.1-.5-.4-.8-1.1-.8-.6 0-.9.3-.9.6 0 .4.4.5 1.4.7 2.3.3 3.5.9 3.5 2.6 0 1.9-1.5 2.8-3.8 2.8-2.4 0-3.8-.9-3.9-2.7M56.2 25h3.1c.1.8.5 1.5 1.8 1.5.9 0 1.5-.5 1.5-1.1 0-.7-.4-.9-1.8-1.1-3.2-.4-4.3-1.3-4.3-3.6 0-2 1.7-3.5 4.5-3.5s4.3 1.1 4.5 3.5h-3.1c-.1-.8-.6-1.2-1.5-1.2s-1.3.4-1.3 1 .4.9 1.8 1.1c2.9.3 4.4 1 4.4 3.5 0 2-1.7 3.7-4.6 3.7-3.2-.1-4.9-1.4-5-3.8M66.9 24.5v-.1c0-2.7 2-4.3 4.5-4.3 2.1 0 4 .9 4.1 3.4h-2.7c-.1-.8-.5-1.2-1.3-1.2-1 0-1.6.7-1.6 2.1v.1c0 1.4.6 2.2 1.7 2.2.8 0 1.4-.5 1.5-1.4h2.6c-.1 2.1-1.5 3.4-4.2 3.4s-4.6-1.4-4.6-4.2M76.9 16.8h2.9v4.9c.5-.8 1.4-1.5 2.8-1.5 1.6 0 2.7 1 2.7 3.1v5.3h-2.9v-4.7c0-.9-.4-1.4-1.2-1.4-.9 0-1.4.5-1.4 1.5v4.6h-2.9V16.8zM92.9 24.5v-.1c0-1.4-.6-2.1-1.7-2.1s-1.7.7-1.7 2.1v.1c0 1.4.6 2.2 1.7 2.2 1.1-.1 1.7-.9 1.7-2.2m-6.3 0v-.1c0-2.6 2-4.3 4.6-4.3s4.6 1.6 4.6 4.2v.1c0 2.7-2 4.2-4.6 4.2-2.6.1-4.6-1.4-4.6-4.1M103 24.5v-.1c0-1.4-.6-2.1-1.7-2.1s-1.7.7-1.7 2.1v.1c0 1.4.6 2.2 1.7 2.2 1.2-.1 1.7-.9 1.7-2.2m-6.2 0v-.1c0-2.6 2-4.3 4.6-4.3s4.6 1.6 4.6 4.2v.1c0 2.7-2 4.2-4.6 4.2s-4.6-1.4-4.6-4.1M107.5 16.8h2.9v11.7h-2.9z" class="st0"/>
</svg>
