<svg xmlns="http://www.w3.org/2000/svg" viewBox="0 0 227.688 73.355">
  <defs><clipPath id="a"><path fill="none" d="M0 0h227.687v73.355H0z" data-name="Rectangle 10"/></clipPath>
  </defs>
  <g fill="currentColor" clip-path="url(#a)" data-name="Group 8">
    <path d="M195.429 55.755h-.112v2.511h.092c.256 0 .717.106.717-1.322 0-1.189-.315-1.189-.7-1.189M188.616 58c0-.185-.145-.3-.414-.5l-.133-.1c-.507-.375-.786-.7-.786-1.193a1.157 1.157 0 0 1 1.27-1.087 2.083 2.083 0 0 1 .809.162l-.213.584a1.3 1.3 0 0 0-.532-.124c-.258 0-.4.111-.4.281s.124.268.381.458l.152.114c.447.33.8.626.8 1.2a1.138 1.138 0 0 1-1.265 1.125 1.9 1.9 0 0 1-.925-.235l.257-.57a1.384 1.384 0 0 0 .629.184c.268 0 .375-.151.375-.3m1.6-2.836h1.194l.586 1.267.569-1.267h.75l-1 2.022v1.677h-1.02v-1.677Zm4.05 0h1.055a1.972 1.972 0 0 1 1.39.335 2.2 2.2 0 0 1-.359 3.182 2.243 2.243 0 0 1-1.122.182h-.964Zm4.113 0h.655l1.531 2.04v-2.04h.708v3.7h-.652l-1.53-2.04v2.04h-.712Zm4.264 0h2.174v.637h-1.119v.834h1.029v.608h-1.029v.98h1.137v.64h-2.192Zm2.934 0h1.2l.585 1.267.565-1.267h.752l-1 2.022v1.677h-1.022v-1.677Zm-31.614-3.719a8.684 8.684 0 0 0 3.389 3.658l20.121 11.6 20.13-11.6a8.736 8.736 0 0 0 3.368-3.653Zm36.608-1.405h.429V38.972h-.429Zm-.974 0h.43V38.972h-.43Zm-3.069 0h.429V38.972h-.429Zm-.974 0h.428V38.972h-.428Zm-3.1 0h.428V38.972h-.428Zm-.972 0h.427V38.972h-.433Zm-8.46 0h.43V38.972h-.43Zm-.976 0h.432V38.972h-.432Zm-3.095 0h.431V38.972h-.431Zm-.977 0h.432V38.972h-.432Zm-3.094 0h.432V38.972h-.436Zm-.989 0h.43V38.972h-.43Zm-6.478 0h.4V38h-.4Zm.987.03h.43v-13.36h-.43ZM179.764 38h-.4v12.04h.4Zm13.685-.768h-1.4l.7-1.166Zm-8.126 0h-1.4l.7-1.166Zm9.836 13.646h.357V34.759h-15.81l1.345 1.967h.808V50.9h.428V38.032h12.872Zm1.606-.839h.458V29.884h-.458Zm.975 0h.458V29.884h-.458Zm13.269-12.808h-1.4l.7-1.166Zm-8.128 0h-1.4l.7-1.166Zm11-.5 1.338-1.953-15.8-.042v16.14h.385V38.032h12.932l-.029 12.837.368.007v-14.15Zm1.229 13.312h.4V38h-.4Zm.975.03h.432V36.709h-.436Zm.975-.03h.4V38h-.4Zm-25.36-31.9-.379 1.2h.755Zm-9.615 1.2h.756l-.377-1.2Zm3.133-7.314c0-1.227-.156-1.54-.5-1.54s-.548.26-.548 1.6c0 .906.1 1.442.51 1.442.245 0 .535-.168.535-1.505m4.069-7.561c0-.492-.129-.621-.549-.621h-.13V5.08h.13c.4 0 .549-.15.549-.619m8.355 1.472h.758l-.377-1.2Zm12.231-.612c0-1.227-.154-1.54-.5-1.54s-.55.259-.55 1.6c0 .9.1 1.441.511 1.441.246 0 .535-.167.535-1.505m1.822 6.7c0-1.227-.157-1.54-.5-1.54s-.548.26-.548 1.6c0 .906.1 1.442.512 1.442.244 0 .535-.168.535-1.505m6.5-6.089h.757l-.377-1.2Zm6.022 1.5h-2.46V3.166h1.215v3.548h1.245Zm-3.559 0h-1.241l-.279-.866h-1.145l-.275.866h-.842l1.515-4.266h.709Zm-3.81 3.173h-1.292v1.072h1.188v.739h-1.188v1.718h-1.216V9.868h2.509Zm-.986-3.173h-.756l-1.755-2.345v2.352h-.825V3.166h.759l1.766 2.353V3.166h.819Zm-2.832 4.5c0 1.252-.6 2.266-1.875 2.266-1.214 0-1.839-.929-1.839-2.184a1.942 1.942 0 0 1 1.9-2.2c.949 0 1.816.615 1.816 2.122m-1.82-6.7c0 1.255-.6 2.269-1.875 2.269-1.212 0-1.834-.93-1.834-2.184a1.939 1.939 0 0 1 1.891-2.2c.955 0 1.819.615 1.819 2.119m-3.938 15.607h-1.112v-3.3l-.808 3.294h-.632l-.8-3.294v3.294h-.757V16.57h1.408l.649 2.636.645-2.636h1.409Zm-1.083-13.4h-1.213V3.166h1.216Zm-1.634 4.833V13.4h1.315v.735h-2.529V9.868h2.508v.732h-1.294v.963h1.19v.7Zm-.739-8.382h-1.03v3.541h-1.215V3.883h-1.026v-.717h3.275Zm-3.708 3.549h-1.239l-.28-.866h-1.142l-.28.866h-.838l1.51-4.266h.712Zm-4.794 0h-.759l-1.759-2.36v2.352h-.822V3.166h.759l1.762 2.353V3.166h.822Zm-3.85 2.436h1.222v3.547h1.249v.718h-2.465Zm-1.767-4.543 1.175 2.107h-1.3l-.815-1.764h-.14v1.756h-1.177V3.166h1.3a2.673 2.673 0 0 1 1.155.143.951.951 0 0 1 .6.9 1.152 1.152 0 0 1-.788 1.116m-3.145 6.607c0 1.252-.6 2.266-1.873 2.266-1.215 0-1.834-.929-1.834-2.184a1.94 1.94 0 0 1 1.893-2.2c.949 0 1.814.615 1.814 2.122m-.454-4.5h-2.527v-4.27h2.506V3.9h-1.301v.963h1.189v.7h-1.189V6.7h1.312Zm-3.692-3.553h-1.035v3.549h-1.214V3.883h-1.026v-.717h3.276Zm-3.55 8.124a2.005 2.005 0 0 1 2.049-2.2 2.37 2.37 0 0 1 1.035.207l-.267.67a1.385 1.385 0 0 0-.562-.14c-.892 0-.892 1.209-.892 1.434 0 .375.04 1.481.815 1.481a1.306 1.306 0 0 0 .627-.187l.3.652a2.625 2.625 0 0 1-1.187.271 1.943 1.943 0 0 1-1.914-2.19m-.6 4.563h1.412v4.264h-1.115V17.54l-.806 3.294h-.637l-.8-3.294v3.294h-.758V16.57h1.409l.648 2.636Zm-.284-9.136h-.758l-1.764-2.352v2.352h-.82V3.166h.755l1.766 2.353V3.166h.819Zm-4.918 0h-1.215V3.166h1.215Zm10.247 13.4-.278-.865h-1.151l-.279.865h-.839l1.518-4.262h.712l1.555 4.264Zm8.207-4.264h.71l1.554 4.266h-1.24l-.275-.865h-1.145l-.278.865h-.841Zm-3.651-6.7h1.215v3.547h1.246v.718h-2.46Zm-1.4 8.614v2.352h-.821V16.57h.756l1.764 2.353V16.57h.821v4.264h-.755Zm9.81-6.217V13.4h1.312v.735h-2.526V9.868h2.508v.732h-1.289v.963h1.189v.7Zm.594 7.963v-1h-.437v-.671h1.535v2.028a2.882 2.882 0 0 1-1.3.317 2 2 0 0 1-2.049-2.172 2.048 2.048 0 0 1 2.121-2.216 2.745 2.745 0 0 1 1.072.207l-.266.667a1.649 1.649 0 0 0-.633-.137c-.89 0-.951 1.132-.951 1.514 0 .572.061 1.155.511 1.382a.961.961 0 0 0 .4.084m3.639-1.26V20.1h1.312v.736h-2.526V16.57h2.509v.736h-1.295v.965h1.19v.7Zm.406-5.442v-1h-.437v-.672h1.536v2.029a2.883 2.883 0 0 1-1.305.316 2 2 0 0 1-2.046-2.172 2.046 2.046 0 0 1 2.115-2.22 2.78 2.78 0 0 1 1.073.207l-.265.665a1.7 1.7 0 0 0-.635-.135c-.889 0-.948 1.13-.948 1.513 0 .575.058 1.155.511 1.382a.922.922 0 0 0 .4.085m9.146 5.442V20.1h1.312v.736h-2.528V16.57h2.509v.736h-1.293v.965h1.188v.7Zm5.17-.045V16.57h.821v4.264h-.755l-1.766-2.352v2.352h-.819V16.57h.755Zm4.219-1.637v3.548h-1.215v-3.548h-1.025v-.717h3.269v.716ZM171.5 23.216h51.932v24.368a10.242 10.242 0 0 1-5.077 8.82l-20.886 12.037-20.876-12.032a10.24 10.24 0 0 1-5.09-8.826ZM227.688 47.5V0h-60.243l.005 47.5a14.673 14.673 0 0 0 7.316 12.7l22.8 13.152L220.387 60.2a14.669 14.669 0 0 0 7.3-12.692" data-name="Path 25"/><path d="M221.232 50.938a9.257 9.257 0 0 0 .637-3.389V24.676l-48.784.048v22.873a9.348 9.348 0 0 0 .619 3.341h1.663V36.725h.809l2.446-3.567.918 1.344h15.983v-8.666l.811.812h2.279l.812-.812v8.691l15.964.008.948-1.379 2.435 3.567h.81v14.215Z" data-name="Path 26"/><path d="M0 1.121h11.444v57.138H0z" data-name="Rectangle 9"/><path d="M43.389 20.407c0-8.323-1.669-11.924-6.834-11.924-5.8 0-7.152 5.843-7.152 22.007 0 17.286 2.384 20.408 7.311 20.408 4.132 0 7.152-2.161 7.152-14.485h11.448c0 12.324-3.019 22.967-18.039 22.967-17.166 0-19.311-12.324-19.311-29.69S20.105 0 37.27 0c16.37 0 17.563 12.084 17.563 20.407Z" data-name="Path 27"/><path d="M61.267 1.121h17.006l8.105 40.333h.159l8.188-40.333h16.926v57.143H101.16V12.645h-.159L90.908 58.264h-8.9L71.916 12.645h-.159v45.619h-10.49Z" data-name="Path 28"/><path d="M128.258 40.414v1.681c0 5.361 1.509 8.8 7.549 8.8 3.5 0 6.834-2.241 6.834-7.043 0-5.2-2.622-7.122-10.171-9.763-10.172-3.521-14.861-7.763-14.861-17.286C117.608 5.683 124.366 0 135.166 0c10.172 0 17.562 4.4 17.562 15.366v1.6h-10.962c0-5.363-1.828-8.483-6.2-8.483-5.164 0-6.516 3.28-6.516 6.642 0 3.521 1.033 5.682 5.88 7.761l8.821 3.843c8.582 3.761 10.807 8.162 10.807 15.125 0 12.084-7.31 17.525-19.708 17.525-12.952 0-18.038-6.082-18.038-16.645v-2.32Z" data-name="Path 29"/>
  </g>
</svg>
