<svg xmlns="http://www.w3.org/2000/svg" data-bbox="27.72 417.37 1944 1164.712" data-type="color" viewBox="27.72 417.37 1944 1164.712">
  <g fill="#cc0001">
    <path d="M263.75 1480.2c280.92 167.53 865.22 111.34 1264.63-135.86 399.41-247.21 443.34-485.2 443.34-485.2s-227.03 447.63-839.68 577.14c-633.49 133.91-918.34-133.82-906.08-386.13 10.71-220.41 213.94-394.04 265.17-434.43 22.53 29.15 57.74 48.01 97.43 48.01 68.03 0 123.18-55.15 123.18-123.18s-55.15-123.18-123.18-123.18c-60.37 0-110.51 43.47-121.05 100.79-74.83 41.88-202.78 129.07-321.23 284.79-181.83 239.03-163.45 509.73 117.47 677.25" data-color="1"/>
    <path d="M1890.19 910.83q18.96 0 32.46-13.5t13.5-32.46q0-18.6-13.29-32.28t-33.87-13.68q-9.18 0-19.86 5.1t-17.79 16.29-7.11 24.57q0 19.02 13.44 32.49c8.95 8.98 19.8 13.47 32.52 13.47M1863.85 839q10.5-11.16 27.42-11.16 7.86 0 16.44 4.41t14.04 13.26 5.46 19.35q0 15.24-10.86 26.1t-26.04 10.86q-15.24 0-26.1-10.86t-10.86-26.1q-.015-14.7 10.5-25.86" data-color="1"/>
    <path d="M1879.81 869.42h2.58q4.5 0 7.29 2.55t6.45 9.57l4.08 7.86h12.18l-5.7-9.78q-3.84-6.48-5.61-8.43t-4.77-3.09q6.6-1.2 9.87-4.62t3.27-9.06q0-5.82-3.9-9.81t-12.48-3.99h-23.1v48.78h9.84zm0-21h9.06q5.1 0 7.62 1.62t2.52 4.86q0 3.6-2.55 5.19t-8.61 1.59h-8.04zM1630.38 897.76c6.31-22.5 9.78-39.04 10.39-49.61.61-10.56-2.89-22-10.52-34.31-7.62-12.3-20.76-22.16-39.37-29.57-18.63-7.41-42.73-11.01-72.33-10.82-29.82.19-57.29 4.98-82.42 14.35-25.12 9.38-44.77 22.59-58.96 39.64-14.18 17.06-26.29 43.47-36.33 79.26-7.07 25.21-8.81 46.96-5.22 65.24 3.6 18.29 22.19 38.56 55.79 60.81q60.12 39.375 65.58 47.43c3.41 5.37 2.12 18.75-3.88 40.13-4.36 15.53-9.12 25.73-14.28 30.59-5.18 4.87-12.58 7.33-22.22 7.39-8.97.06-13.95-3.5-14.96-10.69-1.01-7.18 1.87-22.81 8.63-46.9l7.95-28.36-120.4.78-6.06 21.61c-10.48 37.36-13.72 65.25-9.7 83.64 4.01 18.4 16.78 32.92 38.3 43.56 21.52 10.65 49.54 15.86 84.07 15.63 31.16-.2 59.19-5.39 84.09-15.54 24.89-10.16 44.65-24.55 59.28-43.18 14.62-18.63 27.05-46.18 37.28-82.64q13.725-48.945 2.43-74.49c-7.54-17.02-28.31-35.09-62.35-54.19-25.49-14.44-41.93-25.45-49.31-33.05-7.38-7.59-11.13-14.59-11.23-20.99-.11-6.4 1.77-16.47 5.62-30.2 2.84-10.13 6.87-17.74 12.11-22.83 5.23-5.09 11.66-7.66 19.28-7.71 9.42-.06 14.53 2.66 15.34 8.16s-1.69 18.6-7.5 39.31l-6.82 24.31 120.4-.78zm-471.94-233.37-156.03 572.14 142.36-.94 156.03-572.14zM806.26 944.78l9.35-32.75c7.2-25.2 12.75-40.69 16.67-46.44s10.67-8.66 20.25-8.72c7.75-.05 11.92 3.29 12.51 10.03.58 6.74-2.44 21.7-9.05 44.88l-9.35 32.75zm177.39 7.07c12.4-43.44 16.94-77.11 13.63-101.02s-15.5-43.04-36.56-57.39c-21.07-14.36-50.99-21.41-89.77-21.17-31.72.2-61.5 6.4-89.34 18.59-27.85 12.2-50.36 29.64-67.54 52.33s-31.36 53.61-42.54 92.78l-37.3 130.65c-9.51 33.32-14.36 58.68-14.55 76.09-.18 17.41 3.86 33.34 12.15 47.78s22.42 25.75 42.41 33.94c19.98 8.18 44.57 12.19 73.77 12 30.11-.19 56.35-4.57 78.73-13.14 22.37-8.57 42.47-21.33 60.29-38.3q26.73-25.44 38.4-47.76c7.77-14.88 15.62-36.16 23.52-63.84l9.44-33.09-131.07.83-16.86 59.08c-6.36 22.28-12.42 37.32-18.17 45.1-5.76 7.79-13.88 11.72-24.37 11.78-8.44.05-13.32-2.83-14.6-8.67-1.3-5.83.95-18.88 6.73-39.13l27.66-96.9 178.98-1.13zm-514.9-163.67L340.87 1236.2l142.36-.9 127.89-448.01zM1635.58 1544.06c-1.33 6.3-2.53 10.18-3.58 11.65s-2.8 2.2-5.25 2.17c-2.57-.02-4.09-.98-4.57-2.88-.47-1.9-.02-6.09 1.36-12.57 1.2-5.66 2.61-10.01 4.25-13.02s6.05-6.73 13.24-11.14zm-.5-56.2c1.48-6.99 2.71-11.31 3.71-12.98.99-1.66 2.81-2.48 5.45-2.46 2.32.02 3.76 1.03 4.34 3.02s.18 6.26-1.21 12.81c-1.11 5.23-2.29 8.68-3.55 10.37s-8.81 4.93-22.65 9.73c-12.93 4.42-21.26 8.32-25.01 11.69-3.74 3.37-6.61 9.75-8.59 19.13l-2.18 10.29c-2.68 12.65-1.56 20.88 3.34 24.67 4.9 3.8 10.76 5.73 17.59 5.79 5.21.05 9.94-1.03 14.17-3.23 4.24-2.21 8.02-5.53 11.35-9.99l-2.36 11.17 37.94.35 13.3-62.89c4.38-20.71 6.59-34.39 6.65-41.05.05-6.65-2.79-12.29-8.51-16.92-5.73-4.63-15.19-7-28.38-7.12-11-.1-20.37 1.83-28.11 5.8s-13.3 8.57-16.7 13.8c-3.4 5.24-6.12 12.7-8.17 22.39l-1.78 8.4 36.59.34zm-96.08-63.99-24.43 71.3 2.45-38.94c.98-12.49 1.67-23.34 2.05-32.54l-52.58-.48-32.32 152.87 35.52.33 21.37-100.84-6.41 100.98 25.19.23 35.96-103.07-21.77 103.2 35.52.33 32.32-152.87zM1719.69 1425.53l-32.32 152.87 40.16.37 32.32-152.87zM1869.16 1546.2c-1.33 6.3-2.53 10.18-3.58 11.65s-2.8 2.2-5.25 2.17q-3.855-.03-4.56-2.88t1.35-12.57c1.2-5.66 2.61-10 4.25-13.01s6.04-6.73 13.23-11.14zm-.5-56.2c1.48-6.99 2.71-11.31 3.71-12.97.99-1.66 2.81-2.48 5.45-2.46 2.32.02 3.76 1.03 4.34 3.02s.17 6.26-1.21 12.81c-1.11 5.23-2.29 8.68-3.55 10.38-1.26 1.69-8.81 4.93-22.65 9.73-12.93 4.42-21.26 8.32-25.01 11.69-3.74 3.37-6.61 9.75-8.59 19.13l-2.18 10.29c-2.68 12.65-1.56 20.88 3.34 24.67 4.9 3.8 10.76 5.73 17.59 5.79 5.21.05 9.94-1.03 14.18-3.24 4.23-2.2 8.02-5.53 11.34-9.99l-2.36 11.17 37.94.35 13.3-62.89c4.38-20.71 6.59-34.39 6.65-41.05.05-6.65-2.79-12.29-8.51-16.92s-15.19-7-28.38-7.12c-11-.1-20.37 1.83-28.11 5.8s-13.3 8.57-16.7 13.8c-3.4 5.24-6.12 12.7-8.17 22.39l-1.78 8.4 36.59.33zm-88.56-53.03-4.17 19.74-8.4-.08-4.19 19.83 8.4.08-13.46 63.64q-3.96 18.69-3.96 23.76c-.01 3.38 1.17 6.38 3.51 9.02 2.35 2.64 5.34 4.34 8.98 5.1q5.46 1.14 18.78 1.26l15.73.15 4.27-20.21c-6.37-.06-9.89-.57-10.56-1.52s-.13-5.55 1.61-13.8l14.17-67.04 10.52.1 4.19-19.83-10.52-.1 4.17-19.74z" data-color="1"/>
  </g>
</svg>
