<svg xmlns="http://www.w3.org/2000/svg" viewBox="0 0 221.98 65.59">
<path d="M77 11.85h2.57V28.4h8.71v2.41H77ZM98.8 11.85h2.33l8.12 19h-3l-1.9-4.69h-9l-1.87 4.69h-3Zm4.61 12-3.53-8.7h-.06l-3.59 8.7ZM111.71 11.85h3.38l10.44 15.58h.06V11.85h2.57v19h-3.27l-10.55-15.63h-.06v15.59h-2.57ZM148.51 20.2v9.35a9.28 9.28 0 0 1-1.58.75 17.13 17.13 0 0 1-1.84.55 17.51 17.51 0 0 1-1.92.34c-.65.06-1.27.1-1.84.1a11 11 0 0 1-4.3-.8 9.64 9.64 0 0 1-3.18-2.17 9.18 9.18 0 0 1-2-3.18 10.57 10.57 0 0 1-.69-3.82 10.41 10.41 0 0 1 .74-3.93 9.8 9.8 0 0 1 2-3.16 9.28 9.28 0 0 1 3.12-2.1 10.26 10.26 0 0 1 4-.77 11.77 11.77 0 0 1 4.28.66 7.75 7.75 0 0 1 2.78 1.81l-1.81 1.95a6.84 6.84 0 0 0-2.5-1.57 8.65 8.65 0 0 0-2.75-.43 6.88 6.88 0 0 0-5.2 2.22 7.16 7.16 0 0 0-1.45 2.39 8.4 8.4 0 0 0-.51 2.93 7.73 7.73 0 0 0 .57 3 7.35 7.35 0 0 0 1.55 2.4 7.1 7.1 0 0 0 2.33 1.59 7.22 7.22 0 0 0 2.92.58 12.54 12.54 0 0 0 2.58-.26 7 7 0 0 0 2.08-.73v-5.29h-4.2V20.2ZM154.08 11.85v11.62a7.42 7.42 0 0 0 .24 1.83 5.22 5.22 0 0 0 .81 1.76 4.34 4.34 0 0 0 1.47 1.31 4.59 4.59 0 0 0 6-1.31 5.42 5.42 0 0 0 .81-1.76 7.91 7.91 0 0 0 .23-1.83V11.85h2.58v12a7.65 7.65 0 0 1-.57 3 7 7 0 0 1-1.55 2.34 6.79 6.79 0 0 1-2.33 1.53 8 8 0 0 1-5.79 0 6.75 6.75 0 0 1-2.32-1.53 7.16 7.16 0 0 1-1.56-2.34 7.84 7.84 0 0 1-.56-3v-12ZM176.66 11.85H179l8.11 19h-3l-1.9-4.69h-9l-1.88 4.69h-3Zm4.6 12-3.53-8.7-3.59 8.7ZM204.37 20.2v9.35a8.93 8.93 0 0 1-1.58.75 16.3 16.3 0 0 1-1.83.55 17.69 17.69 0 0 1-1.93.34c-.65.06-1.26.1-1.83.1a11 11 0 0 1-4.3-.8 9.69 9.69 0 0 1-3.19-2.17 9.48 9.48 0 0 1-2-3.18 10.78 10.78 0 0 1-.68-3.82 10.41 10.41 0 0 1 .73-3.93 9.82 9.82 0 0 1 2-3.16 9.18 9.18 0 0 1 3.12-2.1 10.21 10.21 0 0 1 4-.77 11.79 11.79 0 0 1 4.29.66 7.93 7.93 0 0 1 2.83 1.81l-1.82 1.95a6.89 6.89 0 0 0-2.49-1.57 8.67 8.67 0 0 0-2.76-.43 6.88 6.88 0 0 0-5.19 2.22 7.16 7.16 0 0 0-1.45 2.39 8.4 8.4 0 0 0-.51 2.93 7.92 7.92 0 0 0 .56 3 7.54 7.54 0 0 0 1.56 2.4 7 7 0 0 0 2.33 1.59 7.17 7.17 0 0 0 2.91.58 12.63 12.63 0 0 0 2.59-.26 7 7 0 0 0 2.07-.73v-5.29h-4.2V20.2ZM208.26 11.85h12.24v2.41h-9.67v5.65h9v2.41h-9v6.08H221v2.41h-12.74ZM77.51 50.05a4.25 4.25 0 0 0 1.78 1.54 5.37 5.37 0 0 0 2.24.5 4.63 4.63 0 0 0 1.31-.2 4 4 0 0 0 1.22-.6 3.19 3.19 0 0 0 .9-1 2.62 2.62 0 0 0 .35-1.36 2.06 2.06 0 0 0-.7-1.68 6 6 0 0 0-1.73-1q-1-.39-2.25-.75a9.13 9.13 0 0 1-2.25-1 5.57 5.57 0 0 1-1.72-1.73 5.32 5.32 0 0 1-.7-2.93 5.06 5.06 0 0 1 1.5-3.49 6.22 6.22 0 0 1 2-1.29 7.34 7.34 0 0 1 2.93-.53 10.4 10.4 0 0 1 3 .43 5.06 5.06 0 0 1 2.49 1.74l-2.09 1.91a3.42 3.42 0 0 0-1.36-1.21 4.38 4.38 0 0 0-2-.46 4.77 4.77 0 0 0-1.78.29 3 3 0 0 0-1.14.72 2.38 2.38 0 0 0-.6.95 2.83 2.83 0 0 0-.18.94 2.35 2.35 0 0 0 .7 1.84 5.37 5.37 0 0 0 1.73 1.05 20.59 20.59 0 0 0 2.25.72 9.46 9.46 0 0 1 2.24.9 5.25 5.25 0 0 1 1.73 1.55 4.52 4.52 0 0 1 .7 2.69 5.63 5.63 0 0 1-.52 2.47A5.52 5.52 0 0 1 86.11 53 6.22 6.22 0 0 1 84 54.1a8 8 0 0 1-2.57.4 9.52 9.52 0 0 1-3.43-.64 5.65 5.65 0 0 1-2.6-2ZM105 39.16a5.3 5.3 0 0 0-2-1.62 6.13 6.13 0 0 0-2.54-.56 7 7 0 0 0-2.91.6 6.67 6.67 0 0 0-2.22 1.66 7.33 7.33 0 0 0-1.44 2.44 8.82 8.82 0 0 0-.5 3 8.39 8.39 0 0 0 .48 2.84 7 7 0 0 0 1.39 2.35 6.54 6.54 0 0 0 2.22 1.61 7.27 7.27 0 0 0 3 .59 5.87 5.87 0 0 0 2.86-.67 6.21 6.21 0 0 0 2.09-1.87l2.17 1.62a7 7 0 0 1-.75.85 7.62 7.62 0 0 1-1.42 1.1 9.59 9.59 0 0 1-2.13 1 9 9 0 0 1-2.88.42 9.4 9.4 0 0 1-4.06-.86 9.77 9.77 0 0 1-5-5.39 10.06 10.06 0 0 1-.67-3.55 11.18 11.18 0 0 1 .73-4.06 9.47 9.47 0 0 1 2-3.21 9 9 0 0 1 3.12-2.11 10.43 10.43 0 0 1 4-.75 9.73 9.73 0 0 1 3.68.73 6.9 6.9 0 0 1 3 2.22ZM110.7 35.06h2.57v7.87h9.83v-7.87h2.57V54h-2.57v-8.66h-9.83V54h-2.57ZM139.24 54.5a10.24 10.24 0 0 1-4-.76 9.3 9.3 0 0 1-3.12-2.11 9.69 9.69 0 0 1-2-3.16 10.83 10.83 0 0 1 0-7.87 9.8 9.8 0 0 1 2-3.16 9.43 9.43 0 0 1 3.12-2.1 10.75 10.75 0 0 1 8 0 9.43 9.43 0 0 1 3.12 2.1 9.8 9.8 0 0 1 2 3.16 10.83 10.83 0 0 1 0 7.87 9.69 9.69 0 0 1-2 3.16 9.3 9.3 0 0 1-3.12 2.11 10.25 10.25 0 0 1-4 .76Zm0-2.41a7 7 0 0 0 5.2-2.22 7.11 7.11 0 0 0 1.45-2.4 8.7 8.7 0 0 0 0-5.87 7 7 0 0 0-3.7-4 7.53 7.53 0 0 0-5.89 0 7 7 0 0 0-3.7 4 8.7 8.7 0 0 0 0 5.87 7.11 7.11 0 0 0 1.45 2.4 7 7 0 0 0 5.19 2.22ZM161.53 54.5a10.25 10.25 0 0 1-4-.76 9.3 9.3 0 0 1-3.12-2.11 9.69 9.69 0 0 1-2-3.16 10.83 10.83 0 0 1 0-7.87 9.8 9.8 0 0 1 2-3.16 9.43 9.43 0 0 1 3.12-2.1 10.75 10.75 0 0 1 8 0 9.43 9.43 0 0 1 3.12 2.1 9.8 9.8 0 0 1 2 3.16 10.83 10.83 0 0 1 0 7.87 9.69 9.69 0 0 1-2 3.16 9.3 9.3 0 0 1-3.12 2.11 10.24 10.24 0 0 1-4 .76Zm0-2.41a7 7 0 0 0 5.19-2.22 7.11 7.11 0 0 0 1.45-2.4 8.7 8.7 0 0 0 0-5.87 7 7 0 0 0-3.7-4 7.11 7.11 0 0 0-2.94-.6 7 7 0 0 0-6.65 4.62 8.7 8.7 0 0 0 0 5.87 7.27 7.27 0 0 0 1.45 2.4 7 7 0 0 0 2.25 1.61 6.89 6.89 0 0 0 2.95.59ZM175.1 35.06h2.58v16.55h8.7V54H175.1ZM190.9 50.05a4.21 4.21 0 0 0 1.79 1.54 5.32 5.32 0 0 0 2.23.5 4.63 4.63 0 0 0 1.31-.2 4 4 0 0 0 1.22-.6 3.19 3.19 0 0 0 .9-1 2.62 2.62 0 0 0 .35-1.36 2.06 2.06 0 0 0-.7-1.68 6 6 0 0 0-1.73-1q-1-.39-2.25-.75a8.9 8.9 0 0 1-2.24-1 5.49 5.49 0 0 1-1.73-1.73 5.32 5.32 0 0 1-.7-2.93 5.06 5.06 0 0 1 1.5-3.49 6.22 6.22 0 0 1 2-1.29 7.34 7.34 0 0 1 2.93-.53 10.4 10.4 0 0 1 3 .43 5.06 5.06 0 0 1 2.49 1.74l-2.09 1.91a3.42 3.42 0 0 0-1.36-1.21 4.38 4.38 0 0 0-2-.46 4.77 4.77 0 0 0-1.78.29 3 3 0 0 0-1.14.72 2.38 2.38 0 0 0-.6.95 2.83 2.83 0 0 0-.18.94 2.38 2.38 0 0 0 .7 1.84 5.37 5.37 0 0 0 1.73 1.05 20.59 20.59 0 0 0 2.25.72 9.71 9.71 0 0 1 2.25.9 5.21 5.21 0 0 1 1.72 1.55 4.52 4.52 0 0 1 .7 2.69 5.63 5.63 0 0 1-.52 2.47A5.52 5.52 0 0 1 199.5 53a6.22 6.22 0 0 1-2.09 1.15 8 8 0 0 1-2.57.4 9.52 9.52 0 0 1-3.45-.64 5.65 5.65 0 0 1-2.6-2ZM28.13 45.26v-.06ZM56.51 12.47a30.62 30.62 0 1 0-.16 43.13 30.5 30.5 0 0 0 .16-43.13ZM56 55.27a29.92 29.92 0 1 1 .17-42.47A30 30 0 0 1 56 55.27Z" fill="currentColor"/>
<path d="M33.75 5.52A27.58 27.58 0 0 0 9.61 46.44l.32.57a.52.52 0 0 0 .67.18l.25-.12A26.56 26.56 0 0 1 19 44.49l-4.12-3 5.35 2.89h2.88l-5.91-6.11 7.87 6.31c.37 0 .74.08 1.1.14l-6.09-9.17 8.39 9.6-5.08-11.76 6.63 11-3.18-12.47 4.62 12-1.14-12.84L33 43.73l.66-12.9.91 12.92 3.23-12.52-1.53 12.85 5.43-11.7-3.83 12.34 7.41-10.52-6 11.44 9.13-9-7.84 10.14 10.55-7.24-9.52 8.6 11.64-5.23L43 49.25l.65.06 11-2.89-7.57 3h.31A22.22 22.22 0 0 0 58 46.29 27.59 27.59 0 0 0 33.75 5.52Zm-14.53 7.11c0-.11 0-.34.33-.34h2.62c.35 0 .33.23.33.34v2.17a.26.26 0 0 1-.27.26h-2.75a.26.26 0 0 1-.27-.26Zm3.3 17.14a.25.25 0 0 1-.25.25h-2.84a.25.25 0 0 1-.25-.25V17.61a.25.25 0 0 1 .25-.25h2.83a.25.25 0 0 1 .24.25V29.05Zm7.5.3-.19.05c-.52.09-1.76.23-2.09.23-2.83 0-3.14-1.8-3.14-2.41v-15.4a.25.25 0 0 1 .25-.25h2.67a.25.25 0 0 1 .25.25V26.6a1.07 1.07 0 0 0 1.06 1.07H30a.25.25 0 0 1 .25.25v1.9c.02.18-.05.18-.25.25Zm9.06-.27c-1.34.89-5.31.49-6.29.37h-.24a.26.26 0 0 1-.24-.25v-2c0-.14.11-.28.24-.25l.25.07a10.65 10.65 0 0 0 3.58.26c.57-.06 1-.44 1-1.37s-1.22-1.63-1.91-2.12c-2.67-1.84-3.16-2.36-3.16-4.06s1.17-2.73 2.79-3.21a15 15 0 0 1 4.79 0h.23a.26.26 0 0 1 .25.24v.21s-.07 1.63-.08 1.81-.16.18-.31.16l-1.47-.21c-.45-.07-2.42-.22-2.89.47a1.3 1.3 0 0 0 .38 1.7c.29.21 1.22.84 1.84 1.21a14.42 14.42 0 0 1 1.87 1.38c1.1.9 1.62 4.24-.63 5.59Zm11.31.27-.25.08a8.63 8.63 0 0 1-1.48.21 5.92 5.92 0 0 1-4-.9c-1.69-1.15-2.19-2.93-2.19-6.27s1.44-4.8 2.41-5.44a6.21 6.21 0 0 1 3.2-.72 13.82 13.82 0 0 1 2.27.28c.33.09.3.21.3.33v1.78a.25.25 0 0 1-.25.25H49.99c-.35 0-1-.12-1.64-.14a2.1 2.1 0 0 0-2 1 7.93 7.93 0 0 0-.49 2.88 11.82 11.82 0 0 0 .38 3.22c.25.77.71 1.07 1.67 1.26a5.31 5.31 0 0 0 2.09-.2l.33-.07c.13 0 .24.11.24.25v1.95c.07.18-.06.18-.18.25ZM38.92 60.14a23 23 0 0 1-4.56.58 29.26 29.26 0 0 1-16.92-5.4l-.17-.14v-.2l.35-.08a20.07 20.07 0 0 1 4-.32 34.85 34.85 0 0 1 12.68 3.25c1.42.65 2.91 1.34 4.63 1.94l.28.13c.07 0 0 .16 0 .19Z" fill="currentColor"/>
<path d="M48.16 56.66a27.58 27.58 0 0 1-5.53 2.49 37.27 37.27 0 0 1-8.3-2.95A34.15 34.15 0 0 0 21.72 53a20 20 0 0 0-5.74.57l-.28.07c-.12.05-.21.08-.41-.11l-1.78-1.76a.24.24 0 0 1 0-.34l.19-.09a22.46 22.46 0 0 1 8.3-1.46 34.28 34.28 0 0 1 12.66 3c3.39 1.46 7.06 3.2 13.44 3.35h.34a.12.12 0 0 1 0 .17Z" class="cls-1"/>
<path d="M56.32 49.09a27.68 27.68 0 0 1-5.19 5.4 20.18 20.18 0 0 1-3.06.17c-6.36-.15-10-1.89-13.4-3.34a34.11 34.11 0 0 0-12.61-3 23.27 23.27 0 0 0-9.33 1.84l-.24.09c-.22.11-.26.07-.34 0l-.93-1.26c-.15-.23-.06-.25 0-.34l.25-.14a24.24 24.24 0 0 1 9.92-2.63 34.25 34.25 0 0 1 12.75 2.37c3.45 1.28 7.2 2.82 13.56 2.63a21.6 21.6 0 0 0 8.37-2l.19-.08a.12.12 0 0 1 .17 0 .12.12 0 0 1 0 .17Z" fill="currentColor"/>
<path d="M55.44 10.1a30.62 30.62 0 1 0-.17 43.13 30.5 30.5 0 0 0 .17-43.13ZM55 52.9a29.92 29.92 0 1 1 .16-42.47A30 30 0 0 1 55 52.9Z" fill="currentColor"/>
<path d="M54 12.07a30.62 30.62 0 0 0-43.3 43.3A30.62 30.62 0 0 0 54 12.07Zm-.5 42.8a29.92 29.92 0 1 1-42.34-42.31 29.92 29.92 0 1 1 42.31 42.31Z" fill="currentColor"/>
</svg>
