<svg xmlns="http://www.w3.org/2000/svg" xml:space="preserve" id="Layer_1" x="0" y="0" style="enable-background:new 0 0 182.5 81.6" version="1.1" viewBox="0 0 182.5 81.6"><style>.st0{fill:#f5b335}.st1{fill:#0047ba}.st2{fill:#878787}</style><g id="Group_1514"><path id="Path_114" d="M117.1 13c.9-.6 1.8-.8 2.3-.4-.3-.8-1.1-1.3-2-1.1h-.2l-.1.1c-.3.1-.7.2-1 .4l-2.6 1.1V13c.4-1 1.3-1.7 2.4-1.8-2-1-3.7 1-3.9 1.8-.1.4-.1.8-.1 1.1l-.1.4c-.4.5-1 .8-1.6 1-1 .3-1.7-1.1-3.2-2.5l-2.2-2.2.3.1c.3.3.7.6 1.1.9.6.5 1.3.9 2 1.3.4-.1 1.1-1.2.5-1.9.2-.4.2-.8.1-1.2-.3.2-.5.5-.7.8-.8-.2-1.5-.9-1.6-1.8 1.2-.1 2.3.4 3.1 1.2.6.7 1.5 1 2.4.7.6-.2 1.1-1.3.9-1.7-.2.4-.4.8-.8 1-.9.4-1.9.1-2.5-.6a3.4 3.4 0 0 0-3-1.3c.1-.6.6-1 1.2-1 .9-.2 1.8.1 2.4.8-.1.5-.2 1-.2 1.5.3-.2.6-.5.7-.8.3.1.6 0 .8-.1.3-.4.6-.9.7-1.4-.2-.1-.3-.1-.5-.2l.1-.2c.2.1.4.2.6.2.2 0 .4-.2.6-.4.2-.2.3-.6.1-.9-.1-.3-1.5-.7-1.5-.7-.4-.3-.8-.5-1.2-.7-.3-.6-.7-1.1-1.3-1.3-.6-.3-1.2-.6-1.5-.8-.4-.9-1.2-1.6-2.2-1.8-.7 0-.6-.1-.9 0 .8.3 1.4 1.1 1.4 2-.7-1-1.6-1.9-2.7-2.4-.6.7-.8 1.6-.6 2.5.1.6.6 1 1.1 1.4-.6-.2-1.1-.4-1.4-1-.2-.5-.2-1.1 0-1.6-.9.2-2.3 0-2.8-1.1-.1.6 0 1.2.3 1.7.1.1.2.3.3.4-.9-.1-2.6-.3-3.4-.4.1.6 1.6 1.1 1.5 2.2-1.5-.2-2.6-.5-2.8-.9-.2.8.5 1.6 1.5 2.2-1.1.8-2.2-.6-2.6-.6.3.8.8 1.9 1.5 2.1-.9.2-1.5.2-1.7-.2 0 .7.4 1.4 1 1.8-1.4-.5-2.1.3-2.8.1.7.6 1.5 1.1 2.4 1.5-1.3.5-3 1-3.3.5.1 1.9 2.8 1.5 3.7 2.2-.4.1-1.1.2-1.8.2-1.2 0-2.4-.2-3.5-.7-5.2-3.1-8.4-2.5-10.7-1.7-1 .5-1.9 1.2-2.6 2.1h-1.2c-1.5.1-3.1-.1-4.5-.5-1.2-.4-2.1-1.1-2.1-2.2 0-.8.4-1.6 1.2-1.9.4-.2.8-.3 1.2-.3 2.3-.1 4.6.1 6.8.7 2.4.9 5 1.3 7.5 1.4 3.2 0 4.9-.9 5.8-1.9.6-.7 1-1.6 1-2.6 0-.9-.3-1.8-1-2.4-.7-.8-2.1-1.4-4.6-1.4-1.8 0-3.6.2-5.3.7-1.1 0-2.1-.7-2.6-1.8-.5 1.2 0 2.7 1.3 3.2l.5.2c-.5 0-1-.3-1.3-.7.1 2.9 3.5 2.5 4.6 2.2.5-.1.8-.3 1.2-.5.6-.1 1.1-.4 1.6-.6.7-.4 1.4-.7 2.2-.8.6-.1 1.2.1 1.7.5.4.4.6.8.5 1.4 0 .7-.3 1.4-.7 1.9-.7.8-2 1.5-4.6 1.5-2.5-.1-5-.6-7.3-1.5-2.2-.6-4.6-.9-6.9-.8-2.3 0-3.5.8-4.1 1.6-.4.5-.7 1.2-.7 1.9-.1.9.3 1.8 1 2.5 1 1.1 3.2 2.1 7.7 2.2.1 0 .2.1.2.2v.1c-.3.7-.7 1.3-1.2 1.9-.8 1.2-2.1 2-3.5 2.1-1 0-1.9 0-2.5-.1-.9-.2-1.7-.5-2.4-1 0 0-.1.2.4.9 0 .1.1.1.1.2-.3.2-.7.3-1.1.3h-.1c-.1 0-.2.1-.2.2v.1l.1.1c.1.1.3.3.2.4S65 20 65 20h-.3c-.1 0-.2.1-.2.2v.1l.2.2.1.1s.2.3-.1.4h-.4c-.1 0-.2.1-.2.2v.1l.2.2c.2.3.2.7 0 1l-.1.5-.5.9v.1c0 .1.1.2.2.2h1c0 .5.1 1.1.3 1.5.4 1 1.3 1.7 2.3 2 .1 0 .1-.1.2-.1v-.2l.1-.4.9.2.8.1c.1 0 .2-.1.2-.1v-.6c1 .2 1.7.4 1.6 1 .8-1.3-.6-2-1.1-2.1-.2-.1-.5-.3-.8-.5-.8-.5-1.6-1.1-1.6-1.4s.2-.7.7-1c.6-.3 1.3-.5 2-.5 1 0 2.1.2 3.1.4.8.1 1.6.3 2.3.5 0 0 1.5.8 3.1 1.8 1.4.8 2.7 1.9 3.8 3.1h.3l.1-.2.2-.5c.3.2.7.5 1.1.6.7.3 1.4.5 2.2.5.1 0 .1-.1.1-.2V28l-.4-.9h.6c.8.2 1.4.4 1.3.9.3-.4.3-.8.1-1.2v-.1c-.2-.3-.5-.5-.8-.7.7 0 1.2.1 1.4.5.2-1.6-2.3-1.8-3.1-1.8-.4 0-.7.1-1 .1-.4-.1-.7-.2-1.1-.4-.7-.3-1.2-.7-1.2-.9 0-.2.1-.5.5-.6.7-.2 1.5-.3 2.2-.2.9.1 1.9-.1 2.8-.4.4-.2.7-.5.9-.9 0-.1 0-.1.1-.2.1-.3.5-.7 1.6-.4.7.2 1.3.2 1.3.6v.4c0 .1 0 .3.1.3 0 0 1 .6 1.5.1-.2.2-.4.4-.6.5-.7.2 1.6 1 3 .3l-1.2 1.1s3.2.5 4-.3c.9.7 1.9 1.3 2.9 1.9.7.3.6.4.9.2s.2-.6 1-.2c.2.2.5.4.8.7.8.7 1.7 1.2 2.7 1.5h.1c.1 0 .1 0 .2-.1l.1-.4.1-.2c.1 0 .1.1.2.1h.1c.5.3 1.1.4 1.6.6 1.2.4 2.5.3 3.6-.3.1 0 .1-.1.1-.1v-.1l-.2-.3-.2-.2-.1-.1.2-.1h.1l.7-.3.5-.2h.1l.1-.1c0-.1 0-.1-.1-.1l-.1-.1-1.3-.5c1.1-.5 1.9-.7 2.3-.2-.3-2.2-2.8-1.6-3.6-1.3-.4.2-.7.4-1 .6-.5.2-1.1.4-1.7.4-1.1-.2-2.1-.8-2.8-1.7-.6-.6-1.1-1.3-1.6-2l2.1.2 1.5.2c.5.2 1.1.2 1.6.1.6-.1-.8-.3-.1-.7.4-.2 1.3 0 1.5 0 .3 0-.3-.3-.2-.6s1.3-.4 1.7-.6-.8-.6.2-1.4c.3-.2.6-.3.9-.5 1.6-.6 3.4-.9 5.2-.8.1 0 .2-.1.2-.2s0-.1-.1-.1l-.5-.3-.9-.7c1.2-.6 2-.9 2.5-.3-.6-2.5-1.9-2.7-3-2.5zm-7.6-8.3c.5-.1.7-.3.7-.6.2.1.2.3.2.5-.1.2-.3.3-.7.4 0 .4-.3.7-1 .6-.5-.1-.5-.4-.5-.5-.2-.1-.4-.2-.5-.4.6.1 1.2.1 1.8 0z" class="st0"/><g id="Group_1511" transform="translate(0 33.173)"><path id="Path_115" d="M6.1 16.4c-2.5 0-4.5-.5-6.1-2.1l2.5-2.5c1 .8 2.3 1.2 3.6 1.1 1.6 0 2.3-.5 2.3-1.5 0-.3-.1-.7-.3-1-.3-.3-.7-.4-1.1-.4l-2-.3c-1.1 0-2.2-.5-3.1-1.3C1.1 7.5.7 6.3.8 5.1.8 2.2 3 0 6.7 0c2-.2 4 .5 5.4 1.9L9.6 4.4c-.8-.7-2-1.1-3.1-1-1.4 0-2 .8-2 1.5 0 .3.1.6.3.7.4.4.8.6 1.2.6l2 .3c1.2.1 2.3.6 3.2 1.3.9 1 1.3 2.3 1.2 3.6 0 3.3-2.9 5-6.3 5z" class="st1"/><path id="Path_116" d="M21.7 3.7v12.6h-4V3.7h-4V.1h11.9v3.6h-3.9z" class="st1"/><path id="Path_117" d="m35.1 16.3-.7-2.4h-5l-.8 2.4h-4.2L30.3.1h3.1l5.9 16.2h-4.2zM32 6.3l-1.5 4.3h2.8L32 6.3z" class="st1"/><path id="Path_118" d="M44.7 3.7v2.8h6V10h-6v6.3h-4V.1h11v3.6h-7z" class="st1"/><path id="Path_119" d="M57.6 3.7v2.8h6V10h-6v6.3h-4V.1h11v3.6h-7z" class="st1"/><path id="Path_120" d="M76.7 14.6c-1.2 1.2-2.8 1.9-4.5 1.8-1.7.1-3.3-.6-4.5-1.8-1.7-1.7-1.6-4-1.6-6.4s-.1-4.7 1.6-6.4C68.9.6 70.5-.1 72.2 0c1.7-.1 3.3.6 4.5 1.8 1.7 1.7 1.6 4 1.6 6.4 0 2.5.1 4.7-1.6 6.4zM73.8 4.2c-.4-.5-1-.7-1.6-.7-.6 0-1.2.2-1.6.7-.4.5-.6 1-.6 4s.2 3.5.6 3.9c.4.5 1 .7 1.6.7.6 0 1.2-.3 1.6-.7.4-.5.6-1 .6-3.9s-.3-3.5-.6-4z" class="st1"/><path id="Path_121" d="m88.8 16.3-2.9-6h-1.4v6h-4V.1H87c2.8-.2 5.3 1.9 5.5 4.8v.4c0 1.8-1 3.4-2.6 4.2l3.5 6.8h-4.6zM86.9 3.7h-2.3V7h2.2c.9 0 1.7-.6 1.7-1.6v-.1c0-.9-.7-1.6-1.6-1.6z" class="st1"/><path id="Path_122" d="M105.4 14.7c-1.2 1.1-2.8 1.7-4.4 1.6h-6V.1h6c1.6-.1 3.2.5 4.4 1.6 1.9 1.9 1.7 3.9 1.7 6.5s.2 4.6-1.7 6.5zm-2.7-10.1c-.4-.6-1.2-1-1.9-.9H99v9.1h1.7c.8.1 1.5-.3 1.9-.9.3-.5.4-.9.4-3.6.1-2.8 0-3.2-.3-3.7z" class="st1"/><path id="Path_123" d="M123.1 16.3V9.9h-4.2v6.4h-4V.1h4v6.2h4.2V.1h4v16.2h-4z" class="st1"/><path id="Path_124" d="M140.1 14.6c-1.2 1.2-2.8 1.9-4.5 1.8-1.7.1-3.3-.6-4.5-1.8-1.7-1.7-1.6-4-1.6-6.4s-.1-4.7 1.6-6.4c1.2-1.2 2.8-1.9 4.5-1.8 1.7-.1 3.3.6 4.5 1.8 1.7 1.7 1.6 4 1.6 6.4 0 2.5.1 4.7-1.6 6.4zm-3-10.4c-.4-.5-1-.7-1.6-.7-.6 0-1.2.2-1.6.7-.4.5-.6 1-.6 4s.2 3.5.6 3.9c.4.5 1 .7 1.6.7.6 0 1.2-.3 1.6-.7.4-.5.6-1 .6-3.9s-.2-3.5-.6-4z" class="st1"/><path id="Path_125" d="M149.9 16.4c-3.4 0-6.1-2.3-6.1-5.8V.1h4v10.4c-.2 1.1.6 2.2 1.8 2.3h.4c1.2 0 2.2-.9 2.2-2V.1h4v10.5c-.2 3.6-3 5.8-6.3 5.8z" class="st1"/><path id="Path_126" d="M163.2 16.4c-2.5 0-4.5-.5-6.1-2.1l2.5-2.5c1 .8 2.3 1.2 3.6 1.1 1.6 0 2.3-.5 2.3-1.5 0-.3-.1-.7-.3-1-.3-.3-.7-.4-1.1-.4l-2-.3c-1.2-.1-2.4-.6-3.2-1.4-.8-.9-1.2-2.1-1.1-3.2 0-3 2.2-5.1 5.9-5.1 2-.2 4 .5 5.4 1.9l-2.5 2.5c-.8-.7-2-1.1-3.1-1-1.4 0-2 .8-2 1.5 0 .3.1.6.3.7.3.3.7.5 1.1.5l2 .3c1.2.1 2.3.6 3.2 1.3.9 1 1.3 2.3 1.2 3.6.1 3.4-2.7 5.1-6.1 5.1z" class="st1"/><path id="Path_127" d="M171.5 16.3V.1h11v3.6h-7v2.7h6V10h-6v2.8h7v3.6l-11-.1z" class="st1"/></g><g id="Group_1512" transform="translate(33.214 54.935)"><path id="Path_128" d="M0 11.8V.1h1.8v11.7H0z" class="st0"/><path id="Path_129" d="M11.5 11.8 6.1 3.5v8.3H4.3V.1h1.6l5.4 8.2V.1h1.8v11.7h-1.6z" class="st0"/><path id="Path_130" d="M19.8 1.7v10.1H18V1.7h-3.2V.1H23v1.6h-3.2z" class="st0"/><path id="Path_131" d="M24.8 11.8V.1h7.5v1.6h-5.7v3.4h4.9v1.6h-4.9v3.5h5.7v1.6h-7.5z" class="st0"/><path id="Path_132" d="m40.6 11.8-2.5-4.9h-2.2v4.9h-1.8V.1h4.5c1.8-.2 3.5 1.2 3.6 3.1v.4c.2 1.4-.8 2.7-2.2 3l2.7 5.2h-2.1zm-2-10.1H36v3.7h2.6c1 .1 1.9-.6 2-1.6v-.3c0-1-.8-1.8-1.8-1.9-.1.1-.1.1-.2.1z" class="st0"/><path id="Path_133" d="m51.7 11.8-5.4-8.3v8.3h-1.8V.1h1.6l5.4 8.2V.1h1.8v11.7h-1.6z" class="st0"/><path id="Path_134" d="m63 11.8-.8-2.3h-4.6l-.8 2.3h-1.9L59.2.1h1.4l4.3 11.7H63zm-3.1-9.1-1.8 5.2h3.6l-1.8-5.2z" class="st0"/><path id="Path_135" d="M69.2 1.7v10.1h-1.8V1.7h-3.2V.1h8.2v1.6h-3.2z" class="st0"/><path id="Path_136" d="M74.2 11.8V.1H76v11.7h-1.8z" class="st0"/><path id="Path_137" d="M85.4 10.6c-.8.8-1.9 1.3-3.1 1.2-1.2 0-2.3-.4-3.1-1.2-1.1-1.1-1.1-2.5-1.1-4.7s0-3.6 1.1-4.7c.9-.8 2-1.2 3.1-1.2 1.2 0 2.3.4 3.1 1.2 1.1 1.1 1.1 2.5 1.1 4.7s.1 3.6-1.1 4.7zm-1.3-8.3c-.5-.5-1.1-.7-1.7-.7-.7 0-1.3.3-1.7.7-.6.6-.7 1.3-.7 3.6s.1 3 .7 3.6c.5.5 1.1.7 1.7.7.7 0 1.3-.3 1.7-.7.6-.6.7-1.3.7-3.6s-.1-3-.7-3.6z" class="st0"/><path id="Path_138" d="m95.9 11.8-5.4-8.3v8.3h-1.8V.1h1.6l5.4 8.2V.1h1.8v11.7h-1.6z" class="st0"/><path id="Path_139" d="m107.3 11.8-.8-2.3h-4.6l-.8 2.3h-1.9L103.5.1h1.4l4.3 11.7h-1.9zm-3.1-9.1-1.8 5.2h3.6l-1.8-5.2z" class="st0"/><path id="Path_140" d="M110.7 11.8V.1h1.8v10.1h5.7v1.6h-7.5z" class="st0"/></g><g id="Group_1513" transform="translate(41.882 70.98)"><path id="Path_141" d="M0 8V0h5v.8H.9v2.8h3.5v.8H.9v2.9H5V8H0z" class="st2"/><path id="Path_142" d="M9.7 8 8.4 5.9 7.1 8h-1L8 5.2 6.2 2.5h1l1.3 2.1 1.2-2.1h1L8.8 5.2 10.7 8h-1z" class="st2"/><path id="Path_143" d="M15.7 7.6c-.4.3-.9.5-1.4.5-.6 0-1.2-.2-1.6-.7v3.1H12v-8h.8v.6c.4-.5.9-.8 1.6-.7.5 0 1 .2 1.4.5.5.7.8 1.5.7 2.3-.1.9-.3 1.7-.8 2.4zm-1.5-4.4c-1.2 0-1.4 1-1.4 2.1s.2 2.1 1.4 2.1 1.4-1 1.4-2.1-.2-2.1-1.4-2.1z" class="st2"/><path id="Path_144" d="M19.3 8c-.7.1-1.4-.5-1.4-1.2V0h.8v6.5c0 .5.2.8.7.8h.4V8h-.5z" class="st2"/><path id="Path_145" d="M24.6 7.5c-.9.8-2.3.8-3.2 0-.5-.6-.8-1.4-.7-2.2-.1-.8.2-1.6.7-2.2.9-.8 2.3-.8 3.2 0 .9 1.3.9 3.1 0 4.4zM24 3.6c-.3-.3-.6-.4-1-.4s-.7.1-1 .4c-.4.5-.5 1.1-.5 1.7-.1.6.1 1.2.5 1.7.6.6 1.5.6 2 0 .6-1.1.6-2.4 0-3.4z" class="st2"/><path id="Path_146" d="M29.8 3.6c-.2-.3-.6-.4-1-.4-.8 0-1.3.6-1.3 1.4V8h-.8V2.5h.8v.7c.4-.5.9-.8 1.6-.7.5 0 1 .2 1.3.5l-.6.6z" class="st2"/><path id="Path_147" d="M31.9 5.5c0 1.2.6 1.9 1.6 1.9.6 0 1.1-.2 1.5-.6l.6.5c-.5.6-1.3.9-2 .9-1.5 0-2.4-.9-2.4-2.8 0-1.8.9-2.8 2.3-2.8s2.3 1 2.3 2.7v.4l-3.9-.2zm2.7-1.6c-.3-.7-1.2-1-1.9-.7-.3.1-.6.4-.7.7-.1.3-.2.6-.2.9h2.9c.1-.2 0-.6-.1-.9z" class="st2"/><path id="Path_148" d="M41.5 9.4c-.1.2-.2.5-.4.6-.3.3-.7.4-1.1.4h-.4v-.7h.2c.6 0 .7-.2.9-.7l.4-1.1-2-5.4h.9l1.5 4.4L43 2.5h1l-2.5 6.9z" class="st2"/><path id="Path_149" d="M48.5 7.5c-.9.8-2.3.8-3.2 0-.5-.6-.8-1.4-.7-2.2-.1-.8.2-1.6.7-2.2.9-.8 2.3-.8 3.2 0 .9 1.3.9 3.1 0 4.4zM48 3.6c-.3-.3-.6-.4-1-.4s-.7.1-1 .4c-.4.5-.5 1.1-.5 1.7-.1.6.1 1.2.5 1.7.6.6 1.5.6 2 0 .5-1.1.5-2.4 0-3.4z" class="st2"/><path id="Path_150" d="M54.2 8v-.6c-.4.4-1 .7-1.6.7-.5 0-1-.2-1.4-.5-.4-.4-.6-1-.6-1.6V2.5h.8v3.4c0 1 .5 1.5 1.4 1.5.7 0 1.4-.5 1.4-1.2V2.5h.8V8h-.8z" class="st2"/><path id="Path_151" d="M59.9 3.6c-.2-.3-.6-.4-1-.4-.8 0-1.3.6-1.3 1.4V8h-.8V2.5h.8v.7c.4-.5.9-.8 1.6-.7.5 0 1 .2 1.3.5l-.6.6z" class="st2"/><path id="Path_152" d="M64.5 8V0h5v.8h-4.1v2.8h3.5v.8h-3.5v2.9h4.1V8h-5z" class="st2"/><path id="Path_153" d="M74.4 8V4.6c.1-.8-.5-1.4-1.3-1.5s-1.4.5-1.5 1.3V8h-.8V2.5h.8v.6c.4-.5 1-.7 1.6-.7.5 0 1 .2 1.4.5.4.4.6 1 .6 1.5V8h-.8z" class="st2"/><path id="Path_154" d="M78.8 10.6c-.7 0-1.4-.2-1.9-.7l.5-.5c.3.4.8.6 1.3.6 1.1 0 1.5-.7 1.5-1.7v-1c-.4.5-.9.8-1.6.7-.5 0-1-.2-1.3-.5-.9-1.4-.9-3.2 0-4.6.4-.3.9-.5 1.4-.5.6 0 1.2.2 1.6.7v-.6h.7v5.7c.1 1.2-.8 2.3-2 2.4h-.2zm.1-7.4c-1.2 0-1.4 1-1.4 2.1s.2 2.1 1.4 2.1 1.4-1 1.4-2.1-.2-2.1-1.4-2.1z" class="st2"/><path id="Path_155" d="M84.2 8c-.7.1-1.4-.5-1.4-1.2V0h.8v6.5c0 .5.2.8.7.8h.4V8h-.5z" class="st2"/><path id="Path_156" d="M86 .9V0h.9v.9H86zM86 8V2.5h.8V8H86z" class="st2"/><path id="Path_157" d="M90.4 8.1c-.8.1-1.7-.2-2.3-.8l.5-.5c.5.4 1.1.7 1.7.6.9 0 1.5-.3 1.5-1 0-.5-.3-.7-.9-.8l-.9-.1c-1.1 0-1.6-.5-1.6-1.5s.9-1.6 2-1.6c.7 0 1.4.2 2 .6l-.5.5c-.4-.3-.9-.5-1.5-.4-.8 0-1.2.4-1.2.9s.3.7 1 .8l.8.1c1 .1 1.6.5 1.6 1.5 0 1.1-.9 1.7-2.2 1.7z" class="st2"/><path id="Path_158" d="M97.5 8V4.6c.1-.7-.4-1.3-1.1-1.4h-.3c-.7-.1-1.3.5-1.4 1.2V8h-.8V0h.8v3.1c.4-.4 1-.7 1.6-.7 1-.1 1.9.7 2 1.7V8h-.8z" class="st2"/></g></g></svg>
