<svg xmlns="http://www.w3.org/2000/svg" xml:space="preserve" viewBox="0 0 378.14 103.96"><g id="Layer_1"><path fill="#ff3228" d="M0 0h103.76v103.76H0z"/><path fill="#fff" d="M82.51 55.35c-1.48 6.81-6.86 8.73-9.14 9.25-.96.22-1.93.33-2.9.33-3.13 0-6.09-1.18-8.16-3.23l25.82-14.92c-1.21-3.1-2.83-6.1-5.36-8.45-4.49-4.16-11.02-6.06-17.03-4.64-3.13.74-6.08 2.34-8.49 4.46-2.07 1.82-3.78 4.06-4.93 6.57-.21.46-.41.94-.58 1.42-.26.72-.47 1.46-.63 2.22V34.79h-8.06v19.95c0 5.88-4.23 10.32-9.84 10.32-5.65 0-9.91-4.44-9.91-10.32V34.79h-8.06v19.95c0 10.49 7.56 18.11 17.97 18.11 9.88 0 17.16-6.91 17.83-16.63.59 3.19 1.89 6.32 3.87 9 3.52 4.78 9.34 7.63 15.57 7.63 1.55 0 3.12-.18 4.65-.52 7.75-1.75 13.53-7.67 15.16-15.48l-7.78-1.5zm-23.65-.33c-.45-2.22-.34-4.35.32-6.18.98-2.69 3.05-4.93 5.54-6.31 4.25-2.36 9.92-1.82 13.16 2.06L58.96 55.52l-.1-.5z"/>
  <path fill="currentColor" d="M126.95 34.58V14.15H134v20.43c0 3.71 2.67 6.48 6.19 6.48 3.52 0 6.14-2.76 6.14-6.48V14.15h7.05v20.43c0 7.67-5.62 13.33-13.19 13.33-7.62 0-13.24-5.66-13.24-13.33M180.9 34.25v13.24h-6.71v-12.1c0-3.24-1.76-5.1-4.52-5.1-1.86 0-3.71 1.05-4.67 2.67v14.52h-6.71V24.1H165v2.76c1.29-2 3.76-3.24 6.38-3.24 5.91.01 9.52 4.06 9.52 10.63M192.33 47.49h-6.71V24.1h6.71v23.39zm.72-30.67c0 2.24-1.86 4.09-4.09 4.09s-4.1-1.86-4.1-4.09c0-2.19 1.86-4.05 4.1-4.05s4.09 1.86 4.09 4.05M210.53 47.49h-5.72L195.1 24.1h7.28l5.29 14.24 5.19-14.24h7.33zM237 33.1c-.29-2.33-2.43-4.05-4.91-4.05-2.81 0-4.67 1.52-5.29 4.05H237zm6.53 4.29h-16.81c.62 3.19 2.81 4.86 6 4.86 2.09 0 4.29-.95 5.1-2.38l5.24 3.19c-1.71 3.09-5.62 4.9-10.48 4.9-6.86 0-12.29-5.33-12.29-12.29 0-6.81 5.33-12.05 12.14-12.05 6.33 0 11.29 4.9 11.29 11.14 0 .82-.05 1.72-.19 2.63M262.67 24.06l-.38 6.29c-.9-.33-2.05-.52-3-.52-1.52 0-3.95 1.24-5.1 3.52v14.14h-6.71V24.1h6.71v2.76c1.14-2 3.67-3.24 5.62-3.24 1.19.01 2.15.15 2.86.44M263.34 45.01l2-4.67c2.19 1.62 5.05 2.48 7.9 2.48 2.1 0 3.43-.81 3.43-1.9-.05-3.57-12.62-.9-12.71-9.52-.05-4.38 3.86-7.76 9.38-7.76 3.29 0 6.57.81 8.91 2.67l-1.91 4.86c-1.81-1.38-4.76-2.43-7.29-2.43-1.71 0-2.86.81-2.86 1.86.05 3.38 12.71 1.52 12.86 9.91 0 4.33-3.81 7.48-9.24 7.48-3.99-.03-7.66-.98-10.47-2.98M293.39 47.49h-6.71V24.1h6.71v23.39zm.71-30.67c0 2.24-1.86 4.09-4.09 4.09-2.24 0-4.1-1.86-4.1-4.09 0-2.19 1.86-4.05 4.1-4.05 2.24 0 4.09 1.86 4.09 4.05M147.48 55.98v6.76H134.1v6h11.91v6.76H134.1v7.05h13.38v6.76h-20.42V55.98zM173.77 65.93v23.38h-6.71v-2.76c-1.33 2-3.81 3.24-6.38 3.24-5.91 0-9.52-4.05-9.52-10.67V65.93h6.71v12.1c0 3.24 1.76 5.05 4.52 5.05 1.81 0 3.67-1 4.67-2.62V65.93h6.71zM193.68 65.88l-.38 6.29c-.9-.33-2.05-.52-3-.52-1.52 0-3.95 1.24-5.1 3.52v14.14h-6.71V65.93h6.71v2.76c1.14-2 3.67-3.24 5.62-3.24 1.19 0 2.14.14 2.86.43M200.78 77.64c0 3.24 2.38 5.71 5.57 5.71 3.14 0 5.57-2.48 5.57-5.71 0-3.33-2.43-5.76-5.57-5.76-3.19 0-5.57 2.43-5.57 5.76m17.71 0c0 6.95-5.29 12.14-12.14 12.14-6.9 0-12.14-5.19-12.14-12.14s5.24-12.19 12.14-12.19c6.85 0 12.14 5.24 12.14 12.19M235.87 65.45c-2.95 0-5.76 1.33-6.91 3.24v-2.76h-6.71v31.1h6.71V86.55c1.14 1.9 3.95 3.24 6.91 3.24 6.1 0 10.86-5.43 10.86-12.19 0-6.77-4.76-12.15-10.86-12.15zm-1.52 17.91c-3.19 0-5.57-2.48-5.57-5.71 0-3.33 2.38-5.76 5.57-5.76 3.14 0 5.57 2.43 5.57 5.76 0 3.23-2.43 5.71-5.57 5.71zM314.96 14.15v12.71c-1.14-1.9-4-3.24-6.9-3.24-6.1 0-10.91 5.38-10.91 12.14 0 6.76 4.81 12.19 10.91 12.19 2.95 0 5.76-1.33 6.9-3.24v2.76h6.71V14.15h-6.71zm-5.43 27.38c-3.19 0-5.57-2.48-5.57-5.71 0-3.33 2.38-5.76 5.57-5.76 3.14 0 5.57 2.43 5.57 5.76 0 3.24-2.43 5.71-5.57 5.71zM342.96 24.1v2.76c-1.14-1.9-4-3.24-6.9-3.24-6.1 0-10.91 5.38-10.91 12.14 0 6.76 4.81 12.19 10.91 12.19 2.95 0 5.76-1.33 6.9-3.24v2.76h6.71V24.1h-6.71zm-5.42 17.43c-3.19 0-5.57-2.48-5.57-5.71 0-3.33 2.38-5.76 5.57-5.76 3.14 0 5.57 2.43 5.57 5.76 0 3.24-2.43 5.71-5.57 5.71zM371.2 14.15v12.71c-1.14-1.9-4-3.24-6.9-3.24-6.1 0-10.91 5.38-10.91 12.14 0 6.76 4.81 12.19 10.91 12.19 2.95 0 5.76-1.33 6.9-3.24v2.76h6.71V14.15h-6.71zm-5.43 27.36c-3.19 0-5.57-2.48-5.57-5.71 0-3.33 2.38-5.76 5.57-5.76 3.14 0 5.57 2.43 5.57 5.76.01 3.23-2.42 5.71-5.57 5.71zM293.02 65.93v2.76c-1.14-1.9-4-3.24-6.9-3.24-6.1 0-10.91 5.38-10.91 12.14 0 6.76 4.81 12.19 10.91 12.19 2.95 0 5.76-1.33 6.9-3.24v2.76h6.71V65.93h-6.71zm-5.43 17.43c-3.19 0-5.57-2.48-5.57-5.71 0-3.33 2.38-5.76 5.57-5.76 3.14 0 5.57 2.43 5.57 5.76 0 3.23-2.43 5.71-5.57 5.71zM267.67 79.42c-.7 2.88-3.38 4.86-6.39 4.86-1.75 0-3.29-.67-4.41-1.79l10.65-6.15v.01l5.02-2.91c-1.61-4.78-5.96-8.03-11.26-8.03-6.79 0-11.94 5.25-11.94 12.23s5.15 12.18 11.94 12.18c5.76 0 10.64-3.75 11.87-9.21l-5.48-1.19zm-12.73-1.79c0-3.87 2.71-6.7 6.35-6.7 1.51 0 2.88.51 3.95 1.38l-10.29 5.65c0-.1-.01-.21-.01-.33z" class="st2"/></g></svg>
