<svg fill="none" xmlns="http://www.w3.org/2000/svg" viewBox="0 0 134 68"><path d="M84.28.21h3.7l5.69 11.56 2.79-5.78L93.67.21h3.92l5.69 11.56L108.92.21h3.43l-7.67 16.29h-2.77L98.4 9.68l-3.2 6.82h-2.74L84.28.21Z" fill="#25D9C1"/><path d="M129.22 9.7s1.04-9.7-9.21-9.7-9.32 9.09-9.32 9.7c0 .61.82 7.51 9.12 7.51 8.3 0 9.41-6.69 9.41-6.69h-3.36s-.29 3.83-6.01 3.83-5.51-4.65-5.51-4.65h14.89-.01Zm-9.21-6.73c4.88 0 5.67 4.04 5.67 4.04h-11.34s.79-4.04 5.67-4.04ZM100.21 22.54v1.79a9.4 9.4 0 0 0-6.2-2.3c-5.1 0-9.24 3.99-9.24 8.91s4.14 8.91 9.24 8.91a9.4 9.4 0 0 0 6.2-2.3v1.63h3.04V22.54h-3.04Zm-6.2 14.34c-3.27 0-5.92-2.59-5.92-5.79s2.65-5.79 5.92-5.79 5.92 2.59 5.92 5.79-2.65 5.79-5.92 5.79ZM133.09 31.9s1.04-9.7-9.21-9.7-9.32 9.09-9.32 9.7c0 .61.82 7.51 9.12 7.51 8.3 0 9.41-6.69 9.41-6.69h-3.36s-.29 3.83-6.01 3.83-5.51-4.65-5.51-4.65h14.89-.01Zm-9.22-6.73c4.88 0 5.67 4.04 5.67 4.04H118.2s.79-4.04 5.67-4.04Z" fill="#25D9C1"/><path d="M108.07 29.77c0-4.29 7.3-4.59 7.3-4.59v-2.97c-5.58 0-7.3 2.06-7.3 2.06v-1.72h-3.04v16.64h3.04v-9.42ZM122.41 44.77c-2.39 0-4.56.87-6.2 2.31v-1.79h-3.04V67.2h3.04v-6.91a9.397 9.397 0 0 0 6.2 2.3c5.11 0 9.24-3.99 9.24-8.91s-4.14-8.91-9.24-8.91Zm0 14.86c-3.33 0-6.03-2.66-6.03-5.95 0-1.56.61-2.97 1.6-4.03a6.035 6.035 0 0 1 4.43-1.91c3.33 0 6.03 2.66 6.03 5.95s-2.7 5.95-6.03 5.95v-.01ZM94.76 45.29v3.04h-3.49V61.4h-3.04V48.33h-3.58v-3.04h3.58v-4.41h3.04v4.41h3.49Z" fill="#25D9C1"/><path d="M110.04 47.36c-1.69-1.73-4.11-2.81-6.79-2.81-5.1 0-9.24 3.91-9.24 8.73s4.14 8.73 9.24 8.73c5.1 0 9.24-3.91 9.24-8.73 0-2.28-.93-4.36-2.45-5.92Zm-6.79 11.67c-3.27 0-5.92-2.59-5.92-5.79s2.65-5.79 5.92-5.79 5.92 2.59 5.92 5.79-2.65 5.79-5.92 5.79Z" fill="#25D9C1"/><path d="M15.26.21H.01L28.14 61.4l12.88-29.63L54.19 61.4 82.17.21H67.14L54.19 28.12 41.09.21 28.21 28.12 15.26.21Z" fill="#fff"/><path d="m43.14 36.55 5.32-12.15 8.59 17.75 1.64-3.65 3.16 6.15-7.66 16.75-11.05-24.85Z" fill="#25D9C1"/></svg>
