<svg viewBox="0 0 97 32" fill="none" xmlns="http://www.w3.org/2000/svg">
<g clip-path="url(#clip0_2272_188)">
<path d="M10.4214 23.6293C10.1148 24.3262 9.82013 24.9991 9.50156 25.7239C8.58569 25.2659 7.68972 24.8438 6.82162 24.374C5.22481 23.5059 3.72357 22.4984 2.44134 21.1963C1.36617 20.1052 0.514009 18.8787 0.163585 17.3575C-0.262497 15.5178 0.17155 13.8493 1.19893 12.3122C2.20241 10.811 3.55632 9.68008 5.04163 8.69252C7.43885 7.09969 10.063 5.97276 12.7669 5.02104C16.2472 3.79456 19.8152 2.88665 23.4428 2.22164C25.6967 1.8075 27.9625 1.44115 30.2363 1.13055C32.1716 0.867732 34.1188 0.692521 36.066 0.517309C40.6653 0.103173 45.2766 -0.0600926 49.8918 0.0195491C52.8027 0.0713161 55.7136 0.158922 58.6126 0.377936C61.7305 0.608897 64.8525 0.935428 67.9505 1.36151C73.5055 2.12209 78.9769 3.28884 84.2651 5.20024C85.185 5.53075 86.0889 5.90905 87.0446 6.27938C86.8973 6.61786 86.7699 6.92049 86.6385 7.21915C86.507 7.52179 86.3597 7.82045 86.2442 8.13105C86.1646 8.33812 86.2681 8.44165 86.073 8.35404C83.5603 7.26694 80.7609 6.35902 78.1168 5.66614C75.2855 4.92547 72.4264 4.31223 69.5314 3.89411C67.0227 3.52776 64.5061 3.18132 61.9854 2.92647C59.6161 2.68754 57.2348 2.53622 54.8535 2.43667C52.1815 2.32916 49.5016 2.25748 46.8256 2.28934C43.9147 2.32517 41.0038 2.44065 38.1049 2.63179C35.5643 2.79904 33.0277 3.05788 30.4991 3.38042C25.0237 4.07729 19.62 5.12458 14.3716 6.86873C11.6997 7.75673 9.09937 8.81597 6.70216 10.3172C5.50754 11.0658 4.39255 11.914 3.49659 13.0131C2.8714 13.7776 2.40948 14.6218 2.29798 15.6253C2.20639 16.4297 2.40151 17.1704 2.76787 17.8752C3.43686 19.1614 4.48414 20.1012 5.63098 20.9454C6.99285 21.9489 8.47817 22.7333 10.0153 23.4302C10.1467 23.4899 10.2741 23.5536 10.4294 23.6333L10.4214 23.6293Z" fill="currentColor"/>
<path d="M86.1247 8.36997C86.4313 7.6731 86.726 7.00013 87.0445 6.27539C87.9604 6.73333 88.8564 7.15543 89.7245 7.62532C91.3213 8.49341 92.8225 9.50088 94.1048 10.803C95.1799 11.8941 96.0321 13.1206 96.3825 14.6417C96.8126 16.4815 96.3745 18.15 95.3472 19.687C94.3437 21.1883 92.9898 22.3192 91.5045 23.3067C89.1072 24.8996 86.483 26.0265 83.7792 26.9782C80.2989 28.2047 76.7309 29.1126 73.1033 29.7776C70.8494 30.1918 68.5836 30.5581 66.3098 30.8687C64.3745 31.1315 62.4273 31.3067 60.4801 31.482C55.8808 31.8921 51.2695 32.0594 46.6543 31.9797C43.7434 31.928 40.8325 31.8403 37.9335 31.6213C34.8156 31.3904 31.6936 31.0638 28.5955 30.6378C23.0405 29.8772 17.5692 28.7104 12.281 26.799C11.3611 26.4685 10.4572 26.0902 9.50146 25.7199C9.6488 25.3814 9.77623 25.0788 9.90764 24.7801C10.039 24.4775 10.1864 24.1788 10.3019 23.8682C10.3815 23.6612 10.1466 23.4899 10.6762 23.7249C13.1889 24.812 15.7892 25.6402 18.4333 26.3331C21.2645 27.0738 24.1237 27.687 27.0186 28.1052C29.5273 28.4715 32.044 28.8179 34.5647 29.0728C36.934 29.3117 39.3153 29.463 41.6966 29.5626C44.3686 29.6701 47.0485 29.7418 49.7245 29.706C52.6354 29.6701 55.5463 29.5546 58.4452 29.3635C60.9858 29.1962 63.5264 28.9374 66.051 28.6149C71.5264 27.922 76.93 26.8707 82.1784 25.1266C84.8504 24.2386 87.4507 23.1793 89.8479 21.6781C91.0425 20.9294 92.1575 20.0813 93.0495 18.9822C93.6747 18.2176 94.1366 17.3734 94.2481 16.37C94.3357 15.5656 94.1446 14.8249 93.7782 14.1201C93.1092 12.8339 92.0619 11.8941 90.9151 11.0499C89.5532 10.0464 88.0679 9.26195 86.5308 8.56509C86.3994 8.50536 86.272 8.44164 86.1167 8.36598L86.1247 8.36997Z" fill="#A7C820"/>
<path d="M9.64453 10.7314H11.6953L13.1727 16.159L14.9487 10.8509H16.6968L18.5684 16.159L19.8347 10.7314H21.7939L19.5639 18.8748H17.4813L15.7172 13.9291L14.0447 18.8748H12.0258L9.64453 10.7314Z" fill="currentColor"/>
<path d="M54.3911 10.8555H56.4419L57.9192 16.283L59.6992 10.9749H61.4474L63.3189 16.283L64.5852 10.8555H66.5444L64.3145 18.9948H62.2318L60.4678 14.0531L58.7953 18.9948H56.7764L54.3911 10.8555Z" fill="#A7C820"/>
<path d="M26.3333 17.3342C25.1426 17.3342 24.179 16.1914 24.179 14.7857C24.179 13.38 25.1426 12.2372 26.3333 12.2372C27.5239 12.2372 28.4876 13.38 28.4876 14.7857C28.4876 16.1914 27.5199 17.3342 26.3333 17.3342ZM26.393 10.5527C23.9878 10.5527 22.0366 12.4721 22.0366 14.8335C22.0366 17.1948 23.9878 19.1142 26.393 19.1142C28.7982 19.1142 30.7494 17.1948 30.7494 14.8335C30.7494 12.4721 28.7982 10.5527 26.393 10.5527Z" fill="currentColor"/>
<path d="M39.7373 10.7314H41.9075V17.3377H45.3162V18.8748H39.7373V10.7314Z" fill="currentColor"/>
<path d="M34.0191 14.1999V12.2408C34.0191 12.2408 35.9384 11.8704 35.9384 13.1766C35.9384 13.1766 36.1017 14.3513 34.0191 14.2039V14.1999ZM37.2645 15.7689C37.2645 15.7689 37.0813 15.1357 36.2092 14.9247C36.2092 14.9247 38.0211 14.3831 38.0768 13.1128C38.0768 13.0571 38.0888 13.0053 38.0927 12.9496C38.1087 12.4 37.8936 11.8625 37.4915 11.4842C36.5676 10.6081 35.1898 10.7316 34.0191 10.7316H31.9404V18.8749H34.0191V15.6215C34.0191 15.6215 34.7 15.1676 35.2416 16.3463C35.7831 17.521 36.476 18.8789 36.476 18.8789H38.8892L37.2605 15.7729L37.2645 15.7689Z" fill="currentColor"/>
<path d="M69.348 10.7314H67.3569V18.8748H69.348V10.7314Z" fill="#A7C820"/>
<path d="M86.1163 17.2627H82.4209V15.4987H85.738V13.9297H82.4209V12.317H85.8893V10.748H82.4209H82.2537H80.2666V18.8914L86.1163 18.9073V17.2627Z" fill="#A7C820"/>
<path d="M48.434 17.4695C48.5973 17.5014 48.8561 17.5014 49.0831 17.5014C50.7715 17.5173 51.8825 16.5815 51.8825 14.6104C51.8865 12.8941 50.883 11.9942 49.2782 11.9942C48.872 11.9942 48.5973 12.03 48.43 12.0658V17.4695H48.434ZM46.5704 10.7358C47.2553 10.6243 48.1513 10.5566 49.0871 10.5566C50.652 10.5566 51.6754 10.8473 52.4639 11.4446C53.32 12.0858 53.8576 13.0932 53.8576 14.5507C53.8576 16.1316 53.2842 17.2266 52.4917 17.8956C51.6237 18.6204 50.2936 18.9628 48.6849 18.9628C47.7132 18.9628 47.0243 18.9031 46.5664 18.8394V10.7358H46.5704Z" fill="currentColor"/>
<path d="M73.0233 17.6365C73.1866 17.6684 73.4454 17.6684 73.6724 17.6684C75.3608 17.6843 76.4718 16.7485 76.4718 14.7774C76.4757 13.0611 75.4723 12.1612 73.8675 12.1612C73.4613 12.1612 73.1865 12.197 73.0193 12.2328V17.6365H73.0233ZM71.1637 10.9028C71.8486 10.7913 72.7445 10.7236 73.6803 10.7236C75.2453 10.7236 76.2687 11.0143 77.0571 11.6116C77.9133 12.2528 78.4509 13.2602 78.4509 14.7177C78.4509 16.2985 77.8774 17.3936 77.085 18.0626C76.2169 18.7873 74.8869 19.1298 73.2781 19.1298C72.3065 19.1298 71.6176 19.0701 71.1597 19.0064V10.9028H71.1637Z" fill="#A7C820"/>
<path d="M29.5231 21.583C29.6983 21.583 29.8536 21.5989 29.989 21.6348C30.1244 21.6706 30.2438 21.7144 30.3514 21.7702L30.216 22.2122C30.0965 22.1564 29.985 22.1086 29.8735 22.0808C29.762 22.0489 29.6585 22.033 29.5549 22.033C29.4156 22.033 29.3081 22.0609 29.2324 22.1166C29.1567 22.1724 29.1169 22.244 29.1169 22.3356C29.1169 22.4272 29.1488 22.5029 29.2165 22.5507C29.2842 22.5984 29.3877 22.6462 29.535 22.694L29.7939 22.7776C30.0089 22.8493 30.1801 22.9528 30.3036 23.0843C30.427 23.2157 30.4868 23.3789 30.4868 23.574C30.4868 23.6895 30.4629 23.797 30.4191 23.9006C30.3753 24.0001 30.3115 24.0877 30.2239 24.1634C30.1363 24.2391 30.0288 24.2988 29.9014 24.3426C29.77 24.3864 29.6187 24.4063 29.4474 24.4063C29.1209 24.4063 28.8222 24.3426 28.5515 24.2072L28.6869 23.7652C28.8103 23.8249 28.9337 23.8727 29.0492 23.9046C29.1687 23.9364 29.2921 23.9563 29.4235 23.9563C29.5788 23.9563 29.6903 23.9285 29.77 23.8727C29.8496 23.817 29.8855 23.7373 29.8855 23.6378C29.8855 23.6019 29.8775 23.5701 29.8656 23.5342C29.8536 23.5024 29.8297 23.4705 29.7939 23.4387C29.758 23.4068 29.7142 23.3789 29.6545 23.3471C29.5948 23.3152 29.5191 23.2873 29.4235 23.2595L29.1966 23.1798C29.097 23.144 29.0014 23.1042 28.9218 23.0604C28.8382 23.0126 28.7665 22.9608 28.7068 22.9011C28.647 22.8413 28.6032 22.7697 28.5674 22.686C28.5355 22.6024 28.5156 22.5069 28.5156 22.3993C28.5156 22.2799 28.5355 22.1724 28.5793 22.0728C28.6231 21.9733 28.6869 21.8856 28.7705 21.814C28.8541 21.7423 28.9616 21.6865 29.0851 21.6467C29.2085 21.6069 29.3558 21.587 29.5151 21.587L29.5231 21.583Z" fill="currentColor"/>
<path d="M32.3506 23.9443C32.482 23.9443 32.5975 23.9324 32.6891 23.9085C32.7806 23.8846 32.8603 23.8527 32.928 23.8129L33.0514 24.2469C32.9798 24.2868 32.8842 24.3226 32.7568 24.3545C32.6293 24.3863 32.474 24.4022 32.2948 24.4022C32.0917 24.4022 31.9006 24.3704 31.7294 24.3067C31.5581 24.243 31.4068 24.1474 31.2834 24.0239C31.1599 23.9005 31.0604 23.7532 30.9927 23.578C30.921 23.4027 30.8892 23.2076 30.8892 22.9886C30.8892 22.7696 30.921 22.5824 30.9927 22.4112C31.0604 22.24 31.156 22.0887 31.2794 21.9692C31.4028 21.8457 31.5502 21.7542 31.7254 21.6865C31.9006 21.6228 32.0997 21.5869 32.3147 21.5869C32.4979 21.5869 32.6492 21.6028 32.7727 21.6387C32.8921 21.6745 32.9877 21.7104 33.0634 21.7502L32.928 22.1882C32.8523 22.1484 32.7687 22.1125 32.6811 22.0847C32.5895 22.0568 32.49 22.0449 32.3745 22.0449C32.255 22.0449 32.1435 22.0608 32.04 22.0966C31.9364 22.1325 31.8449 22.1882 31.7692 22.2639C31.6896 22.3395 31.6298 22.4391 31.586 22.5585C31.5422 22.678 31.5183 22.8253 31.5183 22.9926C31.5183 23.1598 31.5422 23.2992 31.582 23.4187C31.6258 23.5381 31.6856 23.6377 31.7612 23.7133C31.8369 23.793 31.9285 23.8487 32.028 23.8886C32.1316 23.9284 32.2391 23.9483 32.3585 23.9483L32.3506 23.9443Z" fill="currentColor"/>
<path d="M33.5132 24.3586V21.6309H34.1065V22.714H35.1379V21.6309H35.7312V24.3586H35.1379V23.1799H34.1065V24.3586H33.5132Z" fill="currentColor"/>
<path d="M36.8781 23.0006C36.8781 23.1639 36.898 23.3033 36.9378 23.4227C36.9777 23.5422 37.0294 23.6417 37.0971 23.7214C37.1648 23.801 37.2405 23.8608 37.3281 23.9006C37.4157 23.9404 37.5113 23.9603 37.6108 23.9603C37.7104 23.9603 37.802 23.9404 37.8896 23.9006C37.9772 23.8608 38.0528 23.805 38.1165 23.7214C38.1803 23.6417 38.232 23.5422 38.2679 23.4227C38.3077 23.3033 38.3236 23.1639 38.3236 23.0006C38.3236 22.8374 38.3037 22.69 38.2639 22.5666C38.2241 22.4471 38.1723 22.3436 38.1046 22.2679C38.0369 22.1883 37.9612 22.1286 37.8736 22.0927C37.786 22.0569 37.6905 22.037 37.5909 22.037C37.4914 22.037 37.3958 22.0569 37.3082 22.0967C37.2206 22.1365 37.1449 22.1962 37.0812 22.2759C37.0175 22.3555 36.9657 22.4551 36.9299 22.5745C36.8901 22.694 36.8741 22.8374 36.8741 22.9966M37.6108 21.583C37.802 21.583 37.9851 21.6149 38.1484 21.6786C38.3117 21.7423 38.455 21.8339 38.5745 21.9533C38.6939 22.0728 38.7855 22.2201 38.8532 22.3954C38.9209 22.5706 38.9528 22.7736 38.9528 22.9966C38.9528 23.2196 38.9169 23.4108 38.8492 23.586C38.7776 23.7572 38.686 23.9046 38.5625 24.028C38.4391 24.1475 38.2957 24.243 38.1325 24.3068C37.9652 24.3705 37.786 24.4063 37.5949 24.4063C37.4038 24.4063 37.2206 24.3744 37.0573 24.3107C36.894 24.251 36.7507 24.1554 36.6312 24.04C36.5118 23.9205 36.4202 23.7732 36.3525 23.5979C36.2848 23.4227 36.2529 23.2236 36.2529 23.0006C36.2529 22.7776 36.2888 22.5825 36.3565 22.4113C36.4281 22.2361 36.5197 22.0887 36.6432 21.9653C36.7666 21.8418 36.91 21.7503 37.0732 21.6826C37.2365 21.6188 37.4197 21.587 37.6108 21.587V21.583Z" fill="currentColor"/>
<path d="M39.968 23.0006C39.968 23.1639 39.9879 23.3033 40.0278 23.4227C40.0676 23.5422 40.1194 23.6417 40.187 23.7214C40.2547 23.801 40.3304 23.8608 40.418 23.9006C40.5056 23.9404 40.6012 23.9603 40.7007 23.9603C40.8003 23.9603 40.8919 23.9404 40.9795 23.9006C41.0671 23.8608 41.1428 23.805 41.2065 23.7214C41.2702 23.6417 41.3219 23.5422 41.3578 23.4227C41.3976 23.3033 41.4135 23.1639 41.4135 23.0006C41.4135 22.8374 41.3936 22.69 41.3538 22.5666C41.314 22.4471 41.2622 22.3436 41.1945 22.2679C41.1268 22.1883 41.0512 22.1286 40.9636 22.0927C40.876 22.0569 40.7804 22.037 40.6808 22.037C40.5813 22.037 40.4857 22.0569 40.3981 22.0967C40.3105 22.1365 40.2348 22.1962 40.1711 22.2759C40.1074 22.3555 40.0556 22.4551 40.0198 22.5745C39.98 22.694 39.9641 22.8374 39.9641 22.9966M40.6968 21.583C40.8879 21.583 41.0711 21.6149 41.2343 21.6786C41.3976 21.7423 41.541 21.8339 41.6604 21.9533C41.7799 22.0728 41.8715 22.2201 41.9392 22.3954C42.0069 22.5706 42.0387 22.7736 42.0387 22.9966C42.0387 23.2196 42.0029 23.4108 41.9352 23.586C41.8635 23.7572 41.7719 23.9046 41.6485 24.028C41.525 24.1475 41.3817 24.243 41.2184 24.3068C41.0512 24.3705 40.872 24.4063 40.6808 24.4063C40.4897 24.4063 40.3065 24.3744 40.1432 24.3107C39.98 24.251 39.8366 24.1554 39.7172 24.04C39.5977 23.9205 39.5061 23.7732 39.4384 23.5979C39.3707 23.4227 39.3389 23.2236 39.3389 23.0006C39.3389 22.7776 39.3747 22.5825 39.4424 22.4113C39.5141 22.2361 39.6057 22.0887 39.7291 21.9653C39.8526 21.8418 39.9959 21.7503 40.1592 21.6826C40.3224 21.6188 40.5056 21.587 40.6968 21.587V21.583Z" fill="currentColor"/>
<path d="M42.5527 21.6309H43.1461V23.8887H44.2451V24.3586H42.5527V21.6309Z" fill="currentColor"/>
<path d="M46.1603 23.0006C46.1603 23.1639 46.1802 23.3033 46.22 23.4227C46.2598 23.5422 46.3116 23.6417 46.3793 23.7214C46.447 23.801 46.5226 23.8608 46.6102 23.9006C46.6978 23.9404 46.7934 23.9603 46.893 23.9603C46.9925 23.9603 47.0841 23.9404 47.1717 23.9006C47.2593 23.8608 47.335 23.805 47.3987 23.7214C47.4624 23.6417 47.5142 23.5422 47.55 23.4227C47.5898 23.3033 47.6058 23.1639 47.6058 23.0006C47.6058 22.8374 47.5859 22.69 47.546 22.5666C47.5062 22.4471 47.4544 22.3436 47.3867 22.2679C47.3191 22.1883 47.2434 22.1286 47.1558 22.0927C47.0682 22.0569 46.9726 22.037 46.8731 22.037C46.7735 22.037 46.6779 22.0569 46.5903 22.0967C46.5027 22.1365 46.4271 22.1962 46.3673 22.2759C46.3036 22.3555 46.2519 22.4551 46.216 22.5745C46.1762 22.694 46.1603 22.8374 46.1603 22.9966M46.893 21.583C47.0841 21.583 47.2673 21.6149 47.4306 21.6786C47.5938 21.7423 47.7372 21.8339 47.8566 21.9533C47.9761 22.0728 48.0677 22.2201 48.1354 22.3954C48.2031 22.5706 48.2389 22.7736 48.2389 22.9966C48.2389 23.2196 48.2031 23.4108 48.1354 23.586C48.0637 23.7572 47.9721 23.9046 47.8487 24.028C47.7252 24.1514 47.5819 24.243 47.4186 24.3068C47.2514 24.3705 47.0722 24.4063 46.881 24.4063C46.6899 24.4063 46.5067 24.3744 46.3434 24.3107C46.1802 24.251 46.0368 24.1554 45.9174 24.04C45.7979 23.9205 45.7063 23.7732 45.6386 23.5979C45.5709 23.4227 45.5391 23.2236 45.5391 23.0006C45.5391 22.7776 45.5749 22.5825 45.6426 22.4113C45.7103 22.2361 45.8059 22.0887 45.9293 21.9653C46.0527 21.8418 46.1961 21.7503 46.3594 21.6826C46.5226 21.6188 46.7058 21.587 46.897 21.587L46.893 21.583Z" fill="currentColor"/>
<path d="M50.4768 21.6309V22.0928H49.3419V22.8135H50.3812V23.2675H49.3419V24.3586H48.7485V21.6348H50.4768V21.6309Z" fill="currentColor"/>
<path d="M51.978 21.6309H53.754V22.0928H52.5714V22.714H53.6386V23.1679H52.5714V23.8967H53.766V24.3586H51.982V21.6309H51.978Z" fill="currentColor"/>
<path d="M54.2559 21.6309H54.7975L55.7373 23.0684C55.801 23.164 55.8567 23.2635 55.9125 23.3551C55.9642 23.4467 56.0041 23.5223 56.028 23.5741H56.0359C56.02 23.387 56.008 23.1998 56.008 23.0166V21.6348H56.5576V24.3586H56.016L55.1439 23.0365C55.1041 22.9808 55.0683 22.9211 55.0324 22.8573C54.9966 22.7936 54.9608 22.7339 54.9289 22.6781C54.897 22.6224 54.8692 22.5666 54.8453 22.5189C54.8214 22.4711 54.8015 22.4313 54.7895 22.3994H54.7816C54.7975 22.5985 54.8055 22.7896 54.8055 22.9728C54.8055 23.156 54.8055 23.3432 54.8055 23.5303V24.3546H54.252V21.6309H54.2559Z" fill="currentColor"/>
<path d="M58.5049 21.5831C58.6761 21.5831 58.8275 21.599 58.9589 21.6269C59.0903 21.6548 59.2097 21.6946 59.3173 21.7424L59.1898 22.1446C59.0903 22.0968 58.9867 22.0609 58.8792 22.037C58.7717 22.0131 58.6682 22.0012 58.5646 22.0012C58.4452 22.0012 58.3337 22.0211 58.2301 22.057C58.1266 22.0968 58.035 22.1525 57.9554 22.2361C57.8757 22.3158 57.816 22.4193 57.7682 22.5467C57.7204 22.6742 57.6966 22.8215 57.6966 23.0007C57.6966 23.3153 57.7682 23.5542 57.9076 23.7254C58.047 23.8927 58.2461 23.9803 58.5049 23.9803C58.6562 23.9803 58.7677 23.9644 58.8434 23.9365V23.2994H58.3934V22.8574H59.4088V24.2391C59.2973 24.2869 59.1659 24.3267 59.0146 24.3586C58.8633 24.3905 58.6921 24.4064 58.5009 24.4064C58.3098 24.4064 58.1107 24.3745 57.9355 24.3148C57.7603 24.2551 57.6089 24.1635 57.4815 24.044C57.3541 23.9245 57.2545 23.7772 57.1789 23.602C57.1032 23.4268 57.0674 23.2277 57.0674 22.9967C57.0674 22.7658 57.1032 22.5667 57.1789 22.3875C57.2545 22.2083 57.3541 22.0609 57.4815 21.9455C57.6089 21.826 57.7603 21.7384 57.9315 21.6747C58.1067 21.6149 58.2978 21.5791 58.5009 21.5791L58.5049 21.5831Z" fill="currentColor"/>
<path d="M59.9702 21.6309H60.5635V23.8887H61.6626V24.3586H59.9702V21.6309Z" fill="currentColor"/>
<path d="M62.8374 21.6309H62.041V24.3546H62.8374V21.6309Z" fill="currentColor"/>
<path d="M64.1594 21.583C64.3346 21.583 64.4899 21.5989 64.6253 21.6348C64.7607 21.6706 64.8841 21.7144 64.9877 21.7702L64.8523 22.2122C64.7328 22.1564 64.6213 22.1086 64.5098 22.0808C64.3983 22.0489 64.2948 22.033 64.1913 22.033C64.0519 22.033 63.9444 22.0609 63.8687 22.1166C63.793 22.1724 63.7532 22.244 63.7532 22.3356C63.7532 22.4272 63.7851 22.5029 63.8528 22.5507C63.9165 22.5984 64.024 22.6462 64.1713 22.694L64.4302 22.7776C64.6452 22.8493 64.8164 22.9528 64.9359 23.0843C65.0594 23.2157 65.1191 23.3789 65.1191 23.574C65.1191 23.6895 65.0952 23.797 65.0554 23.9006C65.0116 24.0001 64.9479 24.0877 64.8602 24.1634C64.7726 24.2391 64.6651 24.2988 64.5377 24.3426C64.4063 24.3864 64.255 24.4063 64.0837 24.4063C63.7572 24.4063 63.4585 24.3426 63.1878 24.2072L63.3232 23.7652C63.4466 23.8249 63.57 23.8727 63.6855 23.9046C63.801 23.9364 63.9284 23.9563 64.0559 23.9563C64.2072 23.9563 64.3227 23.9285 64.4023 23.8727C64.4819 23.817 64.5178 23.7373 64.5178 23.6378C64.5178 23.6019 64.5098 23.5701 64.4979 23.5342C64.4859 23.5024 64.462 23.4705 64.4262 23.4387C64.3904 23.4068 64.3466 23.3789 64.2868 23.3471C64.2271 23.3152 64.1514 23.2873 64.0559 23.2595L63.8289 23.1798C63.7293 23.144 63.6338 23.1042 63.5541 23.0604C63.4705 23.0126 63.3988 22.9608 63.3391 22.9011C63.2794 22.8413 63.2356 22.7697 63.1997 22.686C63.1679 22.6024 63.1479 22.5069 63.1479 22.3993C63.1479 22.2799 63.1679 22.1724 63.2117 22.0728C63.2555 21.9733 63.3192 21.8856 63.4028 21.814C63.4864 21.7423 63.5939 21.6865 63.7174 21.6467C63.8448 21.6069 63.9882 21.587 64.1474 21.587L64.1594 21.583Z" fill="currentColor"/>
<path d="M65.6367 24.3586V21.6309H66.2301V22.714H67.2654V21.6309H67.8587V24.3586H67.2654V23.1799H66.2301V24.3586H65.6367Z" fill="currentColor"/>
</g>
<defs>
<clipPath id="clip0_2272_188">
<rect width="96.5455" height="32" fill="currentColor"/>
</clipPath>
</defs>
</svg>
